<?xml version="1.0" encoding="utf-8"?>
<!-- Generator: Adobe Illustrator 25.4.0, SVG Export Plug-In . SVG Version: 6.00 Build 0)  -->
<svg version="1.1" id="Capa_1" xmlns="http://www.w3.org/2000/svg" xmlns:xlink="http://www.w3.org/1999/xlink" x="0px" y="0px"
	 viewBox="0 0 1134 768" style="enable-background:new 0 0 1134 768;" xml:space="preserve">
<style type="text/css">
	.st0{fill:#003D91;}
	.st1{fill:none;}
	.st2{fill:#FFFFFF;}
	.st3{font-family:'Avenir-Black';}
	.st4{font-size:129.9652px;}
	.st5{font-size:151.626px;}
	.st6{fill:#00AADF;}
	.st7{font-family:'Avenir-Medium';}
	.st8{font-size:64.9826px;}
	.st9{fill:#C6D400;}
	.st10{font-size:86.6434px;}
	.st11{font-family:'Avenir-Roman';}
	.st12{font-size:43.3217px;}
</style>
<g>
	<path class="st0" d="M962.1,713.6H173.4C79.8,713.6,4,637.7,4,544.2V223.3C4,129.8,79.8,54,173.4,54h788.7
		c93.5,0,169.4,75.8,169.4,169.4v320.9C1131.5,637.7,1055.6,713.6,962.1,713.6z"/>
	<rect x="215.7" y="201.9" class="st1" width="704.3" height="270.1"/>
	<text transform="matrix(1 0 0 1 287.4957 300.1575)"><tspan x="0" y="0" class="st2 st3 st4"> DÍA DEL </tspan><tspan x="-38.9" y="119.6" class="st2 st3 st4">  </tspan><tspan x="38" y="119.6" class="st2 st3 st5">PADRE, </tspan></text>
	<rect x="151.6" y="228" class="st1" width="210.9" height="96.8"/>
	<text transform="matrix(1 0 0 1 192.6808 277.0809)" class="st6 st7 st8">Este</text>
	<rect x="-106.3" y="512.1" class="st1" width="1383" height="93.2"/>
	<text transform="matrix(1 0 0 1 259.5094 577.5941)" class="st9 st3 st10">BN VEHÍCULOS </text>
	<rect x="26" y="449.4" class="st1" width="1083.7" height="99.6"/>
	<text transform="matrix(1 0 0 1 311.754 482.1234)" class="st2 st11 st12">regalate tu carro ideal con </text>
</g>
</svg>
