<?xml version="1.0" encoding="UTF-8"?>
<svg id="Layer_1" xmlns="http://www.w3.org/2000/svg" version="1.1" viewBox="0 0 203.64 34.48">
  <!-- Generator: Adobe Illustrator 29.5.1, SVG Export Plug-In . SVG Version: 2.1.0 Build 141)  -->
  <defs>
    <style>
      .st0 {
        fill: #133d8d;
      }

      .st1 {
        fill: #b0bc22;
      }
    </style>
  </defs>
  <g>
    <g>
      <path class="st0" d="M27.1,9.99h10.99c2.7,0,4.59.67,5.85,1.93.86.86,1.38,1.99,1.38,3.46v.06c0,2.48-1.41,3.95-3.31,4.78,2.6.86,4.26,2.33,4.26,5.24v.06c0,3.68-3,5.91-8.12,5.91h-11.06V9.99ZM36.62,18.53c1.81,0,2.82-.61,2.82-1.87v-.06c0-1.16-.92-1.84-2.7-1.84h-3.86v3.77h3.74ZM37.48,26.65c1.81,0,2.85-.7,2.85-1.96v-.06c0-1.16-.92-1.93-2.91-1.93h-4.53v3.95h4.59Z"/>
      <path class="st0" d="M47.77,9.99h5.54l8.82,11.33v-11.33h5.88v21.44h-5.21l-9.16-11.76v11.76h-5.88V9.99Z"/>
    </g>
    <polygon class="st1" points="2.93 31.42 12.17 5.63 22.04 2.75 17.37 31.42 11.68 31.42 17.67 6.91 13.75 8.04 6.36 31.42 2.93 31.42"/>
    <polygon class="st1" points="22.55 9.46 20.05 31.42 24.44 31.42 24.69 12.97 22.55 9.46"/>
  </g>
  <g>
    <path class="st0" d="M88.64,18.56v4.66h-8v8.3h-4.98V9.7h14.53v4.66h-9.55v4.2h8Z"/>
    <path class="st0" d="M91.21,20.61c0-1.03.13-2.01.4-2.96.27-.95.65-1.84,1.14-2.66.49-.82,1.07-1.57,1.75-2.25.68-.68,1.44-1.25,2.27-1.74.83-.48,1.73-.86,2.68-1.12.95-.26,1.95-.4,2.97-.4s2.02.13,2.97.4c.95.26,1.85.64,2.68,1.12.83.48,1.59,1.06,2.27,1.74.68.68,1.26,1.42,1.75,2.25.49.82.87,1.71,1.14,2.66.27.95.4,1.94.4,2.96s-.13,2.01-.4,2.96c-.27.95-.65,1.84-1.14,2.66s-1.07,1.57-1.75,2.25c-.68.68-1.44,1.25-2.27,1.74-.83.48-1.73.86-2.68,1.12-.95.26-1.95.4-2.97.4s-2.03-.13-2.98-.4c-.95-.26-1.84-.64-2.67-1.12-.83-.48-1.59-1.06-2.27-1.74-.68-.68-1.26-1.42-1.75-2.25s-.87-1.71-1.14-2.66c-.27-.95-.4-1.94-.4-2.96ZM96.2,20.61c0,.84.17,1.64.5,2.38.34.75.79,1.4,1.36,1.96.57.56,1.23,1,1.98,1.32.75.32,1.55.48,2.39.48s1.63-.16,2.38-.48c.76-.32,1.42-.76,1.99-1.32.57-.56,1.02-1.21,1.36-1.96.34-.75.5-1.54.5-2.38s-.17-1.64-.5-2.38c-.34-.75-.79-1.4-1.36-1.95-.57-.55-1.23-.99-1.99-1.32-.76-.32-1.55-.49-2.38-.49s-1.64.16-2.39.49c-.75.33-1.41.76-1.98,1.32-.57.55-1.02,1.2-1.36,1.95-.34.75-.5,1.54-.5,2.38Z"/>
    <path class="st0" d="M136.55,31.53h-4.95l-10.44-15.1v15.1h-4.97V9.7h4.91c.49,0,.92.07,1.3.21.38.14.67.36.87.66l7.63,11.18c.11.16.21.34.29.53.08.19.15.37.21.54.06.17.11.31.14.43s.05.2.05.23v-13.79h4.97v21.83Z"/>
    <path class="st0" d="M140.39,31.53V9.7h9.03c1.01,0,1.98.13,2.92.39.94.26,1.82.63,2.63,1.1.81.48,1.56,1.05,2.23,1.71.68.67,1.25,1.4,1.73,2.21.48.81.85,1.68,1.11,2.61.26.93.4,1.9.4,2.9s-.13,1.97-.4,2.9c-.26.93-.63,1.8-1.11,2.61-.48.81-1.05,1.54-1.73,2.21-.68.67-1.42,1.23-2.23,1.71-.81.47-1.69.84-2.63,1.1-.94.26-1.91.39-2.92.39h-9.03ZM149.43,26.53c.8,0,1.57-.15,2.29-.46s1.37-.73,1.92-1.26.99-1.16,1.32-1.88c.32-.72.49-1.49.49-2.3s-.16-1.58-.49-2.3c-.33-.72-.76-1.35-1.32-1.89-.55-.54-1.19-.96-1.92-1.27s-1.49-.46-2.29-.46h-4.05v11.84h4.05Z"/>
    <path class="st0" d="M161.69,20.61c0-1.03.13-2.01.4-2.96.27-.95.65-1.84,1.14-2.66.49-.82,1.07-1.57,1.75-2.25.68-.68,1.44-1.25,2.27-1.74.83-.48,1.73-.86,2.68-1.12.95-.26,1.95-.4,2.97-.4s2.02.13,2.97.4c.95.26,1.85.64,2.68,1.12.83.48,1.59,1.06,2.27,1.74.68.68,1.26,1.42,1.75,2.25.49.82.87,1.71,1.14,2.66.27.95.4,1.94.4,2.96s-.13,2.01-.4,2.96c-.27.95-.65,1.84-1.14,2.66s-1.07,1.57-1.75,2.25c-.68.68-1.44,1.25-2.27,1.74-.83.48-1.73.86-2.68,1.12-.95.26-1.95.4-2.97.4s-2.03-.13-2.98-.4c-.95-.26-1.84-.64-2.67-1.12-.83-.48-1.59-1.06-2.27-1.74-.68-.68-1.26-1.42-1.75-2.25s-.87-1.71-1.14-2.66c-.27-.95-.4-1.94-.4-2.96ZM166.67,20.61c0,.84.17,1.64.5,2.38.34.75.79,1.4,1.36,1.96.57.56,1.23,1,1.98,1.32.75.32,1.55.48,2.39.48s1.63-.16,2.38-.48c.76-.32,1.42-.76,1.99-1.32.57-.56,1.02-1.21,1.36-1.96.34-.75.5-1.54.5-2.38s-.17-1.64-.5-2.38c-.34-.75-.79-1.4-1.36-1.95-.57-.55-1.23-.99-1.99-1.32-.76-.32-1.55-.49-2.38-.49s-1.64.16-2.39.49c-.75.33-1.41.76-1.98,1.32-.57.55-1.02,1.2-1.36,1.95-.34.75-.5,1.54-.5,2.38Z"/>
    <path class="st0" d="M193.18,14.48c-.26,0-.52.02-.77.07s-.47.12-.66.22c-.19.1-.35.23-.46.38-.12.15-.18.34-.18.55,0,.33.08.58.24.76.16.18.41.34.74.48.33.14.74.27,1.23.41.49.14,1.07.32,1.73.54.84.28,1.61.63,2.31,1.04s1.29.89,1.78,1.45.88,1.18,1.15,1.87c.27.69.41,1.46.41,2.32,0,1.06-.22,2.02-.67,2.9-.45.88-1.04,1.63-1.79,2.26-.75.63-1.61,1.12-2.58,1.47-.98.35-1.99.53-3.03.53-.89,0-1.74-.13-2.55-.4-.81-.26-1.55-.63-2.22-1.1s-1.27-1.04-1.78-1.69-.9-1.37-1.19-2.14l1.58-.91c.25-.14.53-.26.82-.34.29-.09.58-.13.88-.13.44,0,.83.09,1.18.27s.69.38,1.03.59c.34.21.68.41,1.04.59.36.18.76.27,1.22.27.3,0,.64-.05,1-.14.36-.1.7-.24,1.01-.42.31-.18.57-.41.77-.68.2-.27.31-.58.31-.94,0-.34-.09-.61-.28-.82-.19-.21-.44-.4-.76-.56-.32-.16-.69-.3-1.1-.43-.42-.13-.85-.29-1.31-.47-.75-.28-1.49-.59-2.22-.93-.73-.34-1.39-.75-1.97-1.24-.58-.49-1.05-1.09-1.41-1.8s-.54-1.58-.54-2.63c0-.99.2-1.86.6-2.63.4-.77.93-1.41,1.59-1.94.66-.53,1.41-.93,2.26-1.21.85-.28,1.72-.42,2.61-.42.65,0,1.28.11,1.9.33.61.22,1.2.5,1.74.85.55.35,1.06.75,1.54,1.2.48.45.91.9,1.29,1.37l-1.54,1.29c-.31.26-.62.45-.95.56s-.7.17-1.1.17c-.33,0-.61-.04-.85-.12-.24-.08-.47-.17-.69-.27-.21-.1-.43-.19-.64-.27s-.45-.12-.7-.12Z"/>
  </g>
</svg>