<?xml version="1.0" encoding="utf-8"?>
<!-- Generator: Adobe Illustrator 23.0.3, SVG Export Plug-In . SVG Version: 6.00 Build 0)  -->
<svg version="1.1"
	 id="svg2" xmlns:inkscape="http://www.inkscape.org/namespaces/inkscape" xmlns:sodipodi="http://sodipodi.sourceforge.net/DTD/sodipodi-0.dtd" xmlns:svg="http://www.w3.org/2000/svg"
	 xmlns="http://www.w3.org/2000/svg" xmlns:xlink="http://www.w3.org/1999/xlink" x="0px" y="0px" viewBox="0 0 312 137.8"
	 style="enable-background:new 0 0 312 137.8;" xml:space="preserve">
<style type="text/css">
	.st0{clip-path:url(#SVGID_2_);}
	.st1{fill:#22408A;}
	.st2{fill:#AFBD36;}
</style>
<sodipodi:namedview  bordercolor="#000000" borderopacity="0.25" id="namedview4" inkscape:deskcolor="#d1d1d1" inkscape:pagecheckerboard="0" inkscape:pageopacity="0.0" inkscape:showpageshadow="2" pagecolor="#ffffff">
	</sodipodi:namedview>
<g id="g8" transform="matrix(1.3333333,0,0,-1.3333333,0,1122.52)" inkscape:groupmode="layer" inkscape:label="logo-bncr">
	<g id="g10">
		<g>
			<defs>
				<rect id="SVGID_1_" x="-278.5" y="52.4" width="793.7" height="1122.5"/>
			</defs>
			<clipPath id="SVGID_2_">
				<use xlink:href="#SVGID_1_"  style="overflow:visible;"/>
			</clipPath>
			<g id="g12" class="st0">
				<g id="g18" transform="translate(304.79,562.7738)">
					<path id="path20" class="st1" d="M-179.2,192.8c6.4,0,10.1,2.5,10.1,7v0.2c0,4.1-3.3,6.8-10.3,6.8h-16.1v-14H-179.2z
						 M-182.3,221.5c6.4,0,10,2.2,10,6.6v0.2c0,4.1-3.3,6.5-9.6,6.5h-13.7v-13.4H-182.3z M-216.1,251.9h39c9.6,0,16.3-2.4,20.8-6.8
						c3-3,4.9-7.1,4.9-12.3v-0.2c0-8.8-5-14-11.7-17c9.2-3,15.1-8.3,15.1-18.6v-0.2c0-13-10.6-21-28.8-21h-39.2V251.9z"/>
				</g>
				<g id="g22" transform="translate(341.3044,621.8942)">
					<path id="path24" class="st1" d="M-179.2,192.8h19.7l31.3-40.2v40.2h20.9v-76.1h-18.5l-32.5,41.7v-41.7h-20.9V192.8z"/>
				</g>
				<g id="g26" transform="translate(182.1932,545.8201)">
					<path id="path28" class="st2" d="M-179.3,192.8l32.8,91.5l35,10.2L-128,192.8h-20.2l21.2,87l-13.9-4l-26.2-83H-179.3z"/>
				</g>
				<g id="g30" transform="translate(251.8269,623.7675)">
					<path id="path32" class="st2" d="M-179.2,192.8l-8.9-77.9h15.6l0.9,65.5L-179.2,192.8z"/>
				</g>
			</g>
		</g>
	</g>
</g>
</svg>
