<?xml version="1.0" encoding="utf-8"?>
<!-- Generator: Adobe Illustrator 24.0.2, SVG Export Plug-In . SVG Version: 6.00 Build 0)  -->
<svg version="1.1" id="Layer_1" xmlns="http://www.w3.org/2000/svg" xmlns:xlink="http://www.w3.org/1999/xlink" x="0px" y="0px"
	 viewBox="0 0 987 783" style="enable-background:new 0 0 987 783;" xml:space="preserve">
<style type="text/css">
	.st0{display:none;}
	.st1{display:inline;}
	.st2{display:inline;clip-path:url(#SVGID_2_);}
	.st3{display:none;opacity:0.64;fill-rule:evenodd;clip-rule:evenodd;fill:#FFFFFF;}
	.st4{display:inline;clip-path:url(#SVGID_4_);}
	.st5{opacity:0.27;fill:#383708;}
	.st6{fill:#0072B4;}
	.st7{fill:#00589F;}
	.st8{fill:#0D3268;}
	.st9{fill:#12A8DB;}
	.st10{fill:#68C4E9;}
	.st11{opacity:0.39;fill:#0072B4;}
	.st12{fill:#133D8D;}
	.st13{fill:#0A2D51;}
	.st14{fill:#103C82;}
	.st15{fill:#008DCF;}
	.st16{fill:#0D4D9B;}
	.st17{fill:#0A2E59;}
	.st18{fill:#F3DC66;}
	.st19{fill:#FDFDFD;}
	.st20{fill:#8A8A8A;}
	.st21{fill:#D5D5D5;}
	.st22{fill:#001C6D;}
	.st23{fill:#B9BD41;}
	.st24{fill:#0A2B54;}
	.st25{fill-rule:evenodd;clip-rule:evenodd;fill:#00589F;}
	.st26{fill:#B9B5B8;}
	.st27{fill:#2D2C36;}
	.st28{fill:#393842;}
	.st29{fill:#504F57;}
	.st30{fill:#B9B9BD;}
	.st31{fill:#5F5E66;}
	.st32{fill:#6E6D74;}
	.st33{fill:#86858B;}
	.st34{fill:#A3A2A7;}
	.st35{fill:#BF413F;}
	.st36{fill:#CAD43D;}
	.st37{fill:#92A139;}
	.st38{fill:#0067AB;}
	.st39{fill:#88911C;}
	.st40{fill:#7A7C14;}
	.st41{fill:#C3C638;}
	.st42{fill:#B53936;}
	.st43{fill:#D85958;}
	.st44{fill:#BABA31;}
	.st45{fill:#59590D;}
	.st46{fill:#FFFFFF;}
	.st47{fill:#F5EBC9;}
	.st48{fill:#423B3C;}
	.st49{fill:#CDC1BC;}
	.st50{fill:#B94739;}
	.st51{fill:#A8A8AA;}
	.st52{fill:#804729;}
	.st53{fill:#11438C;}
	.st54{fill:#935C40;}
	.st55{fill:#0D346D;}
	.st56{display:inline;fill:#0A2B54;}
	.st57{display:inline;fill-rule:evenodd;clip-rule:evenodd;fill:#00589F;}
	.st58{display:inline;fill:#A8A8AA;}
	.st59{display:inline;fill:#008DCF;}
	.st60{display:inline;fill:#12A8DB;}
	.st61{display:inline;fill:#0072B4;}
	.st62{display:inline;fill:#00589F;}
	.st63{display:inline;fill:#0D3268;}
	.st64{display:inline;fill:#103C82;}
	.st65{display:inline;fill:#11438C;}
	.st66{display:inline;fill:#935C40;}
	.st67{display:inline;fill:#68C4E9;}
	.st68{display:inline;fill:#0D346D;}
	.st69{display:inline;clip-path:url(#SVGID_6_);}
	.st70{display:inline;fill:#BABA31;}
	.st71{display:inline;fill:#3D3D3D;}
	.st72{display:inline;fill:#424242;}
	.st73{display:inline;fill:#CAD43D;}
	.st74{display:inline;fill:#2D2D2D;}
	.st75{display:inline;fill:#88911C;}
	.st76{fill:#3D3D3D;}
	.st77{fill:#4D4D4D;}
	.st78{fill:#DCDCDC;}
	.st79{fill:#69696F;}
	.st80{display:inline;opacity:0.11;fill:#FFFFFF;}
	.st81{display:inline;fill:#92A139;}
	.st82{display:inline;opacity:0.14;}
	.st83{display:inline;fill:#ECECEC;}
	.st84{display:inline;fill:#4F4F4F;}
	.st85{display:inline;fill:#595959;}
	.st86{display:inline;fill:#7A7C14;}
	.st87{display:inline;fill:#BFBF26;}
	.st88{display:inline;fill:#0067AB;}
	.st89{display:inline;opacity:0.81;fill:#0067AB;}
	.st90{display:inline;fill:#0284CC;}
	.st91{display:inline;opacity:0.49;fill:#07A3E8;}
	.st92{display:inline;opacity:0.12;fill:#FFFFFF;}
	.st93{display:inline;opacity:0.24;fill:#FFFFFF;}
	.st94{display:inline;fill:#C95934;}
	.st95{display:inline;opacity:0.1;fill:#39250B;}
	.st96{display:inline;opacity:0.11;}
	.st97{opacity:0.24;fill:#FFFFFF;}
	.st98{display:inline;fill:#DFE4E8;}
	.st99{display:inline;fill:#133D8D;}
	.st100{display:inline;fill:#0B2751;}
	.st101{display:inline;fill:#E58B70;}
	.st102{display:inline;opacity:8.000000e-02;fill:#0F293B;}
	.st103{display:inline;fill:#0F3572;}
	.st104{fill:#E58B70;}
	.st105{fill:#331B13;}
	.st106{fill:#ED9D7F;}
	.st107{opacity:0.38;}
	.st108{fill:#D8A389;}
	.st109{fill:#D8A288;}
	.st110{fill:#D7A187;}
	.st111{fill:#D7A087;}
	.st112{fill:#D79F86;}
	.st113{fill:#D69E85;}
	.st114{fill:#D69D84;}
	.st115{fill:#D69C83;}
	.st116{fill:#D69B83;}
	.st117{fill:#D59A82;}
	.st118{fill:#D59981;}
	.st119{fill:#D59880;}
	.st120{fill:#D4977F;}
	.st121{fill:#D4967E;}
	.st122{fill:#D4957E;}
	.st123{fill:#D3947D;}
	.st124{fill:#D3937C;}
	.st125{fill:#D3927B;}
	.st126{fill:#D2917A;}
	.st127{fill:#D2907A;}
	.st128{fill:#D28F79;}
	.st129{fill:#D18E78;}
	.st130{fill:#D18D77;}
	.st131{fill:#D18C76;}
	.st132{fill:#D18B76;}
	.st133{fill:#D08A75;}
	.st134{fill:#D08974;}
	.st135{fill:#D08873;}
	.st136{fill:#CF8772;}
	.st137{fill:#CF8671;}
	.st138{fill:#CF8571;}
	.st139{fill:#CE8470;}
	.st140{fill:#CE836F;}
	.st141{fill:#CE826E;}
	.st142{fill:#CD816D;}
	.st143{fill:#CD806D;}
	.st144{fill:#CD7F6C;}
	.st145{fill:#CC7E6B;}
	.st146{fill:#CC7E6A;}
	.st147{fill:#CC7D69;}
	.st148{fill:#CC7C69;}
	.st149{fill:#CB7B68;}
	.st150{fill:#CB7A67;}
	.st151{fill:#CB7966;}
	.st152{fill:#CA7865;}
	.st153{fill:#CA7765;}
	.st154{fill:#CA7664;}
	.st155{fill:#C97563;}
	.st156{fill:#C97462;}
	.st157{fill:#C97361;}
	.st158{fill:#C87260;}
	.st159{fill:#C87160;}
	.st160{fill:#C8705F;}
	.st161{fill:#C86F5E;}
	.st162{fill:#C76E5D;}
	.st163{fill:#C76D5C;}
	.st164{fill:#C76C5C;}
	.st165{fill:#C66B5B;}
	.st166{fill:#C66A5A;}
	.st167{fill:#C66959;}
	.st168{fill:#C56858;}
	.st169{fill:#C56758;}
	.st170{fill:#C56657;}
	.st171{fill:#C46556;}
	.st172{fill:#C46455;}
	.st173{fill:#C46354;}
	.st174{fill:#C36253;}
	.st175{fill:#C36153;}
	.st176{fill:#C36052;}
	.st177{fill:#C35F51;}
	.st178{fill:#C25E50;}
	.st179{fill:#C25D4F;}
	.st180{fill:#C25C4F;}
	.st181{fill:#C15B4E;}
	.st182{fill:#C15A4D;}
	.st183{opacity:0.54;fill:#E58B70;}
	.st184{fill:url(#XMLID_2_);}
	.st185{fill:url(#XMLID_3_);}
	.st186{fill:#3F2F27;}
	.st187{fill:#643630;}
	.st188{opacity:0.35;fill:#C0BAA6;}
	.st189{opacity:0.2;fill:#FFFFFF;}
	.st190{fill:#4B382F;}
	.st191{opacity:0.12;fill:#FFFFFF;}
	.st192{opacity:0.11;fill:#D69345;}
	.st193{opacity:0.16;}
	.st194{opacity:0.69;fill:#FFFFFF;}
	.st195{display:inline;fill:#ED9D7F;}
	.st196{display:inline;opacity:0.66;fill:#E58B70;}
	.st197{display:inline;clip-path:url(#SVGID_8_);}
	.st198{fill:url(#XMLID_4_);}
	.st199{fill:url(#XMLID_5_);}
	.st200{display:inline;clip-path:url(#SVGID_10_);}
</style>
<g>
	<polygon class="st5" points="184.2,651 3.5,548.7 303.3,366.7 627.7,217.9 638.2,772.2 	"/>
	<g>
		<g>
			<g>
				<g>
					<g>
						<polygon class="st6" points="625.1,779 270.1,574.1 270.1,207.5 625.1,412.4 						"/>
						<polygon class="st7" points="270.1,207.5 270.1,574.1 625.1,779 280.4,568.2 						"/>
						<polygon class="st8" points="419.2,661.4 419.2,293.6 475.6,326.2 475.6,697.1 						"/>
						<polygon class="st9" points="625.1,412.4 270.1,207.5 625.1,2.6 980,207.5 						"/>
						<polygon class="st10" points="958.9,206.1 625.1,401.2 270.1,207.5 625.1,412.4 980,207.5 625.1,2.6 						"/>
						<polygon class="st8" points="428.6,117.2 840.2,353.6 902.6,318.2 430.2,115.6 						"/>
						<polygon class="st6" points="486.6,83.1 633.8,165.3 575.4,199 430.2,115.6 						"/>
						<polygon class="st6" points="904.2,316.6 841.8,352 634.3,232.8 694.4,199.3 						"/>
						<polygon class="st8" points="470.8,323.9 837.7,119.4 836.8,124.9 475.6,326.2 						"/>
						<polygon class="st6" points="694.4,199.3 634.3,232.8 575.4,199 633.8,165.3 						"/>
						<polygon class="st6" points="575.4,199 634.3,232.8 470.8,324 414.4,291.3 						"/>
						<path class="st11" d="M545.7,183.9c0,0-68.6-6.7-66,28.7c2.6,35.4,75,33.3,75,33.3l23.5,0c0,0-31.8,55.4,39,55.4
							s79-30.6,67.2-46.1s-16.3-41.5-16.3-41.5s44,12.2,78.4,9.9c34.4-2.3,85.9-6.3,83.5-22.3c-2.4-15.9,14.1-49.2-34.5-36.7
							c-48.5,12.6-130.2,4.4-130.2,4.4L621,113.3l-23-0.3l-9,39.7L545.7,183.9z"/>
						<path class="st12" d="M663.3,73.3c0,63.6-21.2,108.6-21.2,108.6l-39.9-6.6l1.7-9.9c0,0-28.8-91.8-8.2-111.3
							c2.4-2.2,5.4-3.4,9.3-3.5C639.2,50.2,663.3,49,663.3,73.3z"/>
						<path class="st8" d="M605.9,78.1c0,0,5.1,46.5,3.9,56.4c-1.2,9.9,0.2,22,0.2,22l42.6-7.8c0,0,8-32.2,8.5-52.2
							c0.5-20.1,0.5-20.1,0.5-20.1l-5.3,35.6c-0.5,3.5-5,4.6-7,1.7c-2.5-3.5-6.2-6.5-11.4-6.6c-5.6-0.1-11.1,2.5-15.6,5.5
							c-4.7,3.2-11.1,0.5-11.9-5.2C609.1,97.6,607.3,84.9,605.9,78.1z"/>
						<path class="st13" d="M606.6,175.3h-4.4l1.7-9.9c0,0-28.8-91.8-8.2-111.3c3.1,2.5,5.3,6.5,6.2,12.6
							C609.3,114.9,608,155.2,606.6,175.3z"/>
						<path class="st8" d="M593.2,60.3c0,0-7.7,3.3,0,50s14.1,60.5,14.1,60.5S604,39.6,593.2,60.3z"/>
						<polygon class="st6" points="837.8,119.4 694.4,199.3 633.8,165.3 775.4,84.1 						"/>
						<polygon class="st14" points="414.5,659.1 414.5,291.4 470.8,323.9 470.8,694.9 						"/>
						<polygon class="st15" points="625.1,779 980,574.1 980,207.5 625.1,412.4 						"/>
						<polygon class="st7" points="625.1,779 980,574.1 980,567.7 625.1,772.6 						"/>
						<polygon class="st8" points="844.3,652.3 844.3,285.8 783.5,320.9 783.5,687.4 						"/>
						<polygon class="st12" points="846.6,653.6 846.6,284.4 785.8,319.5 785.8,688.7 						"/>
					</g>
				</g>
				<polygon class="st16" points="798.2,257.3 838.9,284.4 781.7,317.4 785.8,319.5 846.6,284.4 				"/>
			</g>
			<polygon class="st10" points="625.1,412.4 625.1,779 636.7,405.7 			"/>
			<polygon class="st10" points="966.9,215.1 980,567.7 980,207.5 			"/>
		</g>
		<path class="st8" d="M642.7,178.2c0,0,50.3,12.7,95.7-0.4c45.5-13.1,86.6-40.2,86.6-40.2l12.4,37c0,0-53.5,59.6-196.3,30.2
			L642.7,178.2z"/>
		<path class="st12" d="M642.7,178.2c0,0,105.8-96.8,150.7-81.2c44.9,15.6,45,73.1,44.1,77.6c0,0-25.2-53.7-108.2-3.4
			c-37.2,22.6-88.1,33.6-88.1,33.6L642.7,178.2z"/>
		<path class="st8" d="M753.9,104.3c0,0-35.6,17.5-57.1,33.4c-21.5,15.9-30.3,25.8-48.8,33c-18.6,7.2-11.9,24.2-11.9,24.2l6.7,4.2
			c0,0,22.2-0.8,64.6-24c42.4-23.2,61.9-33.6,61.9-33.6s-37.3,12.3-57.1,23.7c-4.8,2.8-14.7,9.9-20.1,7.6c-1.3-0.5-2.7-1.2-2.9-2.6
			c-0.1-0.8,0.3-1.7,0.7-2.4c0.6-1.2,1.1-2.4,1.4-3.7c0.3-1.1,0.6-2.3,0.2-3.4c-0.3-1.1-1.4-2-2.6-1.8c2.3-6.9-8.1-1.6-2.6-6.2
			c5.1-4.2,13.9-11.3,19.4-14.9C718.4,129.3,739.9,110.2,753.9,104.3z"/>
		<path class="st8" d="M635.7,178.2c0,0-50.3,12.7-95.8-0.4c-45.5-13.1-86.6-40.2-86.6-40.2l-12.4,37c0,0,57.5,59.6,200.4,30.2
			L635.7,178.2z"/>
		<path class="st12" d="M641.2,204.9c0,0-55-11-92.2-33.6c-56.6-34.4-86.4-20.3-99.5-7.9c-6.2,5.8-8.7,11.2-8.7,11.2
			c-0.7-3.4-0.7-37.3,18.6-60.2c6.3-7.4,14.6-13.7,25.5-17.5c44.9-15.6,150.7,81.2,150.7,81.2L641.2,204.9z"/>
		<path class="st8" d="M548.2,115.6c0,0,48,30,55.4,40.5c7.4,10.5-5.6,34.1-5.6,34.1s-25.7-10-30.9-12.3c-5.1-2.3-35.1-21-35.1-21
			s45.1,19.8,48.2,19.4c3.1-0.4,7.3-18.4,7.3-18.4l0.8-9.5L548.2,115.6z"/>
		<path class="st12" d="M646,156.5c0,0,8.3-26.9-14.7-26.3c-23,0.6-28.9,0-28.5,16.8c0.4,16.8,19.1,35.8,19.1,35.8L646,156.5z"/>
		<path class="st17" d="M632.4,143.7c0,0,18-21.5,30-2.2c11.9,19.3,15.6,23.9,1.3,32.8c-14.3,8.9-40.3,3.7-40.3,3.7L632.4,143.7z"/>
		<path class="st17" d="M614.3,147.9c0,0-18-21.5-30-2.2c-11.9,19.3-15.6,23.9-1.3,32.8c14.3,8.9,40.3,3.7,40.3,3.7L614.3,147.9z"/>
		<path class="st17" d="M652.6,165.3c7.9,4.9,9.5,30.3-22.5,29.7c-32-0.6-44.1-0.6-39.7-16.8c5.9-22.1,36.7-12.9,36.7-12.9
			S647.7,162.3,652.6,165.3z"/>
		<path class="st18" d="M604.1,179.5c0,0-12.1-3.8-24.8,24.2c-20.5,45.4-4.4,81,7.2,84.7c20.9,6.6,68.7,9.7,75.6-14.9
			c6.8-24.6-15.8-94-15.8-94l-17.6,2.3L604.1,179.5z"/>
		<path class="st7" d="M604.1,179.5c0,0-12.1-3.8-24.8,24.2c-20.5,45.4-4.4,81,7.2,84.7c20.9,6.6,68.7,9.7,75.6-14.9
			c6.8-24.6-15.8-94-15.8-94l-17.6,2.3L604.1,179.5z"/>
		<path class="st8" d="M646.3,179.5l-2.4,0.8c4.5,15.3,17.3,59,12.4,76.9c-6,21.6-47.9,18.9-66.2,13.1c-18.3-5.8-26.3-29.9-6.3-74.1
			c0.6-1.3,1.2-2.6,1.8-3.8c-2.1,3.2-4.2,6.9-6.2,11.4c-20.5,45.4-4.4,81,7.2,84.7c20.9,6.6,68.7,9.7,75.6-14.9
			C668.9,248.9,646.3,179.5,646.3,179.5z"/>
		<path class="st12" d="M586.5,246c-7.5-2.4-9.1-8.3-12.6-16.2c-9,33.5-4.2,53.3,12.6,58.6c20.9,6.6,68.7,9.7,75.6-14.9
			c2.4-8.7,1.1-23.4-1.5-38.7C650.1,255.4,606.2,252.3,586.5,246z"/>
		<path class="st8" d="M662.9,252.5c-0.2,1.6-0.5,3.1-0.8,4.4c-6.8,24.6-54.7,21.5-75.6,14.9c-10.5-3.3-13.6-12.7-15.6-26.8
			c-2.8,24.1,1.6,38.9,15.6,43.4c20.9,6.6,68.7,9.7,75.6-14.9C663.5,268.3,663.6,260.9,662.9,252.5z"/>
		<path class="st6" d="M828.9,161.7c0,0-8.5-13-28-14.9c0.1-5.1,0.1-10.7-0.2-14.1c-0.5-5.4,1.6-19.5-3.2-31.9
			c3.5,1.4,7.2,3.4,10.6,6.4c15.3,13.2,20.1,21.6,20.8,28.9C829.6,143.4,828.9,161.7,828.9,161.7z"/>
	</g>
	<path class="st8" d="M465.9,110.2c0,0,9.4-12.5,29.2-13.7c14.2-0.9,29.3,8.2,29.3,8.2s-12.5,7-13.9,9.7c-1.4,2.8,1,12,1,12
		s-0.7,14.4-2.1,14.5c-1.4,0.2,14,13.5,14,13.5s-23.7-12.6-42-8.8c-12.2,2.5-22.9,7.5-22.9,7.5s6.2-17.1,7.4-24.6
		C467.1,121,465.9,110.2,465.9,110.2z"/>
	<path class="st12" d="M459.5,114.5c-1.8,7.1-4.1,17.3-4,24.6c0.1,9.1-4.4,18-5.9,24.4c-6.2,5.8-8.7,11.2-8.7,11.2
		C440.2,171.3,440.1,137.5,459.5,114.5z"/>
	<g>
		<polygon class="st6" points="604.2,736.8 503.1,678.3 503.1,593.9 602.3,646.9 604.2,652.3 		"/>
		<polygon class="st19" points="600.2,648.5 499.1,590.1 501.2,588.5 602.3,646.9 		"/>
		<polygon class="st20" points="600.2,733 600.2,648.5 602.3,646.9 602.3,731.4 		"/>
		<polygon class="st21" points="600.2,733 499.1,674.6 499.1,590.1 600.2,648.5 		"/>
		<g>
			<path class="st22" d="M527.6,638.8c0-0.4,0.2-0.6,0.5-0.4l4.7,3.1c1.5,1,3,2.9,3,5.4c0,0.9-0.2,1.4-0.8,1.7
				c0.8,1.1,1.1,2.4,1.1,3.5c0,2.4-1.5,2.6-3.1,1.6l-5-3.3c-0.3-0.2-0.5-0.7-0.5-1.1V638.8z M529.8,641.7v2.4l3.1,2
				c0.5,0.3,0.8,0.1,0.8-0.7c0-0.8-0.3-1.4-0.8-1.7L529.8,641.7z M529.8,646.3v2.9l3.3,2.2c0.6,0.4,0.9,0,0.9-0.8
				c0-0.9-0.3-1.6-0.9-2L529.8,646.3z"/>
			<path class="st22" d="M546.5,662.3c-0.3-0.2-0.5-0.7-0.5-1.1v-10.4c0-0.4,0.2-0.6,0.5-0.4l1.7,1.1c0.3,0.2,0.6,0.8,0.8,1.3
				l3.5,10.1V655c0-0.4,0.2-0.6,0.5-0.4l1,0.7c0.3,0.2,0.5,0.7,0.5,1.1v10.4c0,0.4-0.2,0.6-0.5,0.4l-1.9-1.3
				c-0.3-0.2-0.7-0.8-0.8-1.3l-3.2-9.3v7.2c0,0.4-0.3,0.6-0.5,0.4L546.5,662.3z"/>
			<path class="st22" d="M559.4,658.7l1.3,0.8c1.6,1.1,3.3,3.4,3.3,5.9c0,0.8-0.4,0.6-0.6,0.5l-0.7-0.5c-0.3-0.2-0.6-0.6-0.8-1.5
				c-0.3-1-0.7-1.8-1.4-2.2l-1-0.7c-1.7-1.1-2.2-0.5-2.2,2.3c0,2.8,0.5,4,2.2,5.1l1.2,0.8c0.7,0.5,1.2,0.2,1.4-0.4
				c0.2-0.6,0.5-0.6,0.8-0.4l0.7,0.5c0.2,0.1,0.6,0.5,0.6,1.3c0,2.4-1.7,2.5-3.3,1.5l-1.4-0.9c-2.8-1.9-4.3-4.7-4.3-8.9
				C555.1,657.8,556.6,656.8,559.4,658.7"/>
			<path class="st22" d="M568.8,664.9c2.9,1.9,4.5,4.7,4.5,8.9c0,4.3-1.6,4.9-4.5,3.1c-2.9-1.9-4.5-4.7-4.5-8.9
				C564.3,663.7,566,663,568.8,664.9 M566.5,669.3c0,2.5,0.7,4.3,2.4,5.4c1.7,1.1,2.4,0.2,2.4-2.3c0-2.5-0.7-4.3-2.4-5.4
				C567.1,665.9,566.5,666.8,566.5,669.3"/>
			<path class="st22" d="M528.1,664.6c-0.3-0.2-0.5-0.7-0.5-1.1V653c0-0.4,0.2-0.6,0.5-0.4l1.7,1.1c0.3,0.2,0.6,0.8,0.8,1.3
				l3.5,10.1v-7.8c0-0.4,0.3-0.6,0.5-0.4l1,0.7c0.3,0.2,0.5,0.7,0.5,1.1v10.4c0,0.4-0.2,0.6-0.5,0.4l-1.9-1.3
				c-0.3-0.2-0.7-0.8-0.8-1.3l-3.2-9.3v7.2c0,0.4-0.3,0.6-0.5,0.4L528.1,664.6z"/>
			<path class="st22" d="M550.2,666.9l1.3,0.8c1.6,1,3.3,3.4,3.3,5.8c0,0.8-0.4,0.6-0.6,0.5l-0.7-0.4c-0.3-0.2-0.6-0.6-0.8-1.5
				c-0.3-1-0.7-1.8-1.4-2.2l-1-0.7c-1.7-1.1-2.2-0.5-2.2,2.2c0,2.8,0.5,4,2.2,5.1l1.1,0.7c0.7,0.5,1.2,0.2,1.4-0.4
				c0.2-0.5,0.5-0.6,0.8-0.4l0.7,0.4c0.2,0.1,0.6,0.5,0.6,1.3c0,2.4-1.7,2.5-3.3,1.5l-1.4-0.9c-2.8-1.8-4.3-4.7-4.3-8.8
				C546,666,547.4,665.1,550.2,666.9"/>
			<path class="st22" d="M555.5,671.2c0-0.4,0.3-0.6,0.5-0.4l1.1,0.7c0.3,0.2,0.6,0.7,0.6,1.2v10.4c0,0.4-0.3,0.6-0.6,0.4l-1.1-0.7
				c-0.3-0.2-0.5-0.7-0.5-1.1V671.2z"/>
			<path class="st22" d="M562.7,675c2.9,1.9,4.5,4.7,4.5,9c0,4.3-1.6,5-4.5,3.1c-2.9-1.9-4.5-4.7-4.5-9
				C558.1,673.8,559.8,673.1,562.7,675 M560.3,679.5c0,2.5,0.7,4.3,2.4,5.4c1.7,1.1,2.4,0.2,2.4-2.3c0-2.5-0.7-4.3-2.4-5.4
				C560.9,676.1,560.3,677,560.3,679.5"/>
			<path class="st22" d="M568.5,690.9c-0.3-0.2-0.5-0.7-0.5-1.1v-10.4c0-0.4,0.2-0.6,0.5-0.4l1.7,1.1c0.3,0.2,0.6,0.8,0.8,1.3
				l3.5,10.1v-7.8c0-0.4,0.3-0.6,0.5-0.4l1,0.7c0.3,0.2,0.5,0.7,0.5,1.1v10.4c0,0.4-0.2,0.6-0.5,0.4l-1.9-1.3
				c-0.3-0.2-0.7-0.8-0.8-1.3l-3.2-9.3v7.2c0,0.4-0.3,0.6-0.5,0.4L568.5,690.9z"/>
			<path class="st22" d="M588.5,692c0.3,0.2,0.5,0.7,0.5,1.2v8.8l5.1,3.3c0.3,0.2,0.5,0.7,0.5,1.1v0.8c0,0.4-0.3,0.6-0.5,0.4
				l-6.7-4.4c-0.3-0.2-0.5-0.7-0.5-1.1v-10.4c0-0.4,0.2-0.6,0.5-0.4L588.5,692z"/>
			<path class="st22" d="M545.7,661l-1.3-8.9c-0.4-2.9-1.9-4.5-3.4-5.5l0,0l0,0l0,0l0,0c-1.5-1-3-1.4-3.5,1l-1.3,7.2
				c-0.1,0.4,0.1,0.8,0.4,1l1,0.7c0.3,0.2,0.5,0,0.6-0.4l0.3-1.9l1.8,1.2l0.3,0.2l2.8,1.8l0.3,2.3c0.1,0.5,0.3,1,0.6,1.2l1,0.7
				C545.6,661.7,545.7,661.5,545.7,661 M541.1,653.4l-0.2-0.1l-2.1-1.4l0.5-2.3c0.2-0.9,0.8-1.1,1.5-0.7v0c0,0,0,0,0,0c0,0,0,0,0,0
				l0,0c0.7,0.5,1.3,1.5,1.5,2.6l0.5,3L541.1,653.4z"/>
			<path class="st22" d="M546,675.4l-1.3-8.7c-0.4-2.9-1.9-4.5-3.4-5.4v0c0,0,0,0,0,0c0,0,0,0,0,0v0c-1.5-1-3-1.3-3.4,1l-1.3,7.1
				c-0.1,0.4,0.1,0.8,0.4,1l1,0.7c0.3,0.2,0.5,0,0.6-0.4l0.3-1.9l1.7,1.1l0.3,0.2l2.7,1.8l0.3,2.3c0.1,0.5,0.3,1,0.6,1.2l1,0.7
				C545.9,676.1,546.1,675.9,546,675.4 M541.5,667.9l-0.2-0.1l-2.1-1.4l0.5-2.3c0.2-0.9,0.8-1.1,1.5-0.7v0c0,0,0,0,0,0c0,0,0,0,0,0
				v0c0.7,0.5,1.3,1.5,1.5,2.6l0.5,3L541.5,667.9z"/>
			<path class="st22" d="M586.4,701.8l-1.3-8.7c-0.4-2.9-1.9-4.5-3.4-5.4v0c0,0,0,0,0,0s0,0,0,0v0c-1.5-1-3-1.3-3.4,1l-1.3,7.1
				c-0.1,0.4,0.1,0.8,0.4,1l1,0.7c0.3,0.2,0.5,0,0.6-0.4l0.3-1.9l1.7,1.1l0.3,0.2l2.7,1.8l0.3,2.3c0.1,0.5,0.3,1,0.6,1.2l1,0.7
				C586.3,702.5,586.5,702.2,586.4,701.8 M581.9,694.2l-0.2-0.1l-2.1-1.4l0.5-2.3c0.2-0.9,0.8-1.1,1.5-0.7v0c0,0,0,0,0,0
				c0,0,0,0,0,0l0,0c0.7,0.5,1.3,1.5,1.5,2.6l0.5,3L581.9,694.2z"/>
			<path class="st23" d="M519.9,620.7c-0.1,0-0.1-0.1-0.2-0.1l-5.6-0.7l0,0c-0.2,0-0.3,0.1-0.3,0.3c0,0.2-3.9,16.1-6.7,20.7
				c-0.1,0.1-0.1,0.2-0.1,0.3c0,0.2,0.1,0.5,0.2,0.7l0,0l1.8,3v0c0.1,0.1,0.2,0.2,0.2,0.3c0.2,0.1,0.4,0,0.4-0.3l0,0l5.8-22.5
				c0.1-0.3,0.2-0.4,0.4-0.3l1.7,0.3c0.2,0.2,0.4,0.6,0.4,0.9c0,0-0.8,5.9-1.7,14.8c-0.9,8.9-2.9,13.9-2.9,13.9l0,0
				c0,0.1-0.1,0.2-0.1,0.3c0,0.2,0.1,0.5,0.2,0.6l0,0l3.6,6.3l0,0c0.1,0.1,0.2,0.2,0.3,0.3c0.2,0.2,0.4,0,0.4-0.3l2.5-37.6
				c0,0,0-0.1,0-0.1C520.3,621.3,520.1,620.9,519.9,620.7"/>
			<path class="st23" d="M525.5,672.4L525.5,672.4c0,0-1.5-9-1.3-16.5l0-21.4l0-0.1c0,0-0.6-3.8-0.7-4.5c0-0.3-0.2-0.7-0.4-0.9
				c0,0,0,0,0,0l0,0l-0.5-0.2c0,0,0,0,0,0c-0.2-0.2-0.4,0-0.4,0.3l-1.4,36c0,0,0,0.1,0,0.2c0,0.2,0.1,0.5,0.2,0.7l0,0l3.9,6.6
				c0.1,0.2,0.2,0.3,0.3,0.4c0.2,0.2,0.4,0,0.4-0.3C525.5,672.6,525.5,672.5,525.5,672.4"/>
		</g>
	</g>
</g>
</svg>
