<?xml version="1.0" encoding="utf-8"?>
<!-- Generator: Adobe Illustrator 24.0.2, SVG Export Plug-In . SVG Version: 6.00 Build 0)  -->
<svg version="1.1" id="Layer_1" xmlns="http://www.w3.org/2000/svg" xmlns:xlink="http://www.w3.org/1999/xlink" x="0px" y="0px"
	 viewBox="0 0 1235 919" style="enable-background:new 0 0 1235 919;" xml:space="preserve">
<style type="text/css">
	.st0{fill:#0A2B54;}
	.st1{fill-rule:evenodd;clip-rule:evenodd;fill:#00589F;}
	.st2{opacity:0.4;}
	.st3{fill:#2D2C36;}
	.st4{fill:#393842;}
	.st5{fill:#504F57;}
	.st6{fill:#B9B9BD;}
	.st7{fill:#5F5E66;}
	.st8{fill:#6E6D74;}
	.st9{fill:#86858B;}
	.st10{fill:#A3A2A7;}
	.st11{fill:#BF413F;}
	.st12{fill:#CAD43D;}
	.st13{fill:#92A139;}
	.st14{fill:#0067AB;}
	.st15{fill:#88911C;}
	.st16{fill:#7A7C14;}
	.st17{fill:#C3C638;}
	.st18{fill:#00589F;}
	.st19{fill:#B53936;}
	.st20{fill:#BABA31;}
	.st21{fill:#59590D;}
	.st22{fill:#FFFFFF;}
	.st23{fill:#F5EBC9;}
	.st24{fill:#423B3C;}
	.st25{fill:#CDC1BC;}
	.st26{fill:#A8A8AA;}
	.st27{fill:#008DCF;}
	.st28{fill:#12A8DB;}
	.st29{fill:#0072B4;}
	.st30{fill:#0D3268;}
	.st31{fill:#103C82;}
	.st32{fill:#804729;}
	.st33{fill:#11438C;}
	.st34{fill:#935C40;}
	.st35{fill:#68C4E9;}
	.st36{fill:#0D346D;}
	.st37{fill:#FDFDFD;}
	.st38{fill:#8A8A8A;}
	.st39{fill:#D5D5D5;}
	.st40{fill:#001C6D;}
	.st41{fill:#B9BD41;}
</style>
<g>
	<polygon class="st0" points="580.2,343.5 906.1,531.9 580.2,725.7 580.2,369.5 557.7,356.5 	"/>
	<polygon class="st1" points="577.8,725.6 903.9,531.8 1235.3,722.9 904,914 	"/>
	<g>
		<path class="st2" d="M888.8,802L609.2,640.5c-9.6-5.5-13-17.7-7.7-27.4l0,0c12.3-22.5,34.1-38.2,59.3-42.9l52.6-9.7l319.1,184.2
			c7.7,4.4,8.8,15.1,2.1,20.9l0,0c-19.9,17.7-42.7,31.8-67.5,41.8l0,0C941.6,817.8,912.7,815.8,888.8,802z"/>
		<path class="st3" d="M648.4,634.1c0,0,14.1-11.1,18-11.3s51.9,36.4,51.9,36.4l143.2,101.3l16.2-11l51.2,32.5l-7.1-81.6
			L646.1,575.2C646.1,575.2,637.5,617.2,648.4,634.1z"/>
		<g>
			<g>
				<path class="st3" d="M923.3,773.2c0-14.9-10.5-32.9-23.4-40.4c-6.5-3.7-12.3-4.1-16.5-1.7l0,0l0,0c0,0-0.1,0-0.1,0.1l-11.4,6.6
					v11.5l33.2,45.6l10.5-6.1c0.7-0.3,1.3-0.7,1.9-1.1l0,0l0,0C921.1,784.9,923.3,780,923.3,773.2z"/>
				
					<ellipse transform="matrix(0.8633 -0.5047 0.5047 0.8633 -265.0966 553.295)" class="st3" cx="888.8" cy="766" rx="19.1" ry="33"/>
				<g>
					<path class="st4" d="M912.3,779.5c0,14.9-10.5,20.8-23.4,13.4c-12.9-7.5-23.4-25.6-23.4-40.4c0-14.9,10.5-20.8,23.4-13.4
						C901.8,746.6,912.3,764.7,912.3,779.5z"/>
					<g>
						<path class="st3" d="M910.8,779.3c0,14.3-10.1,20-22.5,12.9c-12.4-7.2-22.5-24.6-22.5-38.9c0-14.3,10.1-20,22.5-12.9
							C900.7,747.6,910.8,765,910.8,779.3z"/>
						<path class="st5" d="M906.8,776.4c0,11.4-8,15.9-17.9,10.2S871,767,871,755.7c0-11.4,8-15.9,17.9-10.2S906.8,765,906.8,776.4z
							"/>
						
							<ellipse transform="matrix(0.8633 -0.5047 0.5047 0.8633 -264.732 553.4115)" class="st6" cx="889.2" cy="765.4" rx="14" ry="24.3"/>
						<path class="st7" d="M905.2,774.7c0,3-0.6,5.4-1.7,7.2c-2.6,4.5-8.1,5.5-14.4,1.9c-8.9-5.1-16.1-17.5-16.1-27.7
							c0-9.6,6.4-13.8,14.5-10c0.5,0.2,1,0.5,1.6,0.8c2.1,1.2,4.1,2.9,6,4.8c2.5,2.6,4.6,5.6,6.3,8.9c1.3,2.6,2.4,5.3,3,8
							c0.4,1.8,0.7,3.5,0.7,5.2C905.2,774.1,905.2,774.4,905.2,774.7z"/>
						<path class="st8" d="M898,778.8c-8.9-5.1-16.1-17.5-16.1-27.7c0-2.5,0.4-4.6,1.2-6.3c-5.8-0.6-10,3.6-10,11.3
							c0,10.2,7.2,22.6,16.1,27.7c6.7,3.9,12.5,2.5,14.9-2.9C902.2,780.7,900.1,780,898,778.8z"/>
						<path class="st9" d="M905.2,774.7c0,3-0.6,5.4-1.7,7.2c-0.5,0.3-1.1,0.6-1.5,0.7l-8-13.6l1.9,12.8c-0.4,0.2-1.3,1.4-4.4,2.4
							l-1.4-3.3c-0.8-0.4,2-1.2,1.2-1.7l-1.9-12.8l-8.7-1c-0.4-0.9-0.7-1.8-1-2.6l-5.3-0.8c0.9-0.7,3-2,4.4-2.4l7.5,0.9l-8.4-8.3
							c0.2-0.7-1.5-1.2-1.2-1.8l-0.4-2.1c0.3-0.5,4-2.2,4.6-2.2l8.5,12.1l-2.5-11.5l0.7-0.4c0.5,0.2,1,0.5,1.6,0.8
							c2.1,1.2,4.1,2.9,6,4.8l-1.2,9l7.5-0.1c1.3,2.6,2.4,5.3,3,8l-0.5,0.3l-6.9-2.2l8.2,7.2C905.2,774.1,905.2,774.4,905.2,774.7z"
							/>
					</g>
				</g>
			</g>
			<g>
				<path class="st10" d="M897.7,767.3l6.3,1.6c-0.2-0.9-0.5-1.9-0.8-2.8l-0.1-0.4c-0.3-0.9-0.6-1.8-1-2.6l-7.5-1.6l-3.1-12.2
					c-0.7-0.5-1.5-1-2.2-1.5l0,0c-0.8-0.5-1.6-0.8-2.3-1.1l3.1,12.2l-13.7-10.6c-0.4,0.4-0.7,0.9-1,1.5l-0.1,0.2
					c-0.3,0.6-0.6,1.2-0.8,1.9l12.5,9.3l-12.5,0.8c0.2,0.9,0.5,1.9,0.8,2.8l0.1,0.4c0.3,0.9,0.6,1.8,1,2.6L890,767l-3.1,14.6
					c0.7,0.5,1.5,1,2.2,1.5l0,0c0.8,0.5,1.6,0.8,2.3,1.1l3.1-14.6l7.4,13c0.4-0.4,0.7-0.9,1-1.5l0.1-0.2c0.3-0.6,0.6-1.2,0.8-1.9
					L897.7,767.3z"/>
				<path class="st9" d="M898.7,767.9c0,4.1-2.9,5.7-6.4,3.7s-6.4-7-6.4-11.1s2.9-5.7,6.4-3.7C895.8,758.9,898.7,763.8,898.7,767.9z
					"/>
				<path class="st10" d="M896.7,767.5c0,3.3-2.4,4.7-5.3,3s-5.3-5.8-5.3-9.1s2.4-4.7,5.3-3C894.3,760.1,896.7,764.2,896.7,767.5z"
					/>
				<g>
					<path class="st7" d="M893,769.1c-0.5,0-1.1-0.2-1.6-0.5c-2-1.1-3.6-3.9-3.6-6.2c0-1.1,0.4-2,1.1-2.4c0.7-0.4,1.6-0.3,2.6,0.2
						c2,1.1,3.6,3.9,3.6,6.2c0,1.1-0.4,2-1.1,2.4C893.7,769,893.3,769.1,893,769.1z M889.8,760.1c-0.3,0-0.6,0.1-0.8,0.2
						c-0.6,0.4-0.9,1.1-0.9,2.1c0,2.2,1.5,4.8,3.4,5.9c0.9,0.5,1.7,0.6,2.3,0.2c0.6-0.4,0.9-1.1,0.9-2.1c0-2.2-1.5-4.8-3.4-5.9
						C890.8,760.3,890.3,760.1,889.8,760.1z"/>
				</g>
			</g>
		</g>
		<g>
			<g>
				<path class="st3" d="M710.7,648.9c0-14.9-10.5-32.9-23.4-40.4c-6.5-3.7-12.3-4.1-16.5-1.7l0,0l0,0c0,0-0.1,0-0.1,0.1l-11.4,6.6
					V625l33.2,45.6l10.5-6.1c0.7-0.3,1.3-0.7,1.9-1.1l0,0l0,0C708.5,660.7,710.7,655.8,710.7,648.9z"/>
				
					<ellipse transform="matrix(0.8633 -0.5047 0.5047 0.8633 -231.4402 429.0633)" class="st3" cx="676.3" cy="641.8" rx="19.1" ry="33"/>
				<g>
					
						<ellipse transform="matrix(0.8633 -0.5047 0.5047 0.8633 -231.4425 429.0634)" class="st4" cx="676.3" cy="641.8" rx="19.1" ry="33"/>
					<g>
						<path class="st3" d="M698.2,655c0,14.3-10.1,20-22.5,12.9c-12.4-7.2-22.5-24.6-22.5-38.9c0-14.3,10.1-20,22.5-12.9
							C688.1,623.3,698.2,640.8,698.2,655z"/>
						
							<ellipse transform="matrix(0.8633 -0.5047 0.5047 0.8633 -231.4437 429.0634)" class="st5" cx="676.3" cy="641.8" rx="14.6" ry="25.3"/>
						<path class="st6" d="M693.8,651.1c0,10.9-7.7,15.3-17.2,9.8s-17.2-18.8-17.2-29.7s7.7-15.3,17.2-9.8
							C686.1,626.9,693.8,640.2,693.8,651.1z"/>
						<path class="st7" d="M692.7,650.4c0,3-0.6,5.4-1.7,7.2c-2.6,4.5-8.1,5.5-14.4,1.9c-8.9-5.1-16.1-17.5-16.1-27.7
							c0-9.6,6.4-13.8,14.5-10c0.5,0.2,1,0.5,1.6,0.8c2.1,1.2,4.1,2.9,6,4.8c2.5,2.6,4.6,5.6,6.3,8.9c1.3,2.6,2.4,5.3,3,8
							c0.4,1.8,0.7,3.5,0.7,5.2C692.7,649.9,692.7,650.1,692.7,650.4z"/>
						<path class="st8" d="M685.4,654.6c-8.9-5.1-16.1-17.5-16.1-27.7c0-2.5,0.4-4.6,1.2-6.3c-5.8-0.6-10,3.6-10,11.3
							c0,10.2,7.2,22.6,16.1,27.7c6.7,3.9,12.5,2.5,14.9-2.9C689.6,656.5,687.5,655.8,685.4,654.6z"/>
						<path class="st9" d="M692.7,650.4c0,3-0.6,5.4-1.7,7.2c-0.5,0.3-1.1,0.6-1.5,0.7l-8.1-13.7l1.9,12.8c-0.4,0.2-1.3,1.4-4.4,2.4
							l-1.4-3.3c-0.8-0.4,2-1.2,1.2-1.7l-1.9-12.8l-8.7-1c-0.4-0.9-0.7-1.8-1-2.6l-5.3-0.8c0.9-0.7,3-2,4.4-2.4l7.5,0.9l-8.4-8.3
							c0.2-0.7-1.5-1.2-1.2-1.8l-0.4-2.1c0.3-0.5,4-2.2,4.6-2.2l8.5,12.1l-2.5-11.5l0.7-0.4c0.5,0.2,1,0.5,1.6,0.8
							c2.1,1.2,4.1,2.9,6,4.8l-1.2,9l7.5-0.1c1.3,2.6,2.4,5.3,3,8l-0.5,0.3l-6.9-2.2l8.2,7.2C692.7,649.9,692.7,650.1,692.7,650.4z"
							/>
					</g>
				</g>
			</g>
			<g>
				<path class="st10" d="M685.1,643.1l6.3,1.6c-0.2-0.9-0.5-1.9-0.8-2.8l-0.1-0.4c-0.3-0.9-0.6-1.8-1-2.6l-7.5-1.6l-3.1-12.2
					c-0.7-0.5-1.5-1-2.2-1.5l0,0c-0.8-0.5-1.6-0.8-2.3-1.1l3.1,12.2l-13.7-10.6c-0.4,0.4-0.7,0.9-1,1.5l-0.1,0.2
					c-0.3,0.6-0.6,1.2-0.8,1.9l12.5,9.3l-12.5,0.8c0.2,0.9,0.5,1.9,0.8,2.8l0.1,0.4c0.3,0.9,0.6,1.8,1,2.6l13.7-0.8l-3.1,14.6
					c0.7,0.5,1.5,1,2.2,1.5l0,0c0.8,0.5,1.6,0.8,2.3,1.1l3.1-14.6l7.4,13c0.4-0.4,0.7-0.9,1-1.5l0.1-0.2c0.3-0.6,0.6-1.2,0.8-1.9
					L685.1,643.1z"/>
				<path class="st9" d="M686.1,643.7c0,4.1-2.9,5.7-6.4,3.7s-6.4-7-6.4-11.1s2.9-5.7,6.4-3.7C683.3,634.6,686.1,639.6,686.1,643.7z
					"/>
				<path class="st10" d="M684.1,643.3c0,3.3-2.4,4.7-5.3,3c-2.9-1.7-5.3-5.8-5.3-9.1s2.4-4.7,5.3-3
					C681.7,635.9,684.1,639.9,684.1,643.3z"/>
				<g>
					<path class="st7" d="M680.4,644.9c-0.5,0-1.1-0.2-1.6-0.5c-2-1.1-3.6-3.9-3.6-6.2c0-1.1,0.4-2,1.1-2.4c0.7-0.4,1.6-0.3,2.6,0.2
						c2,1.1,3.6,3.9,3.6,6.2c0,1.1-0.4,2-1.1,2.4C681.1,644.8,680.7,644.9,680.4,644.9z M677.2,635.9c-0.3,0-0.6,0.1-0.8,0.2
						c-0.6,0.4-0.9,1.1-0.9,2.1c0,2.2,1.5,4.8,3.4,5.9c0.9,0.5,1.7,0.6,2.3,0.2c0.6-0.4,0.9-1.1,0.9-2.1c0-2.2-1.5-4.8-3.4-5.9
						C678.2,636,677.7,635.9,677.2,635.9z"/>
				</g>
			</g>
		</g>
		<g>
			<path class="st11" d="M1004,729.3c0-0.6,0-1.1,0-1.7C1004,727.6,1004,728.2,1004,729.3z"/>
			<path class="st11" d="M954.6,702.2c0,14.2,10,31.4,22.3,38.5s22.3,1.4,22.3-12.7c0-14.2-10-31.4-22.3-38.5
				C964.6,682.3,954.6,688,954.6,702.2z"/>
			<g>
				<path class="st12" d="M1030.2,736.3c-0.6,1.1-1.4,13.2-1.4,13.2l1.4,3.1l0,0c0,0-0.1,0.1-0.8,1.1c-1.8,1.9-12.4-2.2-12.4-2.2
					l-8.1-4l-3.9-2c-0.2-1.4-0.4-2.9-0.6-4.4c-0.4-4.7-0.4-9.4-0.4-11.8c0-1.1,0-1.7,0-1.7c0-17.2-12.1-38.1-27.1-46.7
					c-15-8.6-27.1-1.7-27.1,15.4v9.9l-0.3,5.9l-1.7-1.1l-3.3-2.1l0,0L811.6,631l-13.4-7.8l-2.7-1.6l-1.6-1l-2.7-1.8
					c-0.3-3-0.5-6.1-0.5-8.6c0-1.7,0-3.1,0-4.2l0,0c0-1.1,0-1.7,0-1.7c0-4.2-0.7-8.5-2-12.9c-4-13.7-13.7-27.3-25.1-33.8
					c-5.3-3.1-10.2-4.2-14.4-3.6c-7.6,1.1-12.7,7.9-12.7,19v9.9v0.2l-3-1.7c0,0-0.5-0.4-1.4-1.1c-4.7-3.6-19.5-15-22.5-17.9
					c-1.1-1.1-2.3-3.6-3.4-6.4l0,0c-2.3-5.9-4.1-13.4-4.2-14.2c-0.1-0.4-0.2-2.9-0.4-5.8c-0.2-4.7-0.5-10.4-0.5-10.4s1-0.2,1.9-0.4
					c0.9-0.3,1.9-5,3.2-7.7c0.8-1.8,0.6-4.1,0.3-5.5c0-0.1-0.1-0.3-0.1-0.4l0,0c-0.1-0.6-0.2-0.9-0.2-0.9s0-0.2,0.1-0.6
					c0.1-0.6,0.4-1.6,1-2.6c3.7,1.4,20.5,10.1,24,11.6s9,4.7,23,4.5c2.7,0,5-0.2,6.9-0.4c0.1,0,0.1,0,0.2,0
					c5.1-0.5,8.4-1.3,13.2-0.8c4,0.4,9.1,1.8,17.2,4.9c21.7,8.4,76.2,39.5,91.7,54.8c4,3.9,47,53.9,47.8,54.3
					c0.8,0.5,32.4,21.9,59.5,41c27,19.1,35.1,29.1,35.9,31.6c0.7,2.5,4.5,24.9,4.5,25.5C1031.1,735,1030.8,735.2,1030.2,736.3z"/>
				<path class="st11" d="M790.6,606.1c0-0.5,0-1.1,0-1.7C790.7,604.4,790.7,605.1,790.6,606.1z"/>
				
					<ellipse transform="matrix(0.8633 -0.5047 0.5047 0.8633 -194.3429 466.294)" class="st11" cx="763.6" cy="591.9" rx="18.2" ry="31.5"/>
			</g>
			<g>
				<path class="st11" d="M854.2,595.5c0,0.6,0,1.4,0.1,2.6c0,0.2,0,0.3,0,0.5c0,0.4,0.1,0.7,0.1,1.1l0,0c0.2,2.3,0.6,5.5,1.3,9.8
					v0.1v0.1c0.2,1.6,0.4,3.5,0.5,5.4l0,0c0,0.2,0,0.3,0,0.5l0,0c0.2,2.5,0.2,5.2,0.3,8c0,0.2,0,0.4,0,0.6c0,0.9,0,1.8,0,2.7v0.1
					c0,11.6-0.7,23.3-0.8,24.7v0.1c0,0,71.4,42.1,75.5,44.4c2.6-8.8,3.3-35.7,2.8-39.9c-0.4-4.2-2.3-12-2.8-13.1
					c-0.5-0.9-2.6-2.3-4.3-4.4l0,0c-0.3-0.3-0.5-0.7-0.8-1c-1.7-2.6-30.6-39.5-35.7-45.2c-5-5.7-6.8-8-16.9-16.1
					c-10.1-8.1-28.4-18.7-28.4-18.7l9,36.3l0,0C854.2,594.5,854.2,594.8,854.2,595.5L854.2,595.5L854.2,595.5z"/>
				<path class="st11" d="M783.7,566.5c5,11.6,19.2,43.3,21.8,49.1c2.6,5.7,4.6,7.4,9.5,12c4.7,3.5,40.8,24.4,40.8,24.4v-0.1
					c0.5-9.3,0.7-20.5,0.8-24.7V627c0-0.9,0-1.8,0-2.7c0-0.2,0-0.4,0-0.6c-0.1-3.4-0.2-6.8-0.3-8l0,0c0-0.1,0-0.3,0-0.5l0,0
					c-0.1-1.7-0.5-4.8-0.5-5.4v-0.1c0,0,0,0,0-0.1c-0.1-0.9-1.1-7.9-1.3-9.8l0,0v-0.1c0-0.3-0.1-0.7-0.1-1c0-0.2,0-0.3,0-0.5
					c-0.1-1.2-0.1-2.3-0.1-2.6v-0.1l0,0l0.1-1l0,0l-9-36.3c-32.6-18.8-32.6-18-38.3-20.5s-12.2-5.3-17.3-4.4
					c-8.7,1.1-7.2,12.5-7.9,15.1c-0.3,0.9-0.6,1.8-1.1,2.5c-0.7,1.3-1.4,2.1-1.4,2.1S778.7,554.9,783.7,566.5z"/>
				<path class="st11" d="M921.8,635l-60.6-36.9l-11-35.2c0,0,21.2,12.2,32.1,22.9C893.3,596.4,921.8,635,921.8,635z"/>
				<path class="st11" d="M840,556.9l7,32.4l-61.1-36.9c0,0-1-1.3-0.7-2.3s2.5-15,11.1-14.1c2.6,0.7,10.1,2.9,16.6,6.1
					C819.4,545.5,817,543.6,840,556.9z"/>
			</g>
			<path class="st11" d="M944.5,709l3.3,2.1l1.7,1.1l0.3-5.9v-9.9c0-17.2,12.1-24.1,27.1-15.4c15,8.6,27.1,29.5,27.1,46.7
				c0,0,0,0.6,0,1.7c-0.1,3.2,0,10.2,1,16.2l3.9,2c-0.6-4.9-0.7-17.5-0.7-17.5c0-19.8-14-43.9-31.2-53.8c-17.2-9.9-31.2-2-31.2,17.8
				C945.7,700.7,945,706,944.5,709z"/>
			<path class="st11" d="M732.1,580.5c0.9,0.7,1.4,1.1,1.4,1.1l3,1.7v-0.2v-9.9c0-17.2,12.1-24.1,27.1-15.4
				c15,8.6,27.1,29.5,27.1,46.7c0,0,0,0.6,0,1.7l0,0c0,2.6,0,7.7,0.5,12.7l2.7,1.8l1.6,1C795.1,616,795,607,795,607
				c0-19.8-14-43.9-31.2-53.8c-17.2-9.9-31.2-2-31.2,17.8C732.6,574.6,732.4,577.8,732.1,580.5z"/>
			<path class="st11" d="M1007.8,743.3c-1-0.6-2.2-1.4-3.5-2.2c0.1,1.5,0.3,3,0.6,4.4l3.9,2l8.1,4c0,0,10.6,4.2,12.4,2.2
				c0.7-1,0.8-1.1,0.8-1.1C1030,752.6,1021,751.5,1007.8,743.3z"/>
			<path class="st11" d="M795.1,613c0,0-1.7-1.1-4.5-2.7c0,2.5,0.2,5.6,0.5,8.6l2.7,1.8l1.6,1l2.7,1.6L944.5,709l0,0l3.3,2.1
				l1.7,1.1l0.3-5.9L795.1,613z"/>
			<path class="st11" d="M702,542c0.2,1.2,4.2,17.1,7.7,20.6c2.9,2.9,17.8,14.3,22.5,17.9c0.9,0.7,1.4,1.1,1.4,1.1l3,1.7v-0.2v-4.6
				C724.1,569.1,706.1,553.5,702,542z"/>
			<path class="st11" d="M706.3,510.2c0,0.5,0.1,1,0.1,1.6l0,0c0,0.1,0,0.3,0.1,0.4c1.6,5.4,23.6,25.5,42.7,42
				c4.2-0.6,9.1,0.5,14.4,3.6c11.3,6.5,21,20.1,25.1,33.8c4.9,7.5,9.5,15.4,16.3,21.1c12.2,10.3,23.7,4.1,23.7,4.1s8.4-1.2,8-1.8
				c-0.5-0.6-12-30.7-22.1-40.8c-10.1-10-41.5-33-58.7-40.9c-17.3-7.9-48.5-25.7-48.5-25.7S705.9,504.8,706.3,510.2z"/>
			<path class="st13" d="M623.2,555.6c1.2-12.3,67.4-49.4,83.3-48.7l24.7,12.2l-83.1,48C648.1,567.1,622.6,562.2,623.2,555.6z"/>
			<path class="st14" d="M706.3,556.2l-28.5,17.1c0,0-31.4,1.9-29.6-6.2c2.6-11.5,25.9-24.2,36-30.1c10.9-6.4,34.5-17.1,47.1-17.9
				c7.3-0.4,25.3,0,42.1,3.1C773.5,522.2,706.3,556.2,706.3,556.2z"/>
			<path class="st12" d="M773.4,522.2c-18.1-3.6-34.7-3.5-42.1-3.1c-7.5,0.4-12,2.5-12,2.5s8-1.5,17.3-1.6s32,1.5,30.2,2.3
				C765,523.2,773.4,522.2,773.4,522.2z"/>
			<path class="st12" d="M688.3,564c-9.1,2.9-26.3,4.7-32,0s4.8-12.3,4.8-12.3s-14.7,7.5-14.9,9.6s0.2,6.5,0.2,6.5l29.5,9.2
				l13.6-6.1L688.3,564z"/>
			<path class="st12" d="M883.5,582.1l-72,49l-6.1,4.2c0,0-134-34.5-120.6-66.1c3.6-8.5,25.7-23.2,31.1-26.5
				c13.7-8.3,33.9-16.9,45.4-19.5c0.1,0,8.7-1.7,13.4-0.8c4.4,0.9,17.2,4.9,17.2,4.9L883.5,582.1z"/>
		</g>
		<path class="st15" d="M1029.4,753.7c-3.3,12.2-49.1,41.9-83.1,48c-5.9-5.7-6.2-19.9-5.6-30c0.4-6.4,1.2-11.2,1.2-11.2l2.4-0.7
			l25.1-7.3l61-17l-1.3,14L1029.4,753.7z"/>
		<path class="st16" d="M1029.2,745.7c-1.4,2.2-2.5,1-3.1,0s-2.1-5.2-1.1-6.7c1.1-1.5,4.2-2.6,4.2-2.6V745.7z"/>
		<path class="st12" d="M1031.1,734.4c-6.9,18.4-39.2,33-61.5,41c-11.2,4.1-23.4-3-25.4-14.8l-0.7-3.7l83.1-48
			C1026.7,709,1031.1,712.1,1031.1,734.4z"/>
		<path class="st12" d="M931.3,636.4l-88.1,50.9l77.5,63.3l22.8,6.4c0,0,66.8-22.6,83.1-48l-52.1-39L931.3,636.4z"/>
		<path class="st17" d="M1017.3,719.3c2.8-2.5,2.7-4.6,2.4-8s1.4-5,1.5-6.4s-1.2-4.2-3.6-6.4c-2.4-2.2,7.1,5.4,9.4,10.8
			c2.3,5.4,2.2,9.2,0.3,10.7C1025.4,721.5,1017.3,719.3,1017.3,719.3z"/>
		<path class="st3" d="M931.3,636.4c-22.1,36.8-83.1,48-83.1,48l-37.9-60.1c0,0,25.7-10.4,49.5-25c7.3-4.5,14.4-9.4,20.6-14.5
			c1.1-0.9,2.1-1.8,3.1-2.7L931.3,636.4z"/>
		<path class="st14" d="M925.4,638.4c0.1,1.7-0.5,2.7-0.9,3.1c-15.5,17-39.3,27.3-56.4,34c-1.2,0.5-2.3,0.9-3.4,1.3
			c-5.4,2.1-11.3,1.3-15.8-1.8l0,0c-1.9-1.3-3.6-3-4.9-5.1l-26.8-42.3c-1.1-1.9-0.3-4.3,1.7-5.1c8.5-3.7,24.8-11.4,41.8-21.8
			c0.3-0.2,0.5-0.3,0.8-0.5c7.8-4.8,14.5-9.6,20-14.2l0.1-0.1c0.6-0.5,1.2-1,1.8-1.5l39,47.2C924.6,634.6,925.3,636.8,925.4,638.4z"
			/>
		<path class="st18" d="M925.4,638.4c0.1,1.7-0.5,2.7-0.9,3.1c-15.7,15.8-39.9,27.4-56.4,34c-1.2,0.5-2.3,0.9-3.4,1.3
			c-5.4,2.1-11.3,1.3-15.8-1.8l0,0c1.2-2,2.5-3.8,3.5-4.5c2.8-1.9,29.8-14.6,33.5-17.2c3.7-2.7,1.4-8,3.7-10.6
			c2.3-2.7,14.8-11.3,17-11.4C908.6,631.1,921.1,636.5,925.4,638.4z"/>
		<path class="st18" d="M921.8,636.4l-60.3-36.1c7.8-4.8,14.5-9.6,20-14.2c0,0,0,0,0.1-0.1c1.2,1.3,2.3,2.6,3.8,4.2
			c5,5.7,33.9,42.6,35.7,45.2C921.3,635.7,921.6,636.1,921.8,636.4z"/>
		<g>
			<path class="st19" d="M915.9,780.2c0-0.6,0-1.1,0-1.7C915.9,778.5,915.9,779.1,915.9,780.2z"/>
			<g>
				<path class="st13" d="M947.1,784.3c-0.6,1.1-1.4,13.2-1.4,13.2l1.4,3.1l0,0c0,0-0.1,0.1-0.8,1.1c-1.8,1.9-12.4-2.2-12.4-2.2
					l-13.1-1.2l-3.9-2c-0.2-1.4-0.4-2.9-0.6-4.4c-0.4-4.7-0.4-9.4-0.4-11.8c0-1.1,0-1.7,0-1.7c0-17.2-12.1-38.1-27.1-46.7
					c-15-8.6-27.1-1.7-27.1,15.4v7.4l-0.3,5.9l-1.7-1.1l-3.3-2.1l0,0L710,674.1l-2.7-1.6l-1.6-1l-2.7-1.8c-0.3-3-0.4-6.1-0.5-8.6
					c0-1.7,0-3.1,0-4.2l0,0c0-1.1,0-1.7,0-1.7c0-4.2-0.7-8.5-2-12.9c-4-13.7-13.7-27.3-25.1-33.8c-5.3-3.1-10.2-4.2-14.4-3.6
					c-7.6,1.1-12.7,7.9-12.7,19v9.9v0.2l-3-1.7c0,0-0.5-0.4-1.4-1.1c-4.7-3.6-14.6-17.9-17.5-20.7c-3.5-3.4-7.4-19.4-7.7-20.6
					c-0.2-1.2-0.9-16.2-0.9-16.2s1-0.2,1.9-0.4c0.9-0.3,1.9-5,3.2-7.7c0.8-1.8,0.6-4.1,0.3-5.5c0-0.1-0.1-0.3-0.1-0.4l0,0
					c-0.1-0.6-0.2-0.9-0.2-0.9s0-0.2,0.1-0.6c0.1-0.5,0.3-1.3,0.8-2.2c0.1-0.1,0.1-0.3,0.2-0.4c3.7,1.4,20.5,10.1,24,11.6
					s9,5.1,23,4.4c15.8-0.7,25.8-10.5,47.5-2c21.7,8.4,76.2,39.5,91.7,54.8c4,3.9,37.1,59.6,37.9,60.1c0.8,0.5,32.4,21.9,59.5,41
					c27,19.1,35.1,29.1,35.9,31.5c0.1,0.4,0.3,1.5,0.6,2.9c0.7,3.6,1.7,9.6,2.5,14.5c0.7,4.4,1.3,7.9,1.3,8.1
					C948,782.9,947.6,783.2,947.1,784.3z"/>
				<path class="st16" d="M618,573.9c0,0,0.8-3.5,3.3-6.4s2.2,4.6,2.2,4.6s-3.8,0.8-3.6,1.4c0.2,0.6,0.1,6.4,9.5,15
					C621.6,582.1,618.9,581.7,618,573.9z"/>
				<path class="st16" d="M742,664.8c-7.7,2.2-27.7-3.6-31.1-12.9c-3.4-9.3-10.6-29.3-17.4-40.3c-6.8-11-20-16.9-30.8-21.7
					c-9.5-4.2-18.4-2.8-24.3-8.2c0,0,0,0-0.1-0.1c-0.7-0.9-1.5-1.8-2.2-2.7c0-0.1-0.1-0.1-0.1-0.1l0,0c-7.1-8.7-11.9-16-12.7-18.8
					c0-0.2-0.1-0.3-0.1-0.4c-0.1-0.6-0.1-1.1-0.1-1.6c-0.4-5.3,1-2.6,1-2.6s31.2,17.8,48.5,25.7c1.5,0.7,3.2,1.5,4.9,2.4l0.1,0.1
					c3.2,2.7,5.4,4.7,6.2,5.5c3.6,4.1,22.2,28.2,29.7,34.8C720.9,630.8,749.6,662.6,742,664.8z"/>
				<path class="st15" d="M718.2,659.2c9,6.8,118.6,68.2,123.9,71.2c5.3,3,9.8,7.5,11.7,4.3c1.9-3.3,13.9-11.5,20.6-11.2
					c6.7,0.2,6.7,0.2,6.7,0.2s-130.9-69.3-161.8-93.8C716.4,648.8,718.2,659.2,718.2,659.2z"/>
				<path class="st12" d="M969.3,752.5c-4.5,14.8-8.2,24.1-8.2,24.1c-5.7-0.5-10.2-1-14.3-2.3c-2.1-0.6-4.1-1.5-6.1-2.6
					c-3.9-2.2-8.2-12.7-12.7-18.2c-11.4-13.9-16.4-15.2-23.9-21.4s-43.9-23.3-57.8-32.3c-13.9-9-122.4-63.7-151.7-96.6
					c-20.4-23-64.6-43.8-70.6-47.2c0.1-0.1,0.1-0.3,0.2-0.4c3.7,1.4,20.5,10.1,24,11.6s9,5.1,23,4.4c15.8-0.7,25.8-10.5,47.5-2
					c21.7,8.4,76.2,39.5,91.7,54.8c4,3.9,37.1,59.6,37.9,60.1c0.8,0.5,32.4,21.9,59.5,41c27,19.1,35.1,29.1,35.9,31.5
					c0.1,0.4,0.3,1.5,0.6,2.9L969.3,752.5z"/>
				<path class="st12" d="M943.5,757c-3.1-0.9-6.3-2.4-14.3-10.6c-8-8.2-25.7-21.3-52-36.8c-17.1-10-27.6-21.6-29-25.3
					c6.3-2.1,37,2.7,37,2.7S944.7,741.2,943.5,757z"/>
				<path class="st20" d="M848.2,684.4c0,0,39.9,26,48.6,32.1c8.7,6.2,26,20.7,27.9,23.3s11.2,5.8,11.2,5.8h-5.8L878.4,714l-26-21.7
					L848.2,684.4z"/>
				<path class="st3" d="M697.5,598.9l73.5,44.6l72.8,43.6c-0.3-0.3-0.5-0.7-0.8-1c-1.7-2.6-22.3-41.8-26-48.4
					c-3.7-6.6-6.5-10.4-16.6-18.6S772,600.4,772,600.4c-32.6-18.8-32.6-18-38.3-20.5s-12.2-5.3-17.3-4.4c-8.7,1.1-19.1,3.8-24.4,7.2
					C689.1,584.4,697.7,589.3,697.5,598.9z"/>
				<path class="st15" d="M707,663.9c0,0-1.7-1.1-4.5-2.7c0,2.5,0.2,5.6,0.5,8.6l2.7,1.8l1.6,1l2.7,1.6l146.3,83.2l0,0l3.3,2.1
					l1.7,1.1l0.3-5.9L707,663.9z"/>
				<path class="st19" d="M702.5,657c0-0.5,0-1.1,0-1.7C702.6,655.3,702.6,655.9,702.5,657z"/>
			</g>
			<g>
				<g>
					<path class="st21" d="M848.4,744.8l-0.4-0.2c-4-2.3-74.7-44-75.5-44.4l-0.1-0.1c-0.3-0.2-1.2-0.6-1.9-1c-2-1-2-1-2-1.1
						c-7.4-25.8-3.4-47.4-1.3-55.5c0.1-0.3,0.1-0.5,0.1-0.6v-0.1c0-0.5,0-0.8,0.1-1.1l4.5-40.7l0.3,0.2c0.2,0.1,18.4,10.6,28.4,18.7
						c10,8,12,10.3,15.8,17.1c1.2,2.3,4.6,8.6,8.5,15.9c7.7,14.4,17.3,32.4,18.4,34.1c0.2,0.3,0.5,0.6,0.7,1l0,0
						c0.9,1,1.8,1.9,2.6,2.6c0.8,0.7,1.4,1.3,1.7,1.8s-0.1,1.3-0.5,2.4c-0.7,1.5-1.5,3.6-1.3,6.1c0.2,1.6,0.3,5.2,0.4,10.2
						c0.2,8.3,0.6,20.8,1.5,34.3V744.8z M772.8,699.7c0.7,0.4,68.3,40.3,75.1,44.2c-0.9-13.4-1.2-25.7-1.4-33.9
						c-0.1-5-0.2-8.6-0.4-10.2c-0.3-2.6,0.7-4.7,1.3-6.3c0.4-0.9,0.7-1.7,0.5-2c-0.2-0.4-0.8-1-1.6-1.6c-0.8-0.7-1.8-1.6-2.6-2.6
						l0,0c-0.3-0.4-0.6-0.7-0.8-1c-1.1-1.7-10.7-19.7-18.4-34.2c-3.9-7.3-7.2-13.6-8.5-15.9c-3.7-6.7-5.7-8.9-15.6-16.9
						c-9.3-7.5-25.6-17.1-28-18.5l-4.4,39.9c0,0.3-0.1,0.8-0.1,1v0.1c0,0.1,0,0.2-0.2,0.7c-2.1,8.1-6,29.6,1.3,55.2
						c0.2,0.1,1.1,0.6,1.8,0.9C772,699.3,772.6,699.6,772.8,699.7L772.8,699.7z"/>
				</g>
				<g>
					<path class="st21" d="M769.5,698.5l-0.3-0.2c-0.3-0.2-33.2-17.5-37.9-20.9l-0.6-0.3c-5.1-3-12-7-13.6-10.6
						c-2.6-5.7-16.8-37.5-21.8-49.1l0,0c-5-11.6,0.3-16.4,0.6-16.6l0,0c0,0,0.7-0.8,1.4-2c0.4-0.7,0.7-1.6,1-2.5
						c4.1-11.5,17.3-20.9,18.9-21.2c3.1-0.6,7.2,0.3,13.3,3c0.6,0.3,1.1,0.5,1.7,0.7c5,2.1,10.7,4.4,39.9,21.3l0.1,0.1v0.2
						l-4.4,40.3l-0.1,1v0.1c-7,25.6,0.8,53.1,1.7,56.1c0,0.1,0,0.1,0,0.2L769.5,698.5z M695.8,617.2c5,11.6,19.2,43.4,21.8,49.1
						c1.6,3.4,8.4,7.5,13.4,10.4l0.6,0.3c4.3,3.2,33.2,18.5,37.3,20.7c-1.4-4.7-8.3-31.1-1.6-55.9l0,0v-0.1l0.1-1l4.4-40.2
						c-29.1-16.8-34.8-19.2-39.7-21.2c-0.6-0.2-1.1-0.5-1.7-0.7c-6-2.6-10-3.5-13.1-2.9c-1.5,0.3-14.5,9.5-18.5,20.8
						c-0.3,0.9-0.6,1.8-1.1,2.6c-0.7,1.3-1.4,2.1-1.5,2.1C696.2,601.2,691,606,695.8,617.2L695.8,617.2z"/>
				</g>
				<path class="st14" d="M838.7,683l-65.3-39.7c0-26.2,3.6-38.2,3.6-38.2s25.6,16.6,31.5,22.9C814.7,634.6,838.7,683,838.7,683z"/>
				<path class="st14" d="M766.8,599.2c0,0-3.2,21.5-2.9,38.1l-61.1-36.9c0,0-1-1.3-0.7-2.3s10.8-18.8,21-19.8
					c2.6,0.7,10.1,2.9,16.6,6.1C746.2,587.8,743.8,585.9,766.8,599.2z"/>
			</g>
			<path class="st12" d="M856.4,755.1l3.3,2.1l1.7,1.1l0.3-5.9V745c0-17.2,12.1-24.1,27.1-15.4c15,8.6,27.1,29.5,27.1,46.7
				c0,0,0,0.6,0,1.7c-0.1,3.2,0,10.2,1,16.2l3.9,2c-0.6-4.9-0.7-17.5-0.7-17.5c0-19.8-14-43.9-31.2-53.8c-17.2-9.9-31.2-2-31.2,17.8
				C857.6,749.3,856.9,752,856.4,755.1z"/>
			<path class="st16" d="M856.4,757.4l3.3,2.1l1.7,1.1l0.3-5.9v-7.4c0-17.2,12.1-24.1,27.1-15.4c15,8.6,27.1,29.5,27.1,46.7
				c0,0,0,0.6,0,1.7c-0.1,3.2,0,10.2,1,16.2l3.9,2c-0.6-4.9-0.7-17.5-0.7-17.5c0-19.8-14-43.9-31.2-53.8c-17.2-9.9-31.2-2-31.2,17.8
				C857.6,751.6,856.9,754.4,856.4,757.4z"/>
			<path class="st12" d="M644,627.3c0.9,0.7,1.4,1.1,1.4,1.1l3,1.7v-0.2V620c0-17.2,12.1-24.1,27.1-15.4c15,8.6,27.1,29.5,27.1,46.7
				c0,0,0,0.6,0,1.7l0,0c0,2.6,0,7.7,0.5,12.7l2.7,1.8l1.6,1c-0.4-5.7-0.5-14.7-0.5-14.7c0-19.8-14-43.9-31.2-53.8
				c-17.2-9.9-31.2-2-31.2,17.8C644.5,621.4,644.3,624.6,644,627.3z"/>
			<path class="st16" d="M644,631.4c0.9,0.7,1.4,1.1,1.4,1.1l3,1.7V634v-10c0-17.2,12.1-24.1,27.1-15.4c15,8.6,27.1,29.5,27.1,46.7
				c0,0,0,0.6,0,1.7l0,0c0,2.6,0,7.7,0.5,12.7l2.7,1.8l1.6,1c-0.4-5.7-0.5-14.7-0.5-14.7c0-19.8-14-43.9-31.2-53.8
				c-17.2-9.9-31.2-2-31.2,17.8C644.5,625.5,644.3,628.7,644,631.4z"/>
			<path class="st15" d="M919.8,794.2c-1-0.6-2.2-1.4-3.5-2.2c0.1,1.5,0.3,3,0.6,4.4l3.9,2l13.1,1.2c0,0,10.6,4.2,12.4,2.2
				c0.7-1,0.8-1.1,0.8-1.1C946.9,800.6,932.9,802.4,919.8,794.2z"/>
			<path class="st16" d="M618.9,590c0.2,1.2,4.2,17.1,7.7,20.6c2.9,2.9,12.8,17.2,17.5,20.7c0.9,0.7,1.4,1.1,1.4,1.1l3,1.7v-0.2
				v-4.6C636,619.9,623,601.5,618.9,590z"/>
		</g>
		<path class="st13" d="M810.3,624.3l37.9,60.1l8.8-3c0,0-5.7,2.1-12.5-8.3c-6.7-10.4-26.4-42-29.9-46.8c-2.3-3.8,4.2-5.7,4.2-5.7
			L810.3,624.3z"/>
		<path class="st13" d="M883.5,582.1c0,0,30.7,29.1,47.8,54.3c-2,5.7-5.7,8.3-5.7,8.3s2.6-6.6,1.1-9.4c-3.5-6.7-36.3-46.1-42.5-51.9
			c-1.1-0.9-3.8,1.3-3.8,1.3L883.5,582.1z"/>
		<path class="st13" d="M1030.2,752.6c0,0-19.1,29.1-83.1,48c-5.6-0.1-26.6-4.5-26.7-6c-0.1-1.5,16.8,1.7,25.3,2.9
			c7.8,0,41.8-14.5,55.1-23.3c24.4-16.3,28.1-24.7,28.1-24.7L1030.2,752.6z"/>
		<path class="st22" d="M1027.8,722.9c-1.5-4.2-4.7-6.1-7.1-4.3c-2.4,1.9-3.1,6.8-1.5,11c1.5,4.2,4.7,6.1,7.1,4.3
			C1028.6,732.1,1029.3,727.1,1027.8,722.9z"/>
		<path class="st23" d="M1025.5,733c-0.4,0.3-0.8,0.4-1.2,0.4c-0.9,0-2.1-0.8-3.1-2.4c-0.3-0.5-0.6-1-0.8-1.7
			c-1.5-4-0.6-8.2,1.1-9.6c0.3-0.3,0.6-0.4,1-0.4c0.1,0,0.1,0,0.2,0c1.2,0,2.9,1.3,3.9,4.1C1028,727.4,1027.2,731.6,1025.5,733z"/>
		<path class="st22" d="M1026.5,710.2c-1.1-2.7-2.9-4.2-4.1-3.5c-1.2,0.7-1.3,3.5-0.3,6.1c1.1,2.7,2.9,4.2,4.1,3.5
			C1027.4,715.7,1027.5,712.9,1026.5,710.2z"/>
		<path class="st23" d="M1025.5,715.3c-0.3,0-1-0.5-1.7-1.7c-0.2-0.3-0.4-0.7-0.6-1.2c-0.8-2-0.7-3.6-0.4-4.2
			c0.1-0.2,0.1-0.3,0.2-0.3c0.3,0,1.5,0.8,2.3,2.9C1026.3,713.2,1025.9,715.1,1025.5,715.3z"/>
		<path class="st22" d="M1022.1,730.5c-0.3,0.3-0.6,0.4-1,0.4c-0.3-0.5-0.6-1-0.8-1.7c-1.5-4-0.6-8.2,1.1-9.6c0.3-0.3,0.6-0.4,1-0.4
			c0.3,0.5,0.6,1,0.8,1.7C1024.7,725,1023.9,729.2,1022.1,730.5z"/>
		<path class="st22" d="M1023.9,713.6c-0.2-0.3-0.4-0.7-0.6-1.2c-0.8-2-0.7-3.6-0.4-4.2c0.2,0.3,0.4,0.7,0.6,1.2
			C1024.2,711.3,1024.1,712.9,1023.9,713.6z"/>
		<g>
			<path class="st24" d="M1011.5,727.3c-8.6,6.5-28.3,17.5-36.9,21.4c-8.6,3.8,1.9,11.3,2.5,18.3c0.4,5.1,30.2-10.7,37.6-19.6
				C1017.6,743.5,1016.3,723.7,1011.5,727.3z"/>
			<path class="st22" d="M978.8,768.4c-0.4,0-0.7,0-1-0.1c-0.6-0.2-1-0.7-1.1-1.3c-0.2-2.4-1.7-5-3.1-7.4c-1.7-2.9-3.3-5.7-2.6-8.1
				c0.4-1.3,1.5-2.4,3.4-3.2c8.4-3.7,28.2-14.8,36.8-21.3l0,0c1-0.7,2-0.7,2.8,0.1c3.1,3,3.4,17.3,1.1,20.6
				C1008.7,755.4,985.6,768.4,978.8,768.4z M1011.8,727.7c-8.6,6.6-28.5,17.6-36.9,21.4c-1.6,0.7-2.6,1.6-2.9,2.7
				c-0.7,2,0.9,4.6,2.5,7.4c1.5,2.5,3,5.1,3.2,7.8c0,0.2,0.1,0.4,0.5,0.5c4.4,1.4,29.4-11.9,36.4-20.3c2.1-2.9,1.8-16.7-1-19.5
				C1012.9,727.2,1012.4,727.2,1011.8,727.7L1011.8,727.7z"/>
		</g>
		<path class="st25" d="M1011.5,727.3c-0.7,0.5-1.5,1.1-2.3,1.7c1.4,5.2,1.3,14.4-0.5,16.9c-5.4,6.5-23.1,15.1-32.3,18.2
			c0.1,0.5,0.7,2.4,0.7,2.9c0.4,5.1,30.2-10.7,37.6-19.6C1017.6,743.5,1016.3,723.7,1011.5,727.3z"/>
		<path class="st12" d="M965.9,748.3c-8.2,2-12.7-2.5-26.3-2.3c-6.6,0.1-14.2-3.2-21.6-9.3c-6.8-5.6,18.3,29.3,28.3,31.3
			C956.4,769.9,965.9,748.3,965.9,748.3z"/>
		<path class="st13" d="M1016,720.4c-5.6-7.6-14.9-15.1-27.9-25.9c-11.2-9.3-57.1-44.9-61-49.2C991.2,695,1013.5,714.1,1016,720.4z"
			/>
		<path class="st13" d="M969.3,746.9c-7.3-10.9-97.2-68-97.2-68s63.1,41.2,78.7,53.6C966.4,744.9,969.3,746.9,969.3,746.9z"/>
		<path class="st16" d="M1018.5,759.7c-2.8,3.3-16.7,12.8-24.2,16.9c-7.6,4.1-20.6,10.7-20.6,9.1c0-0.8,0.4-2.8,1-4.9
			c0.6-2.4,1.5-4.8,2.3-5.3c1.6-1,12.9-5.6,21.9-10.2c6.8-3.4,11.9-6.8,15.9-9.9c1.3-1,2.5-2,3.6-3
			C1018.3,752.4,1020.8,756.9,1018.5,759.7z"/>
		<path class="st21" d="M1014.7,755.4c-0.1,0.9-0.4,1.7-1,2.5c-2.8,3.3-16.5,11.6-24.1,15.7c-4.3,2.4-10.5,5.5-15,7.3
			c0.6-2.4,1.5-4.8,2.3-5.3c1.6-1,12.9-5.6,21.9-10.2C1005.6,761.8,1010.7,758.5,1014.7,755.4z"/>
		<path class="st21" d="M960,779.7c0,0-0.4,8.4-0.9,10.3c-0.6,1.8-3.5,3.5-9.8,4.7c-6.4,1.1-13.3-0.9-14.3-3.8
			c-0.7-2.2,2.6-9,5.1-12.5c0.8-1.1,1.6-2,2-2.1c1.5-0.6,8.1,1.8,13.7,3C957.3,779.5,958.8,779.7,960,779.7z"/>
		<path class="st22" d="M966.4,754.6c-2.8-3.5-7-3.8-9.2-0.8c-2.3,3.1-1.8,8.4,1,11.9s7,3.8,9.2,0.8
			C969.7,763.4,969.3,758.1,966.4,754.6z"/>
		<path class="st23" d="M966.4,765.7c-0.8,1-1.8,1.6-3,1.6c-1.5,0-3-0.9-4.3-2.4c-0.2-0.3-0.4-0.6-0.6-0.9c-1.9-3-2.1-7.1-0.4-9.4
			c0.8-1,1.8-1.6,3-1.6c0.1,0,0.2,0,0.3,0c1.4,0.1,2.8,0.9,4,2.3C967.9,758.5,968.3,763.2,966.4,765.7z"/>
		<path class="st22" d="M961.8,762.5c-0.8,1-1.8,1.6-3,1.6c-0.1,0-0.2,0-0.3,0c-1.9-3-2.1-7.1-0.4-9.4c0.8-1,1.8-1.6,3-1.6
			c0.1,0,0.2,0,0.3,0C963.3,756.1,963.5,760.2,961.8,762.5z"/>
		<path class="st22" d="M949.4,750.6c-2.2-2.4-5.4-2.8-7.2-0.8s-1.4,5.5,0.8,7.9s5.4,2.8,7.2,0.8C952,756.6,951.6,753.1,949.4,750.6
			z"/>
		<path class="st23" d="M949.3,757.7c-0.3,0.4-0.7,0.6-1.2,0.7c-1.3,0.3-2.9-0.3-4.1-1.6c-0.2-0.2-0.3-0.4-0.5-0.6
			c-1.3-1.9-1.5-4.3-0.3-5.6c0.3-0.4,0.7-0.6,1.2-0.7c0.6-0.2,1.2-0.1,1.8,0.1c0.8,0.2,1.6,0.7,2.2,1.5
			C950.2,753.4,950.6,756.3,949.3,757.7z"/>
		<path class="st22" d="M946.6,755.6c-0.3,0.4-0.7,0.6-1.2,0.7c-0.6,0.2-1.2,0.1-1.8-0.1c-1.3-1.9-1.5-4.3-0.3-5.6
			c0.3-0.4,0.7-0.6,1.2-0.7c0.6-0.2,1.2-0.1,1.8,0.1C947.6,751.9,947.7,754.3,946.6,755.6z"/>
		<path class="st14" d="M619.9,573.4c1,3.7,6.5,0.4,7.8-3.4c1.3-3.7-1.7-4.1-2.9-6.2c-1.2-2-1.8-5.1-1.8-5.1
			S619.1,570.6,619.9,573.4z"/>
		<g>
			<g>
				<path class="st22" d="M976.9,765.8l-0.1-0.9c10.8-0.8,35.2-17.9,37.3-20.5l0.7,0.5C1012.8,747.6,987.9,765,976.9,765.8z"/>
			</g>
			<g>
				<path class="st22" d="M976,763.6l-0.1-0.9c10.7-1.1,35.8-18.4,38-21.1l0.7,0.5C1012.4,745,986.9,762.5,976,763.6z"/>
			</g>
			<g>
				<path class="st22" d="M975.1,761.4l-0.1-0.8c10.5-1.5,36.6-19.1,38.7-21.6l0.7,0.5C1012.3,742.1,986.1,759.9,975.1,761.4z"/>
			</g>
			<g>
				<path class="st22" d="M974.2,759.2l-0.1-0.8c10.4-1.8,37.2-19.5,39.5-22.2l0.7,0.5C1012.1,739.2,985.3,757.2,974.2,759.2z"/>
			</g>
			<g>
				<path class="st22" d="M973.3,757l-0.2-0.8c10.5-2.2,38-20.2,40.2-22.8l0.7,0.5C1011.8,736.5,984.3,754.7,973.3,757z"/>
			</g>
			<g>
				<path class="st22" d="M972.4,754.7l-0.2-0.8c10.9-2.7,38.8-20.9,40.9-23.4l0.7,0.5C1011.7,733.6,983.5,752.1,972.4,754.7z"/>
			</g>
			<g>
				<path class="st22" d="M971.5,752.5l-0.2-0.8c11.1-3.1,39.7-21.6,41.6-24l0.7,0.5C1011.2,731.1,982.1,749.6,971.5,752.5z"/>
			</g>
		</g>
		<path class="st16" d="M960,779.7c0,0-0.4,8.4-0.9,10.3c-0.6,1.8-3.5,3.5-9.8,4.7c-6.4,1.1-13.3-0.9-14.3-3.8
			c-0.7-2.2,2.6-9,5.1-12.5c0.1,0.2,0.1,0.5-0.2,1c-2.1,4.1-1.6,5.4,0,8.2s6.1,1.7,9.1,1.5s6.7-7.9,6.8-9.9c0,0,0,0,0.1,0
			C957.3,779.5,958.8,779.7,960,779.7z"/>
		<g>
			<path class="st13" d="M777.7,589.2c-2,0-4.1-0.5-5.8-1.5l-19.4-11.2c-1.8-1-2.8-2.4-2.8-3.9c0-1.2,0.7-2.4,2.1-3.1l44.6-25.7
				c2.7-1.6,7.3-1.4,10.4,0.4l19.4,11.2c1.8,1,2.8,2.4,2.8,3.9c0,1.2-0.7,2.4-2.1,3.1l-44.6,25.7
				C781.1,588.8,779.4,589.2,777.7,589.2z M801,544.5c-1.4,0-2.7,0.3-3.7,0.8L752.7,571c-0.6,0.3-1.2,0.9-1.2,1.6
				c0,0.8,0.7,1.7,1.9,2.4l19.4,11.2c2.5,1.5,6.5,1.6,8.7,0.4l44.6-25.7c0.6-0.3,1.2-0.9,1.2-1.6c0-0.8-0.7-1.7-1.9-2.4L806,545.7
				C804.6,544.9,802.8,544.5,801,544.5z"/>
		</g>
	</g>
	<polygon class="st26" points="167.3,615.5 3,522.5 275.6,357 570.6,221.6 580.2,725.7 	"/>
	<polygon class="st27" points="254.2,203.7 580.2,15.5 132.5,225.2 135.8,230.8 	"/>
	<polygon class="st28" points="906.3,204.9 580.2,16.6 1027.9,225.2 1027.9,232.7 	"/>
	<polygon class="st29" points="580.2,725.7 254.2,537.5 254.2,197.3 580.2,385.6 	"/>
	<polygon class="st18" points="254.2,197.3 254.2,537.5 580.2,725.7 263.7,532.2 	"/>
	<polygon class="st30" points="391.2,617.7 391.2,276.4 442.9,306.3 442.9,650.5 	"/>
	<polygon class="st31" points="386.8,615.6 386.8,274.4 438.5,304.2 438.5,648.5 	"/>
	<g>
		<g>
			<path class="st32" d="M352.3,386.8L276.6,343V231.6l75.7,43.8V386.8z M283.6,339l61.8,35.7v-95.4l-61.8-35.7V339z"/>
		</g>
		<g>
			<g>
				<polygon class="st32" points="300,332.4 325.8,347.3 325.8,316.8 300,301.9 				"/>
			</g>
			<polygon class="st32" points="287.5,294.9 338.3,324.2 312.9,271 			"/>
		</g>
	</g>
	<polygon class="st33" points="254.2,197.3 580.2,9.1 458.6,36.9 132.5,225.2 	"/>
	<polygon class="st33" points="906.3,197.3 580.2,9.1 701.9,36.9 1027.9,225.2 	"/>
	<polygon class="st0" points="580.2,385.6 254.2,197.3 580.2,9.1 906.3,197.3 	"/>
	<polygon class="st34" points="878.4,197.3 602.7,356.5 580.2,369.5 557.7,356.5 282,197.3 580.2,25.2 	"/>
	<polygon class="st35" points="504.2,535.8 178.1,347.5 175.2,341.1 580.2,385.6 580.2,396.4 	"/>
	<polygon class="st33" points="501.2,529.3 175.2,341.1 254.2,197.3 580.2,385.6 	"/>
	<polygon class="st27" points="501.2,529.3 175.2,341.1 178.1,347.5 504.2,535.8 	"/>
	<polygon class="st31" points="580.2,25.1 580.2,369.5 282,197.3 	"/>
	<polygon class="st0" points="602.7,356.5 580.2,369.5 557.7,356.5 580.2,343.5 	"/>
	<path class="st36" d="M580.2,25.1c0.3,0.2,0,318.4,0,318.4l326,188.1V204.8L580.2,25.1z"/>
</g>
<g>
	<polygon class="st29" points="560.4,683.8 459.3,625.4 459.3,540.9 558.5,593.9 560.4,599.3 	"/>
	<polygon class="st37" points="556.5,595.5 455.4,537.1 457.4,535.5 558.5,593.9 	"/>
	<polygon class="st38" points="556.5,680 556.5,595.5 558.5,593.9 558.5,678.4 	"/>
	<polygon class="st39" points="556.5,680 455.4,621.6 455.4,537.1 556.5,595.5 	"/>
	<g>
		<path class="st40" d="M483.9,585.8c0-0.4,0.2-0.6,0.5-0.4l4.7,3.1c1.5,1,3,2.9,3,5.4c0,0.9-0.2,1.4-0.8,1.7
			c0.8,1.1,1.1,2.4,1.1,3.5c0,2.4-1.5,2.6-3.1,1.6l-5-3.3c-0.3-0.2-0.5-0.7-0.5-1.1L483.9,585.8L483.9,585.8z M486.1,588.7v2.4
			l3.1,2c0.5,0.3,0.8,0.1,0.8-0.7s-0.3-1.4-0.8-1.7L486.1,588.7z M486.1,593.3v2.9l3.3,2.2c0.6,0.4,0.9,0,0.9-0.8
			c0-0.9-0.3-1.6-0.9-2L486.1,593.3z"/>
		<path class="st40" d="M502.8,609.4c-0.3-0.2-0.5-0.7-0.5-1.1v-10.4c0-0.4,0.2-0.6,0.5-0.4l1.7,1.1c0.3,0.2,0.6,0.8,0.8,1.3
			l3.5,10.1v-7.8c0-0.4,0.2-0.6,0.5-0.4l1,0.7c0.3,0.2,0.5,0.7,0.5,1.1V614c0,0.4-0.2,0.6-0.5,0.4l-1.9-1.3
			c-0.3-0.2-0.7-0.8-0.8-1.3l-3.2-9.3v7.2c0,0.4-0.3,0.6-0.5,0.4L502.8,609.4z"/>
		<path class="st40" d="M515.7,605.7l1.3,0.8c1.6,1.1,3.3,3.4,3.3,5.9c0,0.8-0.4,0.6-0.6,0.5l-0.7-0.5c-0.3-0.2-0.6-0.6-0.8-1.5
			c-0.3-1-0.7-1.8-1.4-2.2l-1-0.7c-1.7-1.1-2.2-0.5-2.2,2.3s0.5,4,2.2,5.1l1.2,0.8c0.7,0.5,1.2,0.2,1.4-0.4c0.2-0.6,0.5-0.6,0.8-0.4
			l0.7,0.5c0.2,0.1,0.6,0.5,0.6,1.3c0,2.4-1.7,2.5-3.3,1.5l-1.4-0.9c-2.8-1.9-4.3-4.7-4.3-8.9C511.4,604.8,512.8,603.9,515.7,605.7"
			/>
		<path class="st40" d="M525.1,611.9c2.9,1.9,4.5,4.7,4.5,8.9c0,4.3-1.6,4.9-4.5,3.1c-2.9-1.9-4.5-4.7-4.5-8.9
			C520.6,610.7,522.3,610,525.1,611.9 M522.7,616.3c0,2.5,0.7,4.3,2.4,5.4c1.7,1.1,2.4,0.2,2.4-2.3s-0.7-4.3-2.4-5.4
			C523.4,613,522.7,613.9,522.7,616.3"/>
		<path class="st40" d="M484.4,611.6c-0.3-0.2-0.5-0.7-0.5-1.1V600c0-0.4,0.2-0.6,0.5-0.4l1.7,1.1c0.3,0.2,0.6,0.8,0.8,1.3l3.5,10.1
			v-7.8c0-0.4,0.3-0.6,0.5-0.4l1,0.7c0.3,0.2,0.5,0.7,0.5,1.1v10.4c0,0.4-0.2,0.6-0.5,0.4l-1.9-1.3c-0.3-0.2-0.7-0.8-0.8-1.3
			l-3.2-9.3v7.2c0,0.4-0.3,0.6-0.5,0.4L484.4,611.6z"/>
		<path class="st40" d="M506.5,614l1.3,0.8c1.6,1,3.3,3.4,3.3,5.8c0,0.8-0.4,0.6-0.6,0.5l-0.7-0.4c-0.3-0.2-0.6-0.6-0.8-1.5
			c-0.3-1-0.7-1.8-1.4-2.2l-1-0.7c-1.7-1.1-2.2-0.5-2.2,2.2c0,2.8,0.5,4,2.2,5.1l1.1,0.7c0.7,0.5,1.2,0.2,1.4-0.4
			c0.2-0.5,0.5-0.6,0.8-0.4l0.7,0.4c0.2,0.1,0.6,0.5,0.6,1.3c0,2.4-1.7,2.5-3.3,1.5l-1.4-0.9c-2.8-1.8-4.3-4.7-4.3-8.8
			C502.2,613.1,503.7,612.1,506.5,614"/>
		<path class="st40" d="M511.7,618.2c0-0.4,0.3-0.6,0.5-0.4l1.1,0.7c0.3,0.2,0.6,0.7,0.6,1.2v10.4c0,0.4-0.3,0.6-0.6,0.4l-1.1-0.7
			c-0.3-0.2-0.5-0.7-0.5-1.1V618.2z"/>
		<path class="st40" d="M518.9,622c2.9,1.9,4.5,4.7,4.5,9s-1.6,5-4.5,3.1s-4.5-4.7-4.5-9S516.1,620.1,518.9,622 M516.5,626.5
			c0,2.5,0.7,4.3,2.4,5.4c1.7,1.1,2.4,0.2,2.4-2.3s-0.7-4.3-2.4-5.4S516.5,624,516.5,626.5"/>
		<path class="st40" d="M524.8,638c-0.3-0.2-0.5-0.7-0.5-1.1v-10.4c0-0.4,0.2-0.6,0.5-0.4l1.7,1.1c0.3,0.2,0.6,0.8,0.8,1.3l3.5,10.1
			v-7.8c0-0.4,0.3-0.6,0.5-0.4l1,0.7c0.3,0.2,0.5,0.7,0.5,1.1v10.4c0,0.4-0.2,0.6-0.5,0.4l-1.9-1.3c-0.3-0.2-0.7-0.8-0.8-1.3
			l-3.2-9.3v7.2c0,0.4-0.3,0.6-0.5,0.4L524.8,638z"/>
		<path class="st40" d="M544.8,639c0.3,0.2,0.5,0.7,0.5,1.2v8.8l5.1,3.3c0.3,0.2,0.5,0.7,0.5,1.1v0.8c0,0.4-0.3,0.6-0.5,0.4
			l-6.7-4.4c-0.3-0.2-0.5-0.7-0.5-1.1v-10.4c0-0.4,0.2-0.6,0.5-0.4L544.8,639z"/>
		<path class="st40" d="M501.9,608l-1.3-8.9c-0.4-2.9-1.9-4.5-3.4-5.5l0,0l0,0l0,0l0,0c-1.5-1-3-1.4-3.5,1l-1.3,7.2
			c-0.1,0.4,0.1,0.8,0.4,1l1,0.7c0.3,0.2,0.5,0,0.6-0.4l0.3-1.9l1.8,1.2l0.3,0.2l2.8,1.8l0.3,2.3c0.1,0.5,0.3,1,0.6,1.2l1,0.7
			C501.8,608.8,502,608.5,501.9,608 M497.4,600.4l-0.2-0.1l-2.1-1.4l0.5-2.3c0.2-0.9,0.8-1.1,1.5-0.7l0,0l0,0l0,0l0,0
			c0.7,0.5,1.3,1.5,1.5,2.6l0.5,3L497.4,600.4z"/>
		<path class="st40" d="M502.3,622.4l-1.3-8.7c-0.4-2.9-1.9-4.5-3.4-5.4l0,0l0,0l0,0l0,0c-1.5-1-3-1.3-3.4,1l-1.3,7.1
			c-0.1,0.4,0.1,0.8,0.4,1l1,0.7c0.3,0.2,0.5,0,0.6-0.4l0.3-1.9l1.7,1.1l0.3,0.2l2.7,1.8l0.3,2.3c0.1,0.5,0.3,1,0.6,1.2l1,0.7
			C502.2,623.1,502.3,622.9,502.3,622.4 M497.8,614.9l-0.2-0.1l-2.1-1.4l0.5-2.3c0.2-0.9,0.8-1.1,1.5-0.7l0,0l0,0l0,0l0,0
			c0.7,0.5,1.3,1.5,1.5,2.6l0.5,3L497.8,614.9z"/>
		<path class="st40" d="M542.7,648.8l-1.3-8.7c-0.4-2.9-1.9-4.5-3.4-5.4l0,0l0,0l0,0l0,0c-1.5-1-3-1.3-3.4,1l-1.3,7.1
			c-0.1,0.4,0.1,0.8,0.4,1l1,0.7c0.3,0.2,0.5,0,0.6-0.4l0.3-1.9l1.7,1.1l0.3,0.2l2.7,1.8l0.3,2.3c0.1,0.5,0.3,1,0.6,1.2l1,0.7
			C542.6,649.5,542.8,649.3,542.7,648.8 M538.2,641.3l-0.2-0.1l-2.1-1.4l0.5-2.3c0.2-0.9,0.8-1.1,1.5-0.7l0,0l0,0l0,0l0,0
			c0.7,0.5,1.3,1.5,1.5,2.6l0.5,3L538.2,641.3z"/>
		<path class="st41" d="M476.2,567.8c-0.1,0-0.1-0.1-0.2-0.1l-5.6-0.7l0,0c-0.2,0-0.3,0.1-0.3,0.3s-3.9,16.1-6.7,20.7
			c-0.1,0.1-0.1,0.2-0.1,0.3c0,0.2,0.1,0.5,0.2,0.7l0,0l1.8,3l0,0c0.1,0.1,0.2,0.2,0.2,0.3c0.2,0.1,0.4,0,0.4-0.3l0,0l5.8-22.5
			c0.1-0.3,0.2-0.4,0.4-0.3l1.7,0.3c0.2,0.2,0.4,0.6,0.4,0.9c0,0-0.8,5.9-1.7,14.8c-0.9,8.9-2.9,13.9-2.9,13.9l0,0
			c0,0.1-0.1,0.2-0.1,0.3c0,0.2,0.1,0.5,0.2,0.6l0,0l3.6,6.3l0,0c0.1,0.1,0.2,0.2,0.3,0.3c0.2,0.2,0.4,0,0.4-0.3l2.5-37.6v-0.1
			C476.6,568.3,476.4,567.9,476.2,567.8"/>
		<path class="st41" d="M481.7,619.4L481.7,619.4c0,0-1.5-9-1.3-16.5v-21.4v-0.1c0,0-0.6-3.8-0.7-4.5c0-0.3-0.2-0.7-0.4-0.9l0,0l0,0
			l-0.5-0.2l0,0c-0.2-0.2-0.4,0-0.4,0.3l-1.4,36c0,0,0,0.1,0,0.2c0,0.2,0.1,0.5,0.2,0.7l0,0l3.9,6.6c0.1,0.2,0.2,0.3,0.3,0.4
			c0.2,0.2,0.4,0,0.4-0.3C481.8,619.6,481.8,619.5,481.7,619.4"/>
	</g>
</g>
</svg>
