<?xml version="1.0" encoding="utf-8"?>
<!-- Generator: Adobe Illustrator 24.0.2, SVG Export Plug-In . SVG Version: 6.00 Build 0)  -->
<svg version="1.1" id="Layer_1" xmlns="http://www.w3.org/2000/svg" xmlns:xlink="http://www.w3.org/1999/xlink" x="0px" y="0px"
	 viewBox="0 0 1235 919" style="enable-background:new 0 0 1235 919;" xml:space="preserve">
<style type="text/css">
	.st0{fill:#0A2B54;}
	.st1{fill-rule:evenodd;clip-rule:evenodd;fill:#00589F;}
	.st2{opacity:0.4;}
	.st3{fill:#2D2C36;}
	.st4{fill:#393842;}
	.st5{fill:#504F57;}
	.st6{fill:#B9B9BD;}
	.st7{fill:#5F5E66;}
	.st8{fill:#6E6D74;}
	.st9{fill:#86858B;}
	.st10{fill:#A3A2A7;}
	.st11{fill:#BF413F;}
	.st12{fill:#CAD43D;}
	.st13{fill:#92A139;}
	.st14{fill:#0067AB;}
	.st15{fill:#88911C;}
	.st16{fill:#7A7C14;}
	.st17{fill:#C3C638;}
	.st18{fill:#00589F;}
	.st19{fill:#B53936;}
	.st20{fill:#BABA31;}
	.st21{fill:#59590D;}
	.st22{fill:#FFFFFF;}
	.st23{fill:#F5EBC9;}
	.st24{fill:#423B3C;}
	.st25{fill:#CDC1BC;}
	.st26{fill:#A8A8AA;}
	.st27{fill:#008DCF;}
	.st28{fill:#12A8DB;}
	.st29{fill:#0072B4;}
	.st30{fill:#0D3268;}
	.st31{fill:#103C82;}
	.st32{fill:#804729;}
	.st33{fill:#11438C;}
	.st34{fill:#935C40;}
	.st35{fill:#68C4E9;}
	.st36{fill:#0D346D;}
	.st37{fill:#FDFDFD;}
	.st38{fill:#8A8A8A;}
	.st39{fill:#D5D5D5;}
	.st40{fill:#001C6D;}
	.st41{fill:#B9BD41;}
</style>
<g>
	<polygon class="st0" points="580.2,343.5 906.1,531.9 580.2,725.7 580.2,369.5 557.7,356.5 	"/>
	<polygon class="st1" points="577.8,725.6 903.9,531.8 1235.3,722.9 904,914 	"/>
	<g>
		<path class="st2" d="M1001.8,867L722.2,705.5c-9.6-5.5-13-17.7-7.7-27.4l0,0c12.3-22.5,34.1-38.2,59.3-42.9l52.6-9.7l319.1,184.2
			c7.7,4.4,8.8,15.1,2.1,20.9l0,0c-19.9,17.7-42.7,31.8-67.5,41.8l0,0C1054.6,882.8,1025.7,880.8,1001.8,867z"/>
		<path class="st3" d="M761.4,699.1c0,0,14.1-11.1,18-11.3s51.9,36.4,51.9,36.4l143.2,101.3l16.2-11l51.2,32.5l-7.1-81.6
			L759.1,640.2C759.1,640.2,750.5,682.2,761.4,699.1z"/>
		<g>
			<g>
				<path class="st3" d="M1036.3,838.2c0-14.9-10.5-32.9-23.4-40.4c-6.5-3.7-12.3-4.1-16.5-1.7l0,0l0,0c0,0-0.1,0-0.1,0.1l-11.4,6.6
					v11.5l33.2,45.6l10.5-6.1c0.7-0.3,1.3-0.7,1.9-1.1l0,0l0,0C1034.1,849.9,1036.3,845,1036.3,838.2z"/>
				
					<ellipse transform="matrix(0.8633 -0.5047 0.5047 0.8633 -282.4535 619.2117)" class="st3" cx="1001.8" cy="831" rx="19.1" ry="33"/>
				<g>
					<path class="st4" d="M1025.3,844.5c0,14.9-10.5,20.8-23.4,13.4c-12.9-7.5-23.4-25.6-23.4-40.4c0-14.9,10.5-20.8,23.4-13.4
						C1014.8,811.6,1025.3,829.7,1025.3,844.5z"/>
					<g>
						<path class="st3" d="M1023.8,844.3c0,14.3-10.1,20-22.5,12.9c-12.4-7.2-22.5-24.6-22.5-38.9c0-14.3,10.1-20,22.5-12.9
							C1013.7,812.6,1023.8,830,1023.8,844.3z"/>
						<path class="st5" d="M1019.8,841.4c0,11.4-8,15.9-17.9,10.2S984,832,984,820.7c0-11.4,8-15.9,17.9-10.2
							S1019.8,830,1019.8,841.4z"/>
						
							<ellipse transform="matrix(0.8633 -0.5047 0.5047 0.8633 -282.0894 619.3283)" class="st6" cx="1002.2" cy="830.4" rx="14" ry="24.3"/>
						<path class="st7" d="M1018.2,839.7c0,3-0.6,5.4-1.7,7.2c-2.6,4.5-8.1,5.5-14.4,1.9c-8.9-5.1-16.1-17.5-16.1-27.7
							c0-9.6,6.4-13.8,14.5-10c0.5,0.2,1,0.5,1.6,0.8c2.1,1.2,4.1,2.9,6,4.8c2.5,2.6,4.6,5.6,6.3,8.9c1.3,2.6,2.4,5.3,3,8
							c0.4,1.8,0.7,3.5,0.7,5.2C1018.2,839.1,1018.2,839.4,1018.2,839.7z"/>
						<path class="st8" d="M1011,843.8c-8.9-5.1-16.1-17.5-16.1-27.7c0-2.5,0.4-4.6,1.2-6.3c-5.8-0.6-10,3.6-10,11.3
							c0,10.2,7.2,22.6,16.1,27.7c6.7,3.9,12.5,2.5,14.9-2.9C1015.2,845.7,1013.1,845,1011,843.8z"/>
						<path class="st9" d="M1018.2,839.7c0,3-0.6,5.4-1.7,7.2c-0.5,0.3-1.1,0.6-1.5,0.7l-8-13.6l1.9,12.8c-0.4,0.2-1.3,1.4-4.4,2.4
							l-1.4-3.3c-0.8-0.4,2-1.2,1.2-1.7l-1.9-12.8l-8.7-1c-0.4-0.9-0.7-1.8-1-2.6l-5.3-0.8c0.9-0.7,3-2,4.4-2.4l7.5,0.9l-8.4-8.3
							c0.2-0.7-1.5-1.2-1.2-1.8l-0.4-2.1c0.3-0.5,4-2.2,4.6-2.2l8.5,12.1l-2.5-11.5l0.7-0.4c0.5,0.2,1,0.5,1.6,0.8
							c2.1,1.2,4.1,2.9,6,4.8l-1.2,9l7.5-0.1c1.3,2.6,2.4,5.3,3,8l-0.5,0.3l-6.9-2.2l8.2,7.2
							C1018.2,839.1,1018.2,839.4,1018.2,839.7z"/>
					</g>
				</g>
			</g>
			<g>
				<path class="st10" d="M1010.7,832.3l6.3,1.6c-0.2-0.9-0.5-1.9-0.8-2.8l-0.1-0.4c-0.3-0.9-0.6-1.8-1-2.6l-7.5-1.6l-3.1-12.2
					c-0.7-0.5-1.5-1-2.2-1.5l0,0c-0.8-0.5-1.6-0.8-2.3-1.1l3.1,12.2l-13.7-10.6c-0.4,0.4-0.7,0.9-1,1.5l-0.1,0.2
					c-0.3,0.6-0.6,1.2-0.8,1.9l12.5,9.3l-12.5,0.8c0.2,0.9,0.5,1.9,0.8,2.8l0.1,0.4c0.3,0.9,0.6,1.8,1,2.6l13.7-0.8l-3.1,14.6
					c0.7,0.5,1.5,1,2.2,1.5l0,0c0.8,0.5,1.6,0.8,2.3,1.1l3.1-14.6l7.4,13c0.4-0.4,0.7-0.9,1-1.5l0.1-0.2c0.3-0.6,0.6-1.2,0.8-1.9
					L1010.7,832.3z"/>
				<path class="st9" d="M1011.7,832.9c0,4.1-2.9,5.7-6.4,3.7s-6.4-7-6.4-11.1s2.9-5.7,6.4-3.7
					C1008.8,823.9,1011.7,828.8,1011.7,832.9z"/>
				<path class="st10" d="M1009.7,832.5c0,3.3-2.4,4.7-5.3,3s-5.3-5.8-5.3-9.1s2.4-4.7,5.3-3
					C1007.3,825.1,1009.7,829.2,1009.7,832.5z"/>
				<g>
					<path class="st7" d="M1006,834.1c-0.5,0-1.1-0.2-1.6-0.5c-2-1.1-3.6-3.9-3.6-6.2c0-1.1,0.4-2,1.1-2.4c0.7-0.4,1.6-0.3,2.6,0.2
						c2,1.1,3.6,3.9,3.6,6.2c0,1.1-0.4,2-1.1,2.4C1006.7,834,1006.3,834.1,1006,834.1z M1002.8,825.1c-0.3,0-0.6,0.1-0.8,0.2
						c-0.6,0.4-0.9,1.1-0.9,2.1c0,2.2,1.5,4.8,3.4,5.9c0.9,0.5,1.7,0.6,2.3,0.2c0.6-0.4,0.9-1.1,0.9-2.1c0-2.2-1.5-4.8-3.4-5.9
						C1003.8,825.3,1003.3,825.1,1002.8,825.1z"/>
				</g>
			</g>
		</g>
		<g>
			<g>
				<path class="st3" d="M823.7,713.9c0-14.9-10.5-32.9-23.4-40.4c-6.5-3.7-12.3-4.1-16.5-1.7l0,0l0,0c0,0-0.1,0-0.1,0.1l-11.4,6.6
					V690l33.2,45.6l10.5-6.1c0.7-0.3,1.3-0.7,1.9-1.1l0,0l0,0C821.5,725.7,823.7,720.8,823.7,713.9z"/>
				
					<ellipse transform="matrix(0.8633 -0.5047 0.5047 0.8633 -248.7968 494.9799)" class="st3" cx="789.3" cy="706.8" rx="19.1" ry="33"/>
				<g>
					
						<ellipse transform="matrix(0.8633 -0.5047 0.5047 0.8633 -248.7995 494.9801)" class="st4" cx="789.3" cy="706.8" rx="19.1" ry="33"/>
					<g>
						<path class="st3" d="M811.2,720c0,14.3-10.1,20-22.5,12.9c-12.4-7.2-22.5-24.6-22.5-38.9c0-14.3,10.1-20,22.5-12.9
							C801.1,688.3,811.2,705.8,811.2,720z"/>
						
							<ellipse transform="matrix(0.8633 -0.5047 0.5047 0.8633 -248.8008 494.9801)" class="st5" cx="789.3" cy="706.8" rx="14.6" ry="25.3"/>
						<path class="st6" d="M806.8,716.1c0,10.9-7.7,15.3-17.2,9.8s-17.2-18.8-17.2-29.7s7.7-15.3,17.2-9.8
							C799.1,691.9,806.8,705.2,806.8,716.1z"/>
						<path class="st7" d="M805.7,715.4c0,3-0.6,5.4-1.7,7.2c-2.6,4.5-8.1,5.5-14.4,1.9c-8.9-5.1-16.1-17.5-16.1-27.7
							c0-9.6,6.4-13.8,14.5-10c0.5,0.2,1,0.5,1.6,0.8c2.1,1.2,4.1,2.9,6,4.8c2.5,2.6,4.6,5.6,6.3,8.9c1.3,2.6,2.4,5.3,3,8
							c0.4,1.8,0.7,3.5,0.7,5.2C805.7,714.9,805.7,715.1,805.7,715.4z"/>
						<path class="st8" d="M798.4,719.6c-8.9-5.1-16.1-17.5-16.1-27.7c0-2.5,0.4-4.6,1.2-6.3c-5.8-0.6-10,3.6-10,11.3
							c0,10.2,7.2,22.6,16.1,27.7c6.7,3.9,12.5,2.5,14.9-2.9C802.6,721.5,800.5,720.8,798.4,719.6z"/>
						<path class="st9" d="M805.7,715.4c0,3-0.6,5.4-1.7,7.2c-0.5,0.3-1.1,0.6-1.5,0.7l-8.1-13.7l1.9,12.8c-0.4,0.2-1.3,1.4-4.4,2.4
							l-1.4-3.3c-0.8-0.4,2-1.2,1.2-1.7l-1.9-12.8l-8.7-1c-0.4-0.9-0.7-1.8-1-2.6l-5.3-0.8c0.9-0.7,3-2,4.4-2.4l7.5,0.9l-8.4-8.3
							c0.2-0.7-1.5-1.2-1.2-1.8l-0.4-2.1c0.3-0.5,4-2.2,4.6-2.2l8.5,12.1l-2.5-11.5l0.7-0.4c0.5,0.2,1,0.5,1.6,0.8
							c2.1,1.2,4.1,2.9,6,4.8l-1.2,9l7.5-0.1c1.3,2.6,2.4,5.3,3,8l-0.5,0.3l-6.9-2.2l8.2,7.2C805.7,714.9,805.7,715.1,805.7,715.4z"
							/>
					</g>
				</g>
			</g>
			<g>
				<path class="st10" d="M798.1,708.1l6.3,1.6c-0.2-0.9-0.5-1.9-0.8-2.8l-0.1-0.4c-0.3-0.9-0.6-1.8-1-2.6l-7.5-1.6l-3.1-12.2
					c-0.7-0.5-1.5-1-2.2-1.5l0,0c-0.8-0.5-1.6-0.8-2.3-1.1l3.1,12.2l-13.7-10.6c-0.4,0.4-0.7,0.9-1,1.5l-0.1,0.2
					c-0.3,0.6-0.6,1.2-0.8,1.9l12.5,9.3l-12.5,0.8c0.2,0.9,0.5,1.9,0.8,2.8l0.1,0.4c0.3,0.9,0.6,1.8,1,2.6l13.7-0.8l-3.1,14.6
					c0.7,0.5,1.5,1,2.2,1.5l0,0c0.8,0.5,1.6,0.8,2.3,1.1l3.1-14.6l7.4,13c0.4-0.4,0.7-0.9,1-1.5l0.1-0.2c0.3-0.6,0.6-1.2,0.8-1.9
					L798.1,708.1z"/>
				<path class="st9" d="M799.1,708.7c0,4.1-2.9,5.7-6.4,3.7s-6.4-7-6.4-11.1s2.9-5.7,6.4-3.7C796.3,699.6,799.1,704.6,799.1,708.7z
					"/>
				<path class="st10" d="M797.1,708.3c0,3.3-2.4,4.7-5.3,3c-2.9-1.7-5.3-5.8-5.3-9.1s2.4-4.7,5.3-3
					C794.7,700.9,797.1,704.9,797.1,708.3z"/>
				<g>
					<path class="st7" d="M793.4,709.9c-0.5,0-1.1-0.2-1.6-0.5c-2-1.1-3.6-3.9-3.6-6.2c0-1.1,0.4-2,1.1-2.4c0.7-0.4,1.6-0.3,2.6,0.2
						c2,1.1,3.6,3.9,3.6,6.2c0,1.1-0.4,2-1.1,2.4C794.1,709.8,793.7,709.9,793.4,709.9z M790.2,700.9c-0.3,0-0.6,0.1-0.8,0.2
						c-0.6,0.4-0.9,1.1-0.9,2.1c0,2.2,1.5,4.8,3.4,5.9c0.9,0.5,1.7,0.6,2.3,0.2c0.6-0.4,0.9-1.1,0.9-2.1c0-2.2-1.5-4.8-3.4-5.9
						C791.2,701,790.7,700.9,790.2,700.9z"/>
				</g>
			</g>
		</g>
		<g>
			<path class="st11" d="M1117,794.3c0-0.6,0-1.1,0-1.7C1117,792.6,1117,793.2,1117,794.3z"/>
			<path class="st11" d="M1067.6,767.2c0,14.2,10,31.4,22.3,38.5s22.3,1.4,22.3-12.7c0-14.2-10-31.4-22.3-38.5
				C1077.6,747.3,1067.6,753,1067.6,767.2z"/>
			<g>
				<path class="st12" d="M1143.2,801.3c-0.6,1.1-1.4,13.2-1.4,13.2l1.4,3.1l0,0c0,0-0.1,0.1-0.8,1.1c-1.8,1.9-12.4-2.2-12.4-2.2
					l-8.1-4l-3.9-2c-0.2-1.4-0.4-2.9-0.6-4.4c-0.4-4.7-0.4-9.4-0.4-11.8c0-1.1,0-1.7,0-1.7c0-17.2-12.1-38.1-27.1-46.7
					c-15-8.6-27.1-1.7-27.1,15.4v9.9l-0.3,5.9l-1.7-1.1l-3.3-2.1l0,0L924.6,696l-13.4-7.8l-2.7-1.6l-1.6-1l-2.7-1.8
					c-0.3-3-0.5-6.1-0.5-8.6c0-1.7,0-3.1,0-4.2l0,0c0-1.1,0-1.7,0-1.7c0-4.2-0.7-8.5-2-12.9c-4-13.7-13.7-27.3-25.1-33.8
					c-5.3-3.1-10.2-4.2-14.4-3.6c-7.6,1.1-12.7,7.9-12.7,19v9.9v0.2l-3-1.7c0,0-0.5-0.4-1.4-1.1c-4.7-3.6-19.5-15-22.5-17.9
					c-1.1-1.1-2.3-3.6-3.4-6.4l0,0c-2.3-5.9-4.1-13.4-4.2-14.2c-0.1-0.4-0.2-2.9-0.4-5.8c-0.2-4.7-0.5-10.4-0.5-10.4s1-0.2,1.9-0.4
					c0.9-0.3,1.9-5,3.2-7.7c0.8-1.8,0.6-4.1,0.3-5.5c0-0.1-0.1-0.3-0.1-0.4l0,0c-0.1-0.6-0.2-0.9-0.2-0.9s0-0.2,0.1-0.6
					c0.1-0.6,0.4-1.6,1-2.6c3.7,1.4,20.5,10.1,24,11.6s9,4.7,23,4.5c2.7,0,5-0.2,6.9-0.4c0.1,0,0.1,0,0.2,0
					c5.1-0.5,8.4-1.3,13.2-0.8c4,0.4,9.1,1.8,17.2,4.9c21.7,8.4,76.2,39.5,91.7,54.8c4,3.9,47,53.9,47.8,54.3
					c0.8,0.5,32.4,21.9,59.5,41c27,19.1,35.1,29.1,35.9,31.6c0.7,2.5,4.5,24.9,4.5,25.5C1144.1,800,1143.8,800.2,1143.2,801.3z"/>
				<path class="st11" d="M903.6,671.1c0-0.5,0-1.1,0-1.7C903.7,669.4,903.7,670.1,903.6,671.1z"/>
				
					<ellipse transform="matrix(0.8633 -0.5047 0.5047 0.8633 -211.6998 532.2107)" class="st11" cx="876.6" cy="656.9" rx="18.2" ry="31.5"/>
			</g>
			<g>
				<path class="st11" d="M967.2,660.5c0,0.6,0,1.4,0.1,2.6c0,0.2,0,0.3,0,0.5c0,0.4,0.1,0.7,0.1,1.1l0,0c0.2,2.3,0.6,5.5,1.3,9.8
					v0.1v0.1c0.2,1.6,0.4,3.5,0.5,5.4l0,0c0,0.2,0,0.3,0,0.5l0,0c0.2,2.5,0.2,5.2,0.3,8c0,0.2,0,0.4,0,0.6c0,0.9,0,1.8,0,2.7v0.1
					c0,11.6-0.7,23.3-0.8,24.7v0.1c0,0,71.4,42.1,75.5,44.4c2.6-8.8,3.3-35.7,2.8-39.9c-0.4-4.2-2.3-12-2.8-13.1
					c-0.5-0.9-2.6-2.3-4.3-4.4l0,0c-0.3-0.3-0.5-0.7-0.8-1c-1.7-2.6-30.6-39.5-35.7-45.2c-5-5.7-6.8-8-16.9-16.1
					c-10.1-8.1-28.4-18.7-28.4-18.7l9,36.3l0,0C967.2,659.5,967.2,659.8,967.2,660.5L967.2,660.5L967.2,660.5z"/>
				<path class="st11" d="M896.7,631.5c5,11.6,19.2,43.3,21.8,49.1c2.6,5.7,4.6,7.4,9.5,12c4.7,3.5,40.8,24.4,40.8,24.4v-0.1
					c0.5-9.3,0.7-20.5,0.8-24.7V692c0-0.9,0-1.8,0-2.7c0-0.2,0-0.4,0-0.6c-0.1-3.4-0.2-6.8-0.3-8l0,0c0-0.1,0-0.3,0-0.5l0,0
					c-0.1-1.7-0.5-4.8-0.5-5.4v-0.1c0,0,0,0,0-0.1c-0.1-0.9-1.1-7.9-1.3-9.8l0,0v-0.1c0-0.3-0.1-0.7-0.1-1c0-0.2,0-0.3,0-0.5
					c-0.1-1.2-0.1-2.3-0.1-2.6v-0.1l0,0l0.1-1l0,0l-9-36.3c-32.6-18.8-32.6-18-38.3-20.5s-12.2-5.3-17.3-4.4
					c-8.7,1.1-7.2,12.5-7.9,15.1c-0.3,0.9-0.6,1.8-1.1,2.5c-0.7,1.3-1.4,2.1-1.4,2.1S891.7,619.9,896.7,631.5z"/>
				<path class="st11" d="M1034.8,700l-60.6-36.9l-11-35.2c0,0,21.2,12.2,32.1,22.9C1006.3,661.4,1034.8,700,1034.8,700z"/>
				<path class="st11" d="M953,621.9l7,32.4l-61.1-36.9c0,0-1-1.3-0.7-2.3s2.5-15,11.1-14.1c2.6,0.7,10.1,2.9,16.6,6.1
					C932.4,610.5,930,608.6,953,621.9z"/>
			</g>
			<path class="st11" d="M1057.5,774l3.3,2.1l1.7,1.1l0.3-5.9v-9.9c0-17.2,12.1-24.1,27.1-15.4c15,8.6,27.1,29.5,27.1,46.7
				c0,0,0,0.6,0,1.7c-0.1,3.2,0,10.2,1,16.2l3.9,2c-0.6-4.9-0.7-17.5-0.7-17.5c0-19.8-14-43.9-31.2-53.8c-17.2-9.9-31.2-2-31.2,17.8
				C1058.7,765.7,1058,771,1057.5,774z"/>
			<path class="st11" d="M845.1,645.5c0.9,0.7,1.4,1.1,1.4,1.1l3,1.7v-0.2v-9.9c0-17.2,12.1-24.1,27.1-15.4
				c15,8.6,27.1,29.5,27.1,46.7c0,0,0,0.6,0,1.7l0,0c0,2.6,0,7.7,0.5,12.7l2.7,1.8l1.6,1C908.1,681,908,672,908,672
				c0-19.8-14-43.9-31.2-53.8c-17.2-9.9-31.2-2-31.2,17.8C845.6,639.6,845.4,642.8,845.1,645.5z"/>
			<path class="st11" d="M1120.8,808.3c-1-0.6-2.2-1.4-3.5-2.2c0.1,1.5,0.3,3,0.6,4.4l3.9,2l8.1,4c0,0,10.6,4.2,12.4,2.2
				c0.7-1,0.8-1.1,0.8-1.1C1143,817.6,1134,816.5,1120.8,808.3z"/>
			<path class="st11" d="M908.1,678c0,0-1.7-1.1-4.5-2.7c0,2.5,0.2,5.6,0.5,8.6l2.7,1.8l1.6,1l2.7,1.6l146.3,85.7l0,0l3.3,2.1
				l1.7,1.1l0.3-5.9L908.1,678z"/>
			<path class="st11" d="M815,607c0.2,1.2,4.2,17.1,7.7,20.6c2.9,2.9,17.8,14.3,22.5,17.9c0.9,0.7,1.4,1.1,1.4,1.1l3,1.7v-0.2v-4.6
				C837.1,634.1,819.1,618.5,815,607z"/>
			<path class="st11" d="M819.3,575.2c0,0.5,0.1,1,0.1,1.6l0,0c0,0.1,0,0.3,0.1,0.4c1.6,5.4,23.6,25.5,42.7,42
				c4.2-0.6,9.1,0.5,14.4,3.6c11.3,6.5,21,20.1,25.1,33.8c4.9,7.5,9.5,15.4,16.3,21.1c12.2,10.3,23.7,4.1,23.7,4.1s8.4-1.2,8-1.8
				c-0.5-0.6-12-30.7-22.1-40.8c-10.1-10-41.5-33-58.7-40.9c-17.3-7.9-48.5-25.7-48.5-25.7S818.9,569.8,819.3,575.2z"/>
			<path class="st13" d="M736.2,620.6c1.2-12.3,67.4-49.4,83.3-48.7l24.7,12.2l-83.1,48C761.1,632.1,735.6,627.2,736.2,620.6z"/>
			<path class="st14" d="M819.3,621.2l-28.5,17.1c0,0-31.4,1.9-29.6-6.2c2.6-11.5,25.9-24.2,36-30.1c10.9-6.4,34.5-17.1,47.1-17.9
				c7.3-0.4,25.3,0,42.1,3.1C886.5,587.2,819.3,621.2,819.3,621.2z"/>
			<path class="st12" d="M886.4,587.2c-18.1-3.6-34.7-3.5-42.1-3.1c-7.5,0.4-12,2.5-12,2.5s8-1.5,17.3-1.6s32,1.5,30.2,2.3
				C878,588.2,886.4,587.2,886.4,587.2z"/>
			<path class="st12" d="M801.3,629c-9.1,2.9-26.3,4.7-32,0s4.8-12.3,4.8-12.3s-14.7,7.5-14.9,9.6s0.2,6.5,0.2,6.5l29.5,9.2
				l13.6-6.1L801.3,629z"/>
			<path class="st12" d="M996.5,647.1l-72,49l-6.1,4.2c0,0-134-34.5-120.6-66.1c3.6-8.5,25.7-23.2,31.1-26.5
				c13.7-8.3,33.9-16.9,45.4-19.5c0.1,0,8.7-1.7,13.4-0.8c4.4,0.9,17.2,4.9,17.2,4.9L996.5,647.1z"/>
		</g>
		<path class="st15" d="M1142.4,818.7c-3.3,12.2-49.1,41.9-83.1,48c-5.9-5.7-6.2-19.9-5.6-30c0.4-6.4,1.2-11.2,1.2-11.2l2.4-0.7
			l25.1-7.3l61-17l-1.3,14L1142.4,818.7z"/>
		<path class="st16" d="M1142.2,810.7c-1.4,2.2-2.5,1-3.1,0s-2.1-5.2-1.1-6.7c1.1-1.5,4.2-2.6,4.2-2.6V810.7z"/>
		<path class="st12" d="M1144.1,799.4c-6.9,18.4-39.2,33-61.5,41c-11.2,4.1-23.4-3-25.4-14.8l-0.7-3.7l83.1-48
			C1139.7,774,1144.1,777.1,1144.1,799.4z"/>
		<path class="st12" d="M1044.3,701.4l-88.1,50.9l77.5,63.3l22.8,6.4c0,0,66.8-22.6,83.1-48l-52.1-39L1044.3,701.4z"/>
		<path class="st17" d="M1130.3,784.3c2.8-2.5,2.7-4.6,2.4-8c-0.3-3.4,1.4-5,1.5-6.4s-1.2-4.2-3.6-6.4s7.1,5.4,9.4,10.8
			c2.3,5.4,2.2,9.2,0.3,10.7C1138.4,786.5,1130.3,784.3,1130.3,784.3z"/>
		<path class="st3" d="M1044.3,701.4c-22.1,36.8-83.1,48-83.1,48l-37.9-60.1c0,0,25.7-10.4,49.5-25c7.3-4.5,14.4-9.4,20.6-14.5
			c1.1-0.9,2.1-1.8,3.1-2.7L1044.3,701.4z"/>
		<path class="st14" d="M1038.4,703.4c0.1,1.7-0.5,2.7-0.9,3.1c-15.5,17-39.3,27.3-56.4,34c-1.2,0.5-2.3,0.9-3.4,1.3
			c-5.4,2.1-11.3,1.3-15.8-1.8l0,0c-1.9-1.3-3.6-3-4.9-5.1l-26.8-42.3c-1.1-1.9-0.3-4.3,1.7-5.1c8.5-3.7,24.8-11.4,41.8-21.8
			c0.3-0.2,0.5-0.3,0.8-0.5c7.8-4.8,14.5-9.6,20-14.2l0.1-0.1c0.6-0.5,1.2-1,1.8-1.5l39,47.2
			C1037.6,699.6,1038.3,701.8,1038.4,703.4z"/>
		<path class="st18" d="M1038.4,703.4c0.1,1.7-0.5,2.7-0.9,3.1c-15.7,15.8-39.9,27.4-56.4,34c-1.2,0.5-2.3,0.9-3.4,1.3
			c-5.4,2.1-11.3,1.3-15.8-1.8l0,0c1.2-2,2.5-3.8,3.5-4.5c2.8-1.9,29.8-14.6,33.5-17.2c3.7-2.7,1.4-8,3.7-10.6
			c2.3-2.7,14.8-11.3,17-11.4C1021.6,696.1,1034.1,701.5,1038.4,703.4z"/>
		<path class="st18" d="M1034.8,701.4l-60.3-36.1c7.8-4.8,14.5-9.6,20-14.2c0,0,0,0,0.1-0.1c1.2,1.3,2.3,2.6,3.8,4.2
			c5,5.7,33.9,42.6,35.7,45.2C1034.3,700.7,1034.6,701.1,1034.8,701.4z"/>
		<g>
			<path class="st19" d="M1028.9,845.2c0-0.6,0-1.1,0-1.7C1028.9,843.5,1028.9,844.1,1028.9,845.2z"/>
			<g>
				<path class="st13" d="M1060.1,849.3c-0.6,1.1-1.4,13.2-1.4,13.2l1.4,3.1l0,0c0,0-0.1,0.1-0.8,1.1c-1.8,1.9-12.4-2.2-12.4-2.2
					l-13.1-1.2l-3.9-2c-0.2-1.4-0.4-2.9-0.6-4.4c-0.4-4.7-0.4-9.4-0.4-11.8c0-1.1,0-1.7,0-1.7c0-17.2-12.1-38.1-27.1-46.7
					c-15-8.6-27.1-1.7-27.1,15.4v7.4l-0.3,5.9l-1.7-1.1l-3.3-2.1l0,0L823,739.1l-2.7-1.6l-1.6-1l-2.7-1.8c-0.3-3-0.4-6.1-0.5-8.6
					c0-1.7,0-3.1,0-4.2l0,0c0-1.1,0-1.7,0-1.7c0-4.2-0.7-8.5-2-12.9c-4-13.7-13.7-27.3-25.1-33.8c-5.3-3.1-10.2-4.2-14.4-3.6
					c-7.6,1.1-12.7,7.9-12.7,19v9.9v0.2l-3-1.7c0,0-0.5-0.4-1.4-1.1c-4.7-3.6-14.6-17.9-17.5-20.7c-3.5-3.4-7.4-19.4-7.7-20.6
					c-0.2-1.2-0.9-16.2-0.9-16.2s1-0.2,1.9-0.4c0.9-0.3,1.9-5,3.2-7.7c0.8-1.8,0.6-4.1,0.3-5.5c0-0.1-0.1-0.3-0.1-0.4l0,0
					c-0.1-0.6-0.2-0.9-0.2-0.9s0-0.2,0.1-0.6c0.1-0.5,0.3-1.3,0.8-2.2c0.1-0.1,0.1-0.3,0.2-0.4c3.7,1.4,20.5,10.1,24,11.6
					s9,5.1,23,4.4c15.8-0.7,25.8-10.5,47.5-2c21.7,8.4,76.2,39.5,91.7,54.8c4,3.9,37.1,59.6,37.9,60.1c0.8,0.5,32.4,21.9,59.5,41
					c27,19.1,35.1,29.1,35.9,31.5c0.1,0.4,0.3,1.5,0.6,2.9c0.7,3.6,1.7,9.6,2.5,14.5c0.7,4.4,1.3,7.9,1.3,8.1
					C1061,847.9,1060.6,848.2,1060.1,849.3z"/>
				<path class="st16" d="M731,638.9c0,0,0.8-3.5,3.3-6.4s2.2,4.6,2.2,4.6s-3.8,0.8-3.6,1.4c0.2,0.6,0.1,6.4,9.5,15
					C734.6,647.1,731.9,646.7,731,638.9z"/>
				<path class="st16" d="M855,729.8c-7.7,2.2-27.7-3.6-31.1-12.9c-3.4-9.3-10.6-29.3-17.4-40.3c-6.8-11-20-16.9-30.8-21.7
					c-9.5-4.2-18.4-2.8-24.3-8.2c0,0,0,0-0.1-0.1c-0.7-0.9-1.5-1.8-2.2-2.7c0-0.1-0.1-0.1-0.1-0.1l0,0c-7.1-8.7-11.9-16-12.7-18.8
					c0-0.2-0.1-0.3-0.1-0.4c-0.1-0.6-0.1-1.1-0.1-1.6c-0.4-5.3,1-2.6,1-2.6s31.2,17.8,48.5,25.7c1.5,0.7,3.2,1.5,4.9,2.4l0.1,0.1
					c3.2,2.7,5.4,4.7,6.2,5.5c3.6,4.1,22.2,28.2,29.7,34.8C833.9,695.8,862.6,727.6,855,729.8z"/>
				<path class="st15" d="M831.2,724.2c9,6.8,118.6,68.2,123.9,71.2c5.3,3,9.8,7.5,11.7,4.3c1.9-3.3,13.9-11.5,20.6-11.2
					c6.7,0.2,6.7,0.2,6.7,0.2s-130.9-69.3-161.8-93.8C829.4,713.8,831.2,724.2,831.2,724.2z"/>
				<path class="st12" d="M1082.3,817.5c-4.5,14.8-8.2,24.1-8.2,24.1c-5.7-0.5-10.2-1-14.3-2.3c-2.1-0.6-4.1-1.5-6.1-2.6
					c-3.9-2.2-8.2-12.7-12.7-18.2c-11.4-13.9-16.4-15.2-23.9-21.4s-43.9-23.3-57.8-32.3c-13.9-9-122.4-63.7-151.7-96.6
					c-20.4-23-64.6-43.8-70.6-47.2c0.1-0.1,0.1-0.3,0.2-0.4c3.7,1.4,20.5,10.1,24,11.6s9,5.1,23,4.4c15.8-0.7,25.8-10.5,47.5-2
					c21.7,8.4,76.2,39.5,91.7,54.8c4,3.9,37.1,59.6,37.9,60.1c0.8,0.5,32.4,21.9,59.5,41c27,19.1,35.1,29.1,35.9,31.5
					c0.1,0.4,0.3,1.5,0.6,2.9L1082.3,817.5z"/>
				<path class="st12" d="M1056.5,822c-3.1-0.9-6.3-2.4-14.3-10.6c-8-8.2-25.7-21.3-52-36.8c-17.1-10-27.6-21.6-29-25.3
					c6.3-2.1,37,2.7,37,2.7S1057.7,806.2,1056.5,822z"/>
				<path class="st20" d="M961.2,749.4c0,0,39.9,26,48.6,32.1c8.7,6.2,26,20.7,27.9,23.3s11.2,5.8,11.2,5.8h-5.8L991.4,779l-26-21.7
					L961.2,749.4z"/>
				<path class="st3" d="M810.5,663.9l73.5,44.6l72.8,43.6c-0.3-0.3-0.5-0.7-0.8-1c-1.7-2.6-22.3-41.8-26-48.4
					c-3.7-6.6-6.5-10.4-16.6-18.6S885,665.4,885,665.4c-32.6-18.8-32.6-18-38.3-20.5s-12.2-5.3-17.3-4.4c-8.7,1.1-19.1,3.8-24.4,7.2
					C802.1,649.4,810.7,654.3,810.5,663.9z"/>
				<path class="st15" d="M820,728.9c0,0-1.7-1.1-4.5-2.7c0,2.5,0.2,5.6,0.5,8.6l2.7,1.8l1.6,1l2.7,1.6l146.3,83.2l0,0l3.3,2.1
					l1.7,1.1l0.3-5.9L820,728.9z"/>
				<path class="st19" d="M815.5,722c0-0.5,0-1.1,0-1.7C815.6,720.3,815.6,720.9,815.5,722z"/>
			</g>
			<g>
				<g>
					<path class="st21" d="M961.4,809.8l-0.4-0.2c-4-2.3-74.7-44-75.5-44.4l-0.1-0.1c-0.3-0.2-1.2-0.6-1.9-1c-2-1-2-1-2-1.1
						c-7.4-25.8-3.4-47.4-1.3-55.5c0.1-0.3,0.1-0.5,0.1-0.6v-0.1c0-0.5,0-0.8,0.1-1.1l4.5-40.7l0.3,0.2c0.2,0.1,18.4,10.6,28.4,18.7
						c10,8,12,10.3,15.8,17.1c1.2,2.3,4.6,8.6,8.5,15.9c7.7,14.4,17.3,32.4,18.4,34.1c0.2,0.3,0.5,0.6,0.7,1l0,0
						c0.9,1,1.8,1.9,2.6,2.6c0.8,0.7,1.4,1.3,1.7,1.8s-0.1,1.3-0.5,2.4c-0.7,1.5-1.5,3.6-1.3,6.1c0.2,1.6,0.3,5.2,0.4,10.2
						c0.2,8.3,0.6,20.8,1.5,34.3V809.8z M885.8,764.7c0.7,0.4,68.3,40.3,75.1,44.2c-0.9-13.4-1.2-25.7-1.4-33.9
						c-0.1-5-0.2-8.6-0.4-10.2c-0.3-2.6,0.7-4.7,1.3-6.3c0.4-0.9,0.7-1.7,0.5-2c-0.2-0.4-0.8-1-1.6-1.6c-0.8-0.7-1.8-1.6-2.6-2.6
						l0,0c-0.3-0.4-0.6-0.7-0.8-1c-1.1-1.7-10.7-19.7-18.4-34.2c-3.9-7.3-7.2-13.6-8.5-15.9c-3.7-6.7-5.7-8.9-15.6-16.9
						c-9.3-7.5-25.6-17.1-28-18.5l-4.4,39.9c0,0.3-0.1,0.8-0.1,1v0.1c0,0.1,0,0.2-0.2,0.7c-2.1,8.1-6,29.6,1.3,55.2
						c0.2,0.1,1.1,0.6,1.8,0.9C885,764.3,885.6,764.6,885.8,764.7L885.8,764.7z"/>
				</g>
				<g>
					<path class="st21" d="M882.5,763.5l-0.3-0.2c-0.3-0.2-33.2-17.5-37.9-20.9l-0.6-0.3c-5.1-3-12-7-13.6-10.6
						c-2.6-5.7-16.8-37.5-21.8-49.1l0,0c-5-11.6,0.3-16.4,0.6-16.6l0,0c0,0,0.7-0.8,1.4-2c0.4-0.7,0.7-1.6,1-2.5
						c4.1-11.5,17.3-20.9,18.9-21.2c3.1-0.6,7.2,0.3,13.3,3c0.6,0.3,1.1,0.5,1.7,0.7c5,2.1,10.7,4.4,39.9,21.3l0.1,0.1v0.2
						l-4.4,40.3l-0.1,1v0.1c-7,25.6,0.8,53.1,1.7,56.1c0,0.1,0,0.1,0,0.2L882.5,763.5z M808.8,682.2c5,11.6,19.2,43.4,21.8,49.1
						c1.6,3.4,8.4,7.5,13.4,10.4l0.6,0.3c4.3,3.2,33.2,18.5,37.3,20.7c-1.4-4.7-8.3-31.1-1.6-55.9l0,0v-0.1l0.1-1l4.4-40.2
						c-29.1-16.8-34.8-19.2-39.7-21.2c-0.6-0.2-1.1-0.5-1.7-0.7c-6-2.6-10-3.5-13.1-2.9c-1.5,0.3-14.5,9.5-18.5,20.8
						c-0.3,0.9-0.6,1.8-1.1,2.6c-0.7,1.3-1.4,2.1-1.5,2.1C809.2,666.2,804,671,808.8,682.2L808.8,682.2z"/>
				</g>
				<path class="st14" d="M951.7,748l-65.3-39.7c0-26.2,3.6-38.2,3.6-38.2s25.6,16.6,31.5,22.9C927.7,699.6,951.7,748,951.7,748z"/>
				<path class="st14" d="M879.8,664.2c0,0-3.2,21.5-2.9,38.1l-61.1-36.9c0,0-1-1.3-0.7-2.3s10.8-18.8,21-19.8
					c2.6,0.7,10.1,2.9,16.6,6.1C859.2,652.8,856.8,650.9,879.8,664.2z"/>
			</g>
			<path class="st12" d="M969.4,820.1l3.3,2.1l1.7,1.1l0.3-5.9V810c0-17.2,12.1-24.1,27.1-15.4c15,8.6,27.1,29.5,27.1,46.7
				c0,0,0,0.6,0,1.7c-0.1,3.2,0,10.2,1,16.2l3.9,2c-0.6-4.9-0.7-17.5-0.7-17.5c0-19.8-14-43.9-31.2-53.8c-17.2-9.9-31.2-2-31.2,17.8
				C970.6,814.3,969.9,817,969.4,820.1z"/>
			<path class="st16" d="M969.4,822.4l3.3,2.1l1.7,1.1l0.3-5.9v-7.4c0-17.2,12.1-24.1,27.1-15.4c15,8.6,27.1,29.5,27.1,46.7
				c0,0,0,0.6,0,1.7c-0.1,3.2,0,10.2,1,16.2l3.9,2c-0.6-4.9-0.7-17.5-0.7-17.5c0-19.8-14-43.9-31.2-53.8c-17.2-9.9-31.2-2-31.2,17.8
				C970.6,816.6,969.9,819.4,969.4,822.4z"/>
			<path class="st12" d="M757,692.3c0.9,0.7,1.4,1.1,1.4,1.1l3,1.7v-0.2V685c0-17.2,12.1-24.1,27.1-15.4c15,8.6,27.1,29.5,27.1,46.7
				c0,0,0,0.6,0,1.7l0,0c0,2.6,0,7.7,0.5,12.7l2.7,1.8l1.6,1c-0.4-5.7-0.5-14.7-0.5-14.7c0-19.8-14-43.9-31.2-53.8
				c-17.2-9.9-31.2-2-31.2,17.8C757.5,686.4,757.3,689.6,757,692.3z"/>
			<path class="st16" d="M757,696.4c0.9,0.7,1.4,1.1,1.4,1.1l3,1.7V699v-10c0-17.2,12.1-24.1,27.1-15.4c15,8.6,27.1,29.5,27.1,46.7
				c0,0,0,0.6,0,1.7l0,0c0,2.6,0,7.7,0.5,12.7l2.7,1.8l1.6,1c-0.4-5.7-0.5-14.7-0.5-14.7c0-19.8-14-43.9-31.2-53.8
				c-17.2-9.9-31.2-2-31.2,17.8C757.5,690.5,757.3,693.7,757,696.4z"/>
			<path class="st15" d="M1032.8,859.2c-1-0.6-2.2-1.4-3.5-2.2c0.1,1.5,0.3,3,0.6,4.4l3.9,2l13.1,1.2c0,0,10.6,4.2,12.4,2.2
				c0.7-1,0.8-1.1,0.8-1.1C1059.9,865.6,1045.9,867.4,1032.8,859.2z"/>
			<path class="st16" d="M731.9,655c0.2,1.2,4.2,17.1,7.7,20.6c2.9,2.9,12.8,17.2,17.5,20.7c0.9,0.7,1.4,1.1,1.4,1.1l3,1.7v-0.2
				v-4.6C749,684.9,736,666.5,731.9,655z"/>
		</g>
		<path class="st13" d="M923.3,689.3l37.9,60.1l8.8-3c0,0-5.7,2.1-12.5-8.3c-6.7-10.4-26.4-42-29.9-46.8c-2.3-3.8,4.2-5.7,4.2-5.7
			L923.3,689.3z"/>
		<path class="st13" d="M996.5,647.1c0,0,30.7,29.1,47.8,54.3c-2,5.7-5.7,8.3-5.7,8.3s2.6-6.6,1.1-9.4c-3.5-6.7-36.3-46.1-42.5-51.9
			c-1.1-0.9-3.8,1.3-3.8,1.3L996.5,647.1z"/>
		<path class="st13" d="M1143.2,817.6c0,0-19.1,29.1-83.1,48c-5.6-0.1-26.6-4.5-26.7-6s16.8,1.7,25.3,2.9c7.8,0,41.8-14.5,55.1-23.3
			c24.4-16.3,28.1-24.7,28.1-24.7L1143.2,817.6z"/>
		<path class="st22" d="M1140.8,787.9c-1.5-4.2-4.7-6.1-7.1-4.3c-2.4,1.9-3.1,6.8-1.5,11c1.5,4.2,4.7,6.1,7.1,4.3
			C1141.6,797.1,1142.3,792.1,1140.8,787.9z"/>
		<path class="st23" d="M1138.5,798c-0.4,0.3-0.8,0.4-1.2,0.4c-0.9,0-2.1-0.8-3.1-2.4c-0.3-0.5-0.6-1-0.8-1.7
			c-1.5-4-0.6-8.2,1.1-9.6c0.3-0.3,0.6-0.4,1-0.4c0.1,0,0.1,0,0.2,0c1.2,0,2.9,1.3,3.9,4.1C1141,792.4,1140.2,796.6,1138.5,798z"/>
		<path class="st22" d="M1139.5,775.2c-1.1-2.7-2.9-4.2-4.1-3.5s-1.3,3.5-0.3,6.1c1.1,2.7,2.9,4.2,4.1,3.5
			C1140.4,780.7,1140.5,777.9,1139.5,775.2z"/>
		<path class="st23" d="M1138.5,780.3c-0.3,0-1-0.5-1.7-1.7c-0.2-0.3-0.4-0.7-0.6-1.2c-0.8-2-0.7-3.6-0.4-4.2
			c0.1-0.2,0.1-0.3,0.2-0.3c0.3,0,1.5,0.8,2.3,2.9C1139.3,778.2,1138.9,780.1,1138.5,780.3z"/>
		<path class="st22" d="M1135.1,795.5c-0.3,0.3-0.6,0.4-1,0.4c-0.3-0.5-0.6-1-0.8-1.7c-1.5-4-0.6-8.2,1.1-9.6c0.3-0.3,0.6-0.4,1-0.4
			c0.3,0.5,0.6,1,0.8,1.7C1137.7,790,1136.9,794.2,1135.1,795.5z"/>
		<path class="st22" d="M1136.9,778.6c-0.2-0.3-0.4-0.7-0.6-1.2c-0.8-2-0.7-3.6-0.4-4.2c0.2,0.3,0.4,0.7,0.6,1.2
			C1137.2,776.3,1137.1,777.9,1136.9,778.6z"/>
		<g>
			<path class="st24" d="M1124.5,792.3c-8.6,6.5-28.3,17.5-36.9,21.4c-8.6,3.8,1.9,11.3,2.5,18.3c0.4,5.1,30.2-10.7,37.6-19.6
				C1130.6,808.5,1129.3,788.7,1124.5,792.3z"/>
			<path class="st22" d="M1091.8,833.4c-0.4,0-0.7,0-1-0.1c-0.6-0.2-1-0.7-1.1-1.3c-0.2-2.4-1.7-5-3.1-7.4c-1.7-2.9-3.3-5.7-2.6-8.1
				c0.4-1.3,1.5-2.4,3.4-3.2c8.4-3.7,28.2-14.8,36.8-21.3l0,0c1-0.7,2-0.7,2.8,0.1c3.1,3,3.4,17.3,1.1,20.6
				C1121.7,820.4,1098.6,833.4,1091.8,833.4z M1124.8,792.7c-8.6,6.6-28.5,17.6-36.9,21.4c-1.6,0.7-2.6,1.6-2.9,2.7
				c-0.7,2,0.9,4.6,2.5,7.4c1.5,2.5,3,5.1,3.2,7.8c0,0.2,0.1,0.4,0.5,0.5c4.4,1.4,29.4-11.9,36.4-20.3c2.1-2.9,1.8-16.7-1-19.5
				C1125.9,792.2,1125.4,792.2,1124.8,792.7L1124.8,792.7z"/>
		</g>
		<path class="st25" d="M1124.5,792.3c-0.7,0.5-1.5,1.1-2.3,1.7c1.4,5.2,1.3,14.4-0.5,16.9c-5.4,6.5-23.1,15.1-32.3,18.2
			c0.1,0.5,0.7,2.4,0.7,2.9c0.4,5.1,30.2-10.7,37.6-19.6C1130.6,808.5,1129.3,788.7,1124.5,792.3z"/>
		<path class="st12" d="M1078.9,813.3c-8.2,2-12.7-2.5-26.3-2.3c-6.6,0.1-14.2-3.2-21.6-9.3c-6.8-5.6,18.3,29.3,28.3,31.3
			C1069.4,834.9,1078.9,813.3,1078.9,813.3z"/>
		<path class="st13" d="M1129,785.4c-5.6-7.6-14.9-15.1-27.9-25.9c-11.2-9.3-57.1-44.9-61-49.2C1104.2,760,1126.5,779.1,1129,785.4z
			"/>
		<path class="st13" d="M1082.3,811.9c-7.3-10.9-97.2-68-97.2-68s63.1,41.2,78.7,53.6C1079.4,809.9,1082.3,811.9,1082.3,811.9z"/>
		<path class="st16" d="M1131.5,824.7c-2.8,3.3-16.7,12.8-24.2,16.9c-7.6,4.1-20.6,10.7-20.6,9.1c0-0.8,0.4-2.8,1-4.9
			c0.6-2.4,1.5-4.8,2.3-5.3c1.6-1,12.9-5.6,21.9-10.2c6.8-3.4,11.9-6.8,15.9-9.9c1.3-1,2.5-2,3.6-3
			C1131.3,817.4,1133.8,821.9,1131.5,824.7z"/>
		<path class="st21" d="M1127.7,820.4c-0.1,0.9-0.4,1.7-1,2.5c-2.8,3.3-16.5,11.6-24.1,15.7c-4.3,2.4-10.5,5.5-15,7.3
			c0.6-2.4,1.5-4.8,2.3-5.3c1.6-1,12.9-5.6,21.9-10.2C1118.6,826.8,1123.7,823.5,1127.7,820.4z"/>
		<path class="st21" d="M1073,844.7c0,0-0.4,8.4-0.9,10.3c-0.6,1.8-3.5,3.5-9.8,4.7c-6.4,1.1-13.3-0.9-14.3-3.8
			c-0.7-2.2,2.6-9,5.1-12.5c0.8-1.1,1.6-2,2-2.1c1.5-0.6,8.1,1.8,13.7,3C1070.3,844.5,1071.8,844.7,1073,844.7z"/>
		<path class="st22" d="M1079.4,819.6c-2.8-3.5-7-3.8-9.2-0.8c-2.3,3.1-1.8,8.4,1,11.9s7,3.8,9.2,0.8
			C1082.7,828.4,1082.3,823.1,1079.4,819.6z"/>
		<path class="st23" d="M1079.4,830.7c-0.8,1-1.8,1.6-3,1.6c-1.5,0-3-0.9-4.3-2.4c-0.2-0.3-0.4-0.6-0.6-0.9c-1.9-3-2.1-7.1-0.4-9.4
			c0.8-1,1.8-1.6,3-1.6c0.1,0,0.2,0,0.3,0c1.4,0.1,2.8,0.9,4,2.3C1080.9,823.5,1081.3,828.2,1079.4,830.7z"/>
		<path class="st22" d="M1074.8,827.5c-0.8,1-1.8,1.6-3,1.6c-0.1,0-0.2,0-0.3,0c-1.9-3-2.1-7.1-0.4-9.4c0.8-1,1.8-1.6,3-1.6
			c0.1,0,0.2,0,0.3,0C1076.3,821.1,1076.5,825.2,1074.8,827.5z"/>
		<path class="st22" d="M1062.4,815.6c-2.2-2.4-5.4-2.8-7.2-0.8c-1.8,2-1.4,5.5,0.8,7.9c2.2,2.4,5.4,2.8,7.2,0.8
			C1065,821.6,1064.6,818.1,1062.4,815.6z"/>
		<path class="st23" d="M1062.3,822.7c-0.3,0.4-0.7,0.6-1.2,0.7c-1.3,0.3-2.9-0.3-4.1-1.6c-0.2-0.2-0.3-0.4-0.5-0.6
			c-1.3-1.9-1.5-4.3-0.3-5.6c0.3-0.4,0.7-0.6,1.2-0.7c0.6-0.2,1.2-0.1,1.8,0.1c0.8,0.2,1.6,0.7,2.2,1.5
			C1063.2,818.4,1063.6,821.3,1062.3,822.7z"/>
		<path class="st22" d="M1059.6,820.6c-0.3,0.4-0.7,0.6-1.2,0.7c-0.6,0.2-1.2,0.1-1.8-0.1c-1.3-1.9-1.5-4.3-0.3-5.6
			c0.3-0.4,0.7-0.6,1.2-0.7c0.6-0.2,1.2-0.1,1.8,0.1C1060.6,816.9,1060.7,819.3,1059.6,820.6z"/>
		<path class="st14" d="M732.9,638.4c1,3.7,6.5,0.4,7.8-3.4c1.3-3.7-1.7-4.1-2.9-6.2c-1.2-2-1.8-5.1-1.8-5.1
			S732.1,635.6,732.9,638.4z"/>
		<g>
			<g>
				<path class="st22" d="M1089.9,830.8l-0.1-0.9c10.8-0.8,35.2-17.9,37.3-20.5l0.7,0.5C1125.8,812.6,1100.9,830,1089.9,830.8z"/>
			</g>
			<g>
				<path class="st22" d="M1089,828.6l-0.1-0.9c10.7-1.1,35.8-18.4,38-21.1l0.7,0.5C1125.4,810,1099.9,827.5,1089,828.6z"/>
			</g>
			<g>
				<path class="st22" d="M1088.1,826.4l-0.1-0.8c10.5-1.5,36.6-19.1,38.7-21.6l0.7,0.5C1125.3,807.1,1099.1,824.9,1088.1,826.4z"/>
			</g>
			<g>
				<path class="st22" d="M1087.2,824.2l-0.1-0.8c10.4-1.8,37.2-19.5,39.5-22.2l0.7,0.5C1125.1,804.2,1098.3,822.2,1087.2,824.2z"/>
			</g>
			<g>
				<path class="st22" d="M1086.3,822l-0.2-0.8c10.5-2.2,38-20.2,40.2-22.8l0.7,0.5C1124.8,801.5,1097.3,819.7,1086.3,822z"/>
			</g>
			<g>
				<path class="st22" d="M1085.4,819.7l-0.2-0.8c10.9-2.7,38.8-20.9,40.9-23.4l0.7,0.5C1124.7,798.6,1096.5,817.1,1085.4,819.7z"/>
			</g>
			<g>
				<path class="st22" d="M1084.5,817.5l-0.2-0.8c11.1-3.1,39.7-21.6,41.6-24l0.7,0.5C1124.2,796.1,1095.1,814.6,1084.5,817.5z"/>
			</g>
		</g>
		<path class="st16" d="M1073,844.7c0,0-0.4,8.4-0.9,10.3c-0.6,1.8-3.5,3.5-9.8,4.7c-6.4,1.1-13.3-0.9-14.3-3.8
			c-0.7-2.2,2.6-9,5.1-12.5c0.1,0.2,0.1,0.5-0.2,1c-2.1,4.1-1.6,5.4,0,8.2s6.1,1.7,9.1,1.5s6.7-7.9,6.8-9.9c0,0,0,0,0.1,0
			C1070.3,844.5,1071.8,844.7,1073,844.7z"/>
		<g>
			<path class="st13" d="M890.7,654.2c-2,0-4.1-0.5-5.8-1.5l-19.4-11.2c-1.8-1-2.8-2.4-2.8-3.9c0-1.2,0.7-2.4,2.1-3.1l44.6-25.7
				c2.7-1.6,7.3-1.4,10.4,0.4l19.4,11.2c1.8,1,2.8,2.4,2.8,3.9c0,1.2-0.7,2.4-2.1,3.1l-44.6,25.7
				C894.1,653.8,892.4,654.2,890.7,654.2z M914,609.5c-1.4,0-2.7,0.3-3.7,0.8L865.7,636c-0.6,0.3-1.2,0.9-1.2,1.6
				c0,0.8,0.7,1.7,1.9,2.4l19.4,11.2c2.5,1.5,6.5,1.6,8.7,0.4l44.6-25.7c0.6-0.3,1.2-0.9,1.2-1.6c0-0.8-0.7-1.7-1.9-2.4L919,610.7
				C917.6,609.9,915.8,609.5,914,609.5z"/>
		</g>
	</g>
	<polygon class="st26" points="167.3,615.5 3,522.5 275.6,357 570.6,221.6 580.2,725.7 	"/>
	<polygon class="st27" points="254.2,203.7 580.2,15.5 132.5,225.2 135.8,230.8 	"/>
	<polygon class="st28" points="906.3,204.9 580.2,16.6 1027.9,225.2 1027.9,232.7 	"/>
	<polygon class="st29" points="580.2,725.7 254.2,537.5 254.2,197.3 580.2,385.6 	"/>
	<polygon class="st18" points="254.2,197.3 254.2,537.5 580.2,725.7 263.7,532.2 	"/>
	<polygon class="st30" points="391.2,617.7 391.2,276.4 442.9,306.3 442.9,650.5 	"/>
	<polygon class="st31" points="386.8,615.6 386.8,274.4 438.5,304.2 438.5,648.5 	"/>
	<g>
		<g>
			<path class="st32" d="M352.3,386.8L276.6,343V231.6l75.7,43.8V386.8z M283.6,339l61.8,35.7v-95.4l-61.8-35.7V339z"/>
		</g>
		<g>
			<g>
				<polygon class="st32" points="300,332.4 325.8,347.3 325.8,316.8 300,301.9 				"/>
			</g>
			<polygon class="st32" points="287.5,294.9 338.3,324.2 312.9,271 			"/>
		</g>
	</g>
	<polygon class="st33" points="254.2,197.3 580.2,9.1 458.6,36.9 132.5,225.2 	"/>
	<polygon class="st33" points="906.3,197.3 580.2,9.1 701.9,36.9 1027.9,225.2 	"/>
	<polygon class="st0" points="580.2,385.6 254.2,197.3 580.2,9.1 906.3,197.3 	"/>
	<polygon class="st34" points="878.4,197.3 602.7,356.5 580.2,369.5 557.7,356.5 282,197.3 580.2,25.2 	"/>
	<polygon class="st35" points="504.2,535.8 178.1,347.5 175.2,341.1 580.2,385.6 580.2,396.4 	"/>
	<polygon class="st33" points="501.2,529.3 175.2,341.1 254.2,197.3 580.2,385.6 	"/>
	<polygon class="st27" points="501.2,529.3 175.2,341.1 178.1,347.5 504.2,535.8 	"/>
	<polygon class="st31" points="580.2,25.1 580.2,369.5 282,197.3 	"/>
	<polygon class="st0" points="602.7,356.5 580.2,369.5 557.7,356.5 580.2,343.5 	"/>
	<path class="st36" d="M580.2,25.1c0.3,0.2,0,318.4,0,318.4l326,188.1V204.8L580.2,25.1z"/>
</g>
<g>
	<polygon class="st29" points="560.4,683.8 459.3,625.4 459.3,540.9 558.5,593.9 560.4,599.3 	"/>
	<polygon class="st37" points="556.5,595.5 455.4,537.1 457.4,535.5 558.5,593.9 	"/>
	<polygon class="st38" points="556.5,680 556.5,595.5 558.5,593.9 558.5,678.4 	"/>
	<polygon class="st39" points="556.5,680 455.4,621.6 455.4,537.1 556.5,595.5 	"/>
	<g>
		<path class="st40" d="M483.9,585.8c0-0.4,0.2-0.6,0.5-0.4l4.7,3.1c1.5,1,3,2.9,3,5.4c0,0.9-0.2,1.4-0.8,1.7
			c0.8,1.1,1.1,2.4,1.1,3.5c0,2.4-1.5,2.6-3.1,1.6l-5-3.3c-0.3-0.2-0.5-0.7-0.5-1.1L483.9,585.8L483.9,585.8z M486.1,588.7v2.4
			l3.1,2c0.5,0.3,0.8,0.1,0.8-0.7s-0.3-1.4-0.8-1.7L486.1,588.7z M486.1,593.3v2.9l3.3,2.2c0.6,0.4,0.9,0,0.9-0.8
			c0-0.9-0.3-1.6-0.9-2L486.1,593.3z"/>
		<path class="st40" d="M502.8,609.4c-0.3-0.2-0.5-0.7-0.5-1.1v-10.4c0-0.4,0.2-0.6,0.5-0.4l1.7,1.1c0.3,0.2,0.6,0.8,0.8,1.3
			l3.5,10.1v-7.8c0-0.4,0.2-0.6,0.5-0.4l1,0.7c0.3,0.2,0.5,0.7,0.5,1.1V614c0,0.4-0.2,0.6-0.5,0.4l-1.9-1.3
			c-0.3-0.2-0.7-0.8-0.8-1.3l-3.2-9.3v7.2c0,0.4-0.3,0.6-0.5,0.4L502.8,609.4z"/>
		<path class="st40" d="M515.7,605.7l1.3,0.8c1.6,1.1,3.3,3.4,3.3,5.9c0,0.8-0.4,0.6-0.6,0.5l-0.7-0.5c-0.3-0.2-0.6-0.6-0.8-1.5
			c-0.3-1-0.7-1.8-1.4-2.2l-1-0.7c-1.7-1.1-2.2-0.5-2.2,2.3s0.5,4,2.2,5.1l1.2,0.8c0.7,0.5,1.2,0.2,1.4-0.4c0.2-0.6,0.5-0.6,0.8-0.4
			l0.7,0.5c0.2,0.1,0.6,0.5,0.6,1.3c0,2.4-1.7,2.5-3.3,1.5l-1.4-0.9c-2.8-1.9-4.3-4.7-4.3-8.9C511.4,604.8,512.8,603.9,515.7,605.7"
			/>
		<path class="st40" d="M525.1,611.9c2.9,1.9,4.5,4.7,4.5,8.9c0,4.3-1.6,4.9-4.5,3.1c-2.9-1.9-4.5-4.7-4.5-8.9
			C520.6,610.7,522.3,610,525.1,611.9 M522.7,616.3c0,2.5,0.7,4.3,2.4,5.4c1.7,1.1,2.4,0.2,2.4-2.3s-0.7-4.3-2.4-5.4
			C523.4,613,522.7,613.9,522.7,616.3"/>
		<path class="st40" d="M484.4,611.6c-0.3-0.2-0.5-0.7-0.5-1.1V600c0-0.4,0.2-0.6,0.5-0.4l1.7,1.1c0.3,0.2,0.6,0.8,0.8,1.3l3.5,10.1
			v-7.8c0-0.4,0.3-0.6,0.5-0.4l1,0.7c0.3,0.2,0.5,0.7,0.5,1.1v10.4c0,0.4-0.2,0.6-0.5,0.4l-1.9-1.3c-0.3-0.2-0.7-0.8-0.8-1.3
			l-3.2-9.3v7.2c0,0.4-0.3,0.6-0.5,0.4L484.4,611.6z"/>
		<path class="st40" d="M506.5,614l1.3,0.8c1.6,1,3.3,3.4,3.3,5.8c0,0.8-0.4,0.6-0.6,0.5l-0.7-0.4c-0.3-0.2-0.6-0.6-0.8-1.5
			c-0.3-1-0.7-1.8-1.4-2.2l-1-0.7c-1.7-1.1-2.2-0.5-2.2,2.2c0,2.8,0.5,4,2.2,5.1l1.1,0.7c0.7,0.5,1.2,0.2,1.4-0.4
			c0.2-0.5,0.5-0.6,0.8-0.4l0.7,0.4c0.2,0.1,0.6,0.5,0.6,1.3c0,2.4-1.7,2.5-3.3,1.5l-1.4-0.9c-2.8-1.8-4.3-4.7-4.3-8.8
			C502.2,613.1,503.7,612.1,506.5,614"/>
		<path class="st40" d="M511.7,618.2c0-0.4,0.3-0.6,0.5-0.4l1.1,0.7c0.3,0.2,0.6,0.7,0.6,1.2v10.4c0,0.4-0.3,0.6-0.6,0.4l-1.1-0.7
			c-0.3-0.2-0.5-0.7-0.5-1.1V618.2z"/>
		<path class="st40" d="M518.9,622c2.9,1.9,4.5,4.7,4.5,9s-1.6,5-4.5,3.1s-4.5-4.7-4.5-9S516.1,620.1,518.9,622 M516.5,626.5
			c0,2.5,0.7,4.3,2.4,5.4c1.7,1.1,2.4,0.2,2.4-2.3s-0.7-4.3-2.4-5.4S516.5,624,516.5,626.5"/>
		<path class="st40" d="M524.8,638c-0.3-0.2-0.5-0.7-0.5-1.1v-10.4c0-0.4,0.2-0.6,0.5-0.4l1.7,1.1c0.3,0.2,0.6,0.8,0.8,1.3l3.5,10.1
			v-7.8c0-0.4,0.3-0.6,0.5-0.4l1,0.7c0.3,0.2,0.5,0.7,0.5,1.1v10.4c0,0.4-0.2,0.6-0.5,0.4l-1.9-1.3c-0.3-0.2-0.7-0.8-0.8-1.3
			l-3.2-9.3v7.2c0,0.4-0.3,0.6-0.5,0.4L524.8,638z"/>
		<path class="st40" d="M544.8,639c0.3,0.2,0.5,0.7,0.5,1.2v8.8l5.1,3.3c0.3,0.2,0.5,0.7,0.5,1.1v0.8c0,0.4-0.3,0.6-0.5,0.4
			l-6.7-4.4c-0.3-0.2-0.5-0.7-0.5-1.1v-10.4c0-0.4,0.2-0.6,0.5-0.4L544.8,639z"/>
		<path class="st40" d="M501.9,608l-1.3-8.9c-0.4-2.9-1.9-4.5-3.4-5.5l0,0l0,0l0,0l0,0c-1.5-1-3-1.4-3.5,1l-1.3,7.2
			c-0.1,0.4,0.1,0.8,0.4,1l1,0.7c0.3,0.2,0.5,0,0.6-0.4l0.3-1.9l1.8,1.2l0.3,0.2l2.8,1.8l0.3,2.3c0.1,0.5,0.3,1,0.6,1.2l1,0.7
			C501.8,608.8,502,608.5,501.9,608 M497.4,600.4l-0.2-0.1l-2.1-1.4l0.5-2.3c0.2-0.9,0.8-1.1,1.5-0.7l0,0l0,0l0,0l0,0
			c0.7,0.5,1.3,1.5,1.5,2.6l0.5,3L497.4,600.4z"/>
		<path class="st40" d="M502.3,622.4l-1.3-8.7c-0.4-2.9-1.9-4.5-3.4-5.4l0,0l0,0l0,0l0,0c-1.5-1-3-1.3-3.4,1l-1.3,7.1
			c-0.1,0.4,0.1,0.8,0.4,1l1,0.7c0.3,0.2,0.5,0,0.6-0.4l0.3-1.9l1.7,1.1l0.3,0.2l2.7,1.8l0.3,2.3c0.1,0.5,0.3,1,0.6,1.2l1,0.7
			C502.2,623.1,502.3,622.9,502.3,622.4 M497.8,614.9l-0.2-0.1l-2.1-1.4l0.5-2.3c0.2-0.9,0.8-1.1,1.5-0.7l0,0l0,0l0,0l0,0
			c0.7,0.5,1.3,1.5,1.5,2.6l0.5,3L497.8,614.9z"/>
		<path class="st40" d="M542.7,648.8l-1.3-8.7c-0.4-2.9-1.9-4.5-3.4-5.4l0,0l0,0l0,0l0,0c-1.5-1-3-1.3-3.4,1l-1.3,7.1
			c-0.1,0.4,0.1,0.8,0.4,1l1,0.7c0.3,0.2,0.5,0,0.6-0.4l0.3-1.9l1.7,1.1l0.3,0.2l2.7,1.8l0.3,2.3c0.1,0.5,0.3,1,0.6,1.2l1,0.7
			C542.6,649.5,542.8,649.3,542.7,648.8 M538.2,641.3l-0.2-0.1l-2.1-1.4l0.5-2.3c0.2-0.9,0.8-1.1,1.5-0.7l0,0l0,0l0,0l0,0
			c0.7,0.5,1.3,1.5,1.5,2.6l0.5,3L538.2,641.3z"/>
		<path class="st41" d="M476.2,567.8c-0.1,0-0.1-0.1-0.2-0.1l-5.6-0.7l0,0c-0.2,0-0.3,0.1-0.3,0.3s-3.9,16.1-6.7,20.7
			c-0.1,0.1-0.1,0.2-0.1,0.3c0,0.2,0.1,0.5,0.2,0.7l0,0l1.8,3l0,0c0.1,0.1,0.2,0.2,0.2,0.3c0.2,0.1,0.4,0,0.4-0.3l0,0l5.8-22.5
			c0.1-0.3,0.2-0.4,0.4-0.3l1.7,0.3c0.2,0.2,0.4,0.6,0.4,0.9c0,0-0.8,5.9-1.7,14.8c-0.9,8.9-2.9,13.9-2.9,13.9l0,0
			c0,0.1-0.1,0.2-0.1,0.3c0,0.2,0.1,0.5,0.2,0.6l0,0l3.6,6.3l0,0c0.1,0.1,0.2,0.2,0.3,0.3c0.2,0.2,0.4,0,0.4-0.3l2.5-37.6v-0.1
			C476.6,568.3,476.4,567.9,476.2,567.8"/>
		<path class="st41" d="M481.7,619.4L481.7,619.4c0,0-1.5-9-1.3-16.5v-21.4v-0.1c0,0-0.6-3.8-0.7-4.5c0-0.3-0.2-0.7-0.4-0.9l0,0l0,0
			l-0.5-0.2l0,0c-0.2-0.2-0.4,0-0.4,0.3l-1.4,36c0,0,0,0.1,0,0.2c0,0.2,0.1,0.5,0.2,0.7l0,0l3.9,6.6c0.1,0.2,0.2,0.3,0.3,0.4
			c0.2,0.2,0.4,0,0.4-0.3C481.8,619.6,481.8,619.5,481.7,619.4"/>
	</g>
</g>
</svg>
