<?xml version="1.0" encoding="UTF-8"?>
<svg id="Layer_1" xmlns="http://www.w3.org/2000/svg" version="1.1" viewBox="0 0 217.77 39.61">
  <!-- Generator: Adobe Illustrator 29.5.1, SVG Export Plug-In . SVG Version: 2.1.0 Build 141)  -->
  <defs>
    <style>
      .st0 {
        fill: #133d8d;
      }

      .st1 {
        fill: #b0bc22;
      }
    </style>
  </defs>
  <g>
    <g>
      <path class="st0" d="M30.5,12.6h10.91c2.68,0,4.56.67,5.81,1.92.85.85,1.37,1.98,1.37,3.44v.06c0,2.46-1.4,3.92-3.28,4.74,2.58.85,4.23,2.31,4.23,5.2v.06c0,3.65-2.98,5.87-8.06,5.87h-10.97V12.6ZM39.96,21.08c1.79,0,2.8-.61,2.8-1.85v-.06c0-1.16-.91-1.82-2.68-1.82h-3.83v3.74h3.71ZM40.81,29.14c1.79,0,2.83-.7,2.83-1.95v-.06c0-1.16-.91-1.92-2.89-1.92h-4.5v3.92h4.56Z"/>
      <path class="st0" d="M51.02,12.6h5.5l8.75,11.25v-11.25h5.84v21.28h-5.17l-9.09-11.67v11.67h-5.84V12.6Z"/>
    </g>
    <polygon class="st1" points="6.52 33.88 15.68 8.28 25.48 5.42 20.85 33.88 15.2 33.88 21.14 9.54 17.25 10.67 9.92 33.88 6.52 33.88"/>
    <polygon class="st1" points="25.99 12.08 23.51 33.88 27.87 33.88 28.11 15.56 25.99 12.08"/>
  </g>
  <g>
    <path class="st0" d="M85.2,17.06c-.26,0-.52.02-.76.07-.25.05-.47.12-.66.22-.19.1-.35.23-.46.38-.12.15-.17.33-.17.54,0,.32.08.58.24.76.16.18.41.34.73.48.33.14.74.27,1.23.41.49.14,1.06.32,1.72.54.84.28,1.6.63,2.29,1.04.69.41,1.28.89,1.77,1.44.49.55.87,1.17,1.14,1.85.27.69.41,1.45.41,2.3,0,1.05-.22,2.01-.67,2.88-.44.87-1.04,1.62-1.78,2.25-.74.63-1.6,1.11-2.56,1.46-.97.35-1.97.52-3.01.52-.89,0-1.73-.13-2.53-.39-.8-.26-1.54-.63-2.21-1.1-.67-.47-1.26-1.03-1.76-1.68-.5-.65-.9-1.36-1.18-2.12l1.57-.91c.25-.14.52-.25.81-.34.29-.09.58-.13.87-.13.43,0,.82.09,1.17.27.35.18.69.38,1.02.59.33.21.68.41,1.03.59.35.18.76.27,1.21.27.3,0,.63-.05.99-.14s.69-.23,1-.42c.31-.18.56-.41.76-.67.2-.27.3-.58.3-.93,0-.33-.09-.61-.28-.82-.19-.21-.44-.4-.76-.55-.32-.16-.68-.3-1.1-.43-.41-.13-.85-.29-1.3-.47-.75-.28-1.48-.59-2.21-.92s-1.38-.74-1.95-1.23c-.58-.49-1.04-1.08-1.4-1.78-.36-.7-.54-1.57-.54-2.61,0-.98.2-1.85.6-2.61s.92-1.4,1.58-1.93c.66-.52,1.4-.93,2.25-1.2s1.71-.42,2.59-.42c.65,0,1.27.11,1.88.32.61.22,1.19.5,1.73.85.54.35,1.05.74,1.53,1.19.47.44.9.9,1.29,1.36l-1.53,1.28c-.3.26-.62.45-.95.56-.33.11-.69.17-1.1.17-.32,0-.6-.04-.85-.12s-.47-.17-.68-.27c-.21-.1-.42-.18-.64-.27-.21-.08-.44-.12-.7-.12Z"/>
    <path class="st0" d="M109.33,33.99h-14.43V12.31h14.43v4.63h-9.48v3.8h7.71v4.63h-7.71v3.99h9.48v4.63Z"/>
    <path class="st0" d="M130.31,21.83v9.42c-.58.59-1.19,1.08-1.85,1.46s-1.35.68-2.06.89-1.45.37-2.2.45c-.75.09-1.51.13-2.28.13-1.02,0-2-.13-2.95-.39s-1.83-.63-2.65-1.11c-.82-.48-1.57-1.05-2.25-1.72s-1.26-1.41-1.74-2.23-.85-1.7-1.12-2.64c-.27-.94-.4-1.92-.4-2.94s.13-2,.4-2.94c.27-.94.64-1.82,1.12-2.64s1.06-1.56,1.74-2.23,1.43-1.25,2.25-1.72c.82-.48,1.71-.85,2.65-1.11.95-.26,1.93-.39,2.95-.39.81,0,1.61.1,2.4.3.8.2,1.57.49,2.32.85s1.48.82,2.18,1.35c.7.53,1.36,1.13,1.97,1.8l-1.26,1.3c-.63.65-1.42.98-2.37.98-.68,0-1.29-.19-1.83-.56-.5-.33-1.04-.6-1.61-.79-.57-.2-1.17-.3-1.81-.3-.84,0-1.63.16-2.37.48-.75.32-1.4.76-1.96,1.31-.56.55-1.01,1.19-1.34,1.94-.33.74-.5,1.53-.5,2.37s.17,1.69.52,2.43c.35.75.81,1.39,1.39,1.93.58.54,1.25.96,2.01,1.27.76.31,1.56.46,2.4.46.58,0,1.15-.06,1.72-.17.58-.11,1.09-.28,1.56-.5v-2.09c-.48-.01-.93-.09-1.33-.24-.4-.15-.75-.35-1.04-.61-.29-.26-.51-.56-.67-.91-.16-.35-.24-.73-.24-1.16v-1.74h8.24Z"/>
    <path class="st0" d="M138.19,25.26c0,.54.11,1.06.33,1.54.22.48.52.91.89,1.27s.8.65,1.29.86c.49.21,1.01.32,1.55.32s1.06-.11,1.55-.32c.49-.21.92-.5,1.3-.86.38-.36.68-.79.9-1.27.22-.48.33-1,.33-1.54v-12.95h4.94v12.95c0,1.24-.24,2.4-.71,3.49-.48,1.08-1.12,2.03-1.94,2.84s-1.77,1.44-2.87,1.91c-1.09.47-2.27.7-3.52.7-.83,0-1.62-.11-2.39-.32-.77-.21-1.48-.51-2.15-.9-.67-.39-1.28-.85-1.83-1.4s-1.03-1.15-1.42-1.81c-.39-.66-.7-1.37-.91-2.13s-.33-1.56-.33-2.38v-12.95h4.96v12.95Z"/>
    <path class="st0" d="M159.83,33.99h-4.94V12.31h8.5c.82,0,1.57.11,2.26.32.69.21,1.32.5,1.88.85.56.36,1.05.78,1.48,1.27.43.49.79,1.01,1.07,1.57.29.56.5,1.14.65,1.73.15.6.22,1.18.22,1.77s-.06,1.15-.19,1.72c-.13.57-.32,1.13-.6,1.67-.27.54-.62,1.07-1.06,1.57s-.96.97-1.57,1.4l5.78,7.8h-4.22c-.09,0-.24-.01-.46-.04-.22-.03-.46-.1-.73-.21-.27-.11-.56-.28-.86-.5-.3-.22-.59-.53-.86-.92l-3.63-4.91h-2.71v6.59ZM163.64,22.42c.3,0,.59-.08.88-.23.28-.15.53-.35.75-.59.22-.24.39-.52.52-.82.13-.31.2-.62.2-.93s-.07-.62-.2-.93c-.13-.31-.31-.58-.52-.82-.22-.24-.47-.44-.75-.59-.28-.15-.58-.23-.88-.23h-3.81v5.14h3.81Z"/>
    <path class="st0" d="M172.53,23.14c0-1.02.13-2,.4-2.94.27-.94.64-1.82,1.13-2.64s1.06-1.56,1.74-2.23c.68-.67,1.43-1.25,2.25-1.72.83-.48,1.71-.85,2.66-1.11.95-.26,1.93-.39,2.95-.39s2,.13,2.95.39c.95.26,1.83.63,2.66,1.11.83.48,1.58,1.05,2.25,1.72.67.67,1.26,1.41,1.74,2.23.48.82.86,1.7,1.13,2.64s.4,1.92.4,2.94-.13,2-.4,2.94c-.27.94-.64,1.82-1.13,2.64-.48.82-1.06,1.56-1.74,2.23-.68.67-1.43,1.25-2.25,1.72-.83.48-1.71.85-2.66,1.11-.95.26-1.93.39-2.95.39s-2.01-.13-2.96-.39-1.83-.63-2.65-1.11c-.83-.48-1.58-1.05-2.25-1.72-.67-.67-1.25-1.41-1.74-2.23s-.86-1.7-1.13-2.64c-.27-.94-.4-1.92-.4-2.94ZM177.47,23.14c0,.84.17,1.63.5,2.37.33.74.78,1.39,1.35,1.94s1.22.99,1.97,1.31c.75.32,1.54.48,2.37.48s1.61-.16,2.37-.48c.75-.32,1.41-.75,1.97-1.31.56-.55,1.01-1.2,1.35-1.94.33-.74.5-1.53.5-2.37s-.17-1.63-.5-2.37c-.33-.74-.78-1.39-1.35-1.94-.56-.55-1.22-.98-1.97-1.31-.75-.32-1.54-.48-2.37-.48s-1.63.16-2.37.48c-.75.32-1.4.76-1.97,1.31s-1.01,1.19-1.35,1.94c-.33.74-.5,1.53-.5,2.37Z"/>
    <path class="st0" d="M203.79,17.06c-.26,0-.52.02-.76.07-.25.05-.47.12-.66.22-.19.1-.34.23-.46.38-.12.15-.17.33-.17.54,0,.32.08.58.24.76.16.18.41.34.73.48.33.14.74.27,1.23.41.49.14,1.06.32,1.72.54.84.28,1.6.63,2.29,1.04.69.41,1.28.89,1.77,1.44.49.55.87,1.17,1.14,1.85.27.69.41,1.45.41,2.3,0,1.05-.22,2.01-.66,2.88-.44.87-1.04,1.62-1.78,2.25-.74.63-1.59,1.11-2.56,1.46-.97.35-1.97.52-3.01.52-.89,0-1.73-.13-2.53-.39-.8-.26-1.54-.63-2.21-1.1-.67-.47-1.26-1.03-1.76-1.68s-.9-1.36-1.18-2.12l1.57-.91c.25-.14.52-.25.81-.34.29-.09.58-.13.87-.13.43,0,.82.09,1.17.27.35.18.69.38,1.02.59.33.21.68.41,1.03.59.35.18.76.27,1.21.27.3,0,.63-.05.99-.14s.69-.23,1-.42c.31-.18.56-.41.76-.67.2-.27.3-.58.3-.93,0-.33-.09-.61-.28-.82-.19-.21-.44-.4-.76-.55-.32-.16-.68-.3-1.1-.43-.41-.13-.85-.29-1.3-.47-.75-.28-1.48-.59-2.21-.92-.73-.33-1.38-.74-1.95-1.23-.57-.49-1.04-1.08-1.4-1.78-.36-.7-.54-1.57-.54-2.61,0-.98.2-1.85.6-2.61.4-.76.92-1.4,1.58-1.93.65-.52,1.4-.93,2.25-1.2.84-.28,1.71-.42,2.59-.42.64,0,1.27.11,1.88.32.61.22,1.19.5,1.73.85.54.35,1.05.74,1.53,1.19s.9.9,1.29,1.36l-1.53,1.28c-.3.26-.62.45-.95.56-.33.11-.69.17-1.1.17-.32,0-.61-.04-.85-.12-.24-.08-.47-.17-.68-.27-.21-.1-.42-.18-.64-.27-.21-.08-.44-.12-.7-.12Z"/>
  </g>
</svg>