<?xml version="1.0" encoding="UTF-8"?>
<svg id="Layer_1" xmlns="http://www.w3.org/2000/svg" version="1.1" viewBox="0 0 209.64 34.48">
  <!-- Generator: Adobe Illustrator 29.5.1, SVG Export Plug-In . SVG Version: 2.1.0 Build 141)  -->
  <defs>
    <style>
      .st0 {
        fill: #133d8d;
      }

      .st1 {
        fill: #b0bc22;
      }
    </style>
  </defs>
  <g>
    <g>
      <path class="st0" d="M28.39,9.99h10.99c2.7,0,4.59.67,5.85,1.93.86.86,1.38,1.99,1.38,3.46v.06c0,2.48-1.41,3.95-3.31,4.78,2.6.86,4.26,2.33,4.26,5.24v.06c0,3.68-3,5.91-8.12,5.91h-11.06V9.99ZM37.91,18.53c1.81,0,2.82-.61,2.82-1.87v-.06c0-1.16-.92-1.84-2.7-1.84h-3.86v3.77h3.74ZM38.77,26.65c1.81,0,2.85-.7,2.85-1.96v-.06c0-1.16-.92-1.93-2.91-1.93h-4.53v3.95h4.59Z"/>
      <path class="st0" d="M49.06,9.99h5.54l8.82,11.33v-11.33h5.88v21.44h-5.21l-9.16-11.76v11.76h-5.88V9.99Z"/>
    </g>
    <polygon class="st1" points="4.22 31.42 13.46 5.63 23.33 2.75 18.67 31.42 12.98 31.42 18.96 6.91 15.04 8.04 7.65 31.42 4.22 31.42"/>
    <polygon class="st1" points="23.84 9.46 21.34 31.42 25.73 31.42 25.98 12.97 23.84 9.46"/>
  </g>
  <g>
    <path class="st0" d="M91.17,11.63c.13-.3.3-.58.52-.82.21-.24.45-.44.72-.61.26-.17.55-.29.86-.38.31-.09.63-.13.97-.13h3.23l-9.54,21.83h-4.3l-9.54-21.83h3.21c.31,0,.63.05.94.14.31.1.61.23.88.41.27.18.52.38.74.62.22.23.39.49.51.76l4.97,11.41c.07.16.13.34.18.54s.09.38.13.56c.04.2.08.41.11.61,0-.19.04-.39.08-.58.03-.17.07-.36.12-.55.05-.19.12-.38.2-.55l5.01-11.44Z"/>
    <path class="st0" d="M102.53,9.7h4.3l9.54,21.83h-3.21c-.34,0-.66-.04-.97-.13-.31-.09-.6-.21-.86-.38-.26-.17-.5-.37-.72-.61-.21-.24-.39-.51-.52-.82l-1.07-2.42h-8.68l-1.04,2.42c-.12.27-.29.53-.51.76-.22.23-.46.44-.74.62-.27.18-.57.31-.88.41-.31.1-.63.14-.94.14h-3.23l9.54-21.83ZM102.33,22.65h4.66l-1.9-4.57c-.09-.21-.16-.41-.21-.59-.05-.18-.09-.35-.12-.49-.04-.16-.07-.31-.08-.46-.02.14-.05.3-.09.47-.03.14-.07.3-.13.49-.06.18-.12.38-.21.58l-1.92,4.57Z"/>
    <path class="st0" d="M116.96,31.53V9.7h4.98v17.17h8.62v4.66h-13.61Z"/>
    <path class="st0" d="M129.15,20.61c0-1.03.13-2.01.4-2.96.27-.95.65-1.84,1.13-2.66.49-.82,1.07-1.57,1.75-2.25.68-.68,1.44-1.25,2.27-1.74.83-.48,1.73-.86,2.68-1.12.95-.26,1.94-.4,2.97-.4s2.02.13,2.97.4c.95.26,1.85.64,2.68,1.12.83.48,1.59,1.06,2.27,1.74.68.68,1.26,1.42,1.75,2.25.49.82.87,1.71,1.13,2.66s.4,1.94.4,2.96-.13,2.01-.4,2.96c-.27.95-.65,1.84-1.13,2.66-.49.82-1.07,1.57-1.75,2.25-.68.68-1.44,1.25-2.27,1.74-.83.48-1.73.86-2.68,1.12s-1.94.4-2.97.4-2.03-.13-2.98-.4-1.84-.64-2.67-1.12c-.83-.48-1.59-1.06-2.27-1.74-.68-.68-1.26-1.42-1.75-2.25-.49-.82-.87-1.71-1.13-2.66-.27-.95-.4-1.94-.4-2.96ZM134.13,20.61c0,.84.17,1.64.5,2.38s.79,1.4,1.36,1.96c.57.56,1.23,1,1.98,1.32.75.32,1.55.48,2.39.48s1.63-.16,2.38-.48c.76-.32,1.42-.76,1.99-1.32.57-.56,1.02-1.21,1.36-1.96s.5-1.54.5-2.38-.17-1.64-.5-2.38-.79-1.4-1.36-1.95c-.57-.55-1.23-.99-1.99-1.32-.76-.32-1.55-.49-2.38-.49s-1.64.16-2.39.49c-.75.33-1.41.76-1.98,1.32-.57.55-1.02,1.2-1.36,1.95s-.5,1.54-.5,2.38Z"/>
    <path class="st0" d="M159.37,31.53h-4.98V9.7h8.56c.82,0,1.58.11,2.28.32.7.21,1.33.5,1.89.86.56.36,1.06.79,1.49,1.28.43.49.79,1.02,1.08,1.58.29.56.51,1.15.66,1.74.15.6.22,1.19.22,1.78s-.06,1.16-.19,1.73c-.13.57-.33,1.14-.6,1.68-.27.55-.63,1.07-1.07,1.58-.44.5-.96.97-1.58,1.41l5.82,7.86h-4.25c-.09,0-.25-.02-.46-.05s-.46-.1-.74-.21c-.27-.11-.56-.28-.87-.5-.3-.22-.59-.53-.87-.93l-3.66-4.95h-2.73v6.64ZM163.21,19.87c.3,0,.6-.08.88-.23.28-.15.54-.35.75-.59s.39-.52.53-.83c.13-.31.2-.62.2-.94s-.07-.63-.2-.94c-.13-.31-.31-.59-.53-.83-.22-.24-.47-.44-.75-.59-.28-.15-.58-.23-.88-.23h-3.84v5.18h3.84Z"/>
    <path class="st0" d="M188.63,31.53h-14.53V9.7h14.53v4.66h-9.55v3.82h7.77v4.66h-7.77v4.02h9.55v4.66Z"/>
    <path class="st0" d="M197.89,14.48c-.26,0-.52.02-.77.07-.25.05-.47.12-.66.22-.19.1-.35.23-.46.38-.12.15-.18.34-.18.55,0,.33.08.58.24.76.16.18.41.34.74.48s.74.27,1.23.41c.49.14,1.07.32,1.73.54.84.28,1.61.63,2.31,1.04.7.41,1.29.89,1.78,1.45.49.55.88,1.18,1.15,1.87.27.69.41,1.46.41,2.32,0,1.06-.22,2.02-.67,2.9-.45.88-1.04,1.63-1.79,2.26-.75.63-1.61,1.12-2.58,1.47-.98.35-1.99.53-3.03.53-.89,0-1.74-.13-2.55-.4s-1.55-.63-2.22-1.1c-.68-.47-1.27-1.04-1.77-1.69-.51-.66-.9-1.37-1.19-2.14l1.58-.91c.25-.14.53-.26.82-.34.29-.09.58-.13.88-.13.44,0,.83.09,1.18.27.35.18.69.38,1.03.59.34.21.68.41,1.04.59.36.18.76.27,1.22.27.3,0,.64-.05,1-.14.36-.1.7-.24,1.01-.42.31-.18.57-.41.77-.68.2-.27.3-.58.3-.94,0-.34-.09-.61-.28-.82-.19-.21-.44-.4-.76-.56-.32-.16-.69-.3-1.1-.43-.42-.13-.85-.29-1.31-.47-.75-.28-1.49-.59-2.22-.93s-1.39-.75-1.97-1.24c-.58-.49-1.05-1.09-1.41-1.8-.36-.71-.54-1.58-.54-2.63,0-.99.2-1.86.6-2.63.4-.77.93-1.41,1.59-1.94.66-.53,1.41-.93,2.26-1.21.85-.28,1.72-.42,2.61-.42.65,0,1.28.11,1.9.33.61.22,1.2.5,1.74.85.55.35,1.06.75,1.54,1.2.48.45.91.9,1.29,1.37l-1.54,1.3c-.3.26-.62.45-.95.56-.33.11-.7.17-1.1.17-.33,0-.61-.04-.85-.12-.24-.08-.47-.17-.69-.27-.21-.1-.43-.19-.64-.27-.21-.08-.45-.12-.7-.12Z"/>
  </g>
</svg>