<?xml version="1.0" encoding="UTF-8"?>
<svg id="Layer_1" xmlns="http://www.w3.org/2000/svg" version="1.1" viewBox="0 0 165.93 49.34">
  <!-- Generator: Adobe Illustrator 29.5.1, SVG Export Plug-In . SVG Version: 2.1.0 Build 141)  -->
  <defs>
    <style>
      .st0 {
        fill: none;
      }

      .st1 {
        fill: #133d8d;
      }

      .st2 {
        fill: #b0bc22;
      }
    </style>
  </defs>
  <g>
    <circle class="st0" cx="39.56" cy="9.01" r="4.42"/>
    <circle class="st0" cx="4.42" cy="19.95" r="4.42"/>
    <circle class="st0" cx="102.63" cy="44.77" r="4.42"/>
    <circle class="st0" cx="102.63" cy="4.42" r="4.42"/>
    <circle class="st0" cx="161.51" cy="35.57" r="4.42"/>
  </g>
  <g>
    <g>
      <path class="st2" d="M64.25,10.18c.09-.21.21-.39.35-.56.15-.16.31-.3.49-.42.18-.11.38-.2.59-.26.21-.06.43-.09.66-.09h2.2l-6.5,14.88h-2.93l-6.5-14.88h2.19c.21,0,.43.03.64.1.21.07.42.16.6.28.19.12.35.26.5.42.15.16.26.33.35.52l3.39,7.78c.05.11.09.23.12.37.03.14.06.26.09.38.03.14.05.28.07.42,0-.13.02-.26.05-.39.02-.12.05-.24.08-.37.03-.13.08-.26.14-.37l3.42-7.8Z"/>
      <path class="st2" d="M79.02,23.74h-9.91v-14.88h9.91v3.18h-6.51v2.61h5.3v3.18h-5.3v2.74h6.51v3.18Z"/>
      <path class="st2" d="M94.78,23.74h-3.37l-7.11-10.29v10.29h-3.39v-14.88h3.34c.33,0,.63.05.88.15s.45.25.59.45l5.2,7.62c.08.11.14.23.2.36.06.13.1.25.15.37.04.11.07.21.09.3.02.08.03.13.03.16v-9.4h3.39v14.88Z"/>
      <path class="st2" d="M96.04,12.02v-3.18h11.67v3.18h-4.13v11.71h-3.4v-11.71h-4.14Z"/>
      <path class="st2" d="M111.72,8.86h2.93l6.5,14.88h-2.19c-.23,0-.45-.03-.66-.09-.21-.06-.41-.15-.59-.26-.18-.11-.34-.25-.49-.42-.15-.16-.26-.35-.35-.56l-.73-1.65h-5.92l-.71,1.65c-.08.19-.2.36-.35.52s-.32.3-.5.42c-.19.12-.39.21-.6.28-.21.07-.43.1-.64.1h-2.2l6.5-14.88ZM111.59,17.68h3.18l-1.3-3.12c-.06-.15-.11-.28-.15-.4-.03-.12-.06-.24-.08-.33-.03-.11-.05-.21-.05-.31-.01.1-.03.2-.06.32-.02.1-.05.21-.09.33s-.08.26-.14.39l-1.31,3.12Z"/>
      <path class="st2" d="M54.56,40.35v-14.88h6.16c.69,0,1.35.09,1.99.26.64.18,1.24.43,1.79.75.55.33,1.06.71,1.52,1.17.46.45.85.96,1.18,1.51.33.55.58,1.14.76,1.78.18.63.27,1.29.27,1.98s-.09,1.34-.27,1.98c-.18.63-.43,1.23-.76,1.78-.33.55-.72,1.05-1.18,1.51-.46.45-.97.84-1.52,1.16-.55.32-1.15.57-1.79.75-.64.18-1.3.26-1.99.26h-6.16ZM60.72,36.94c.55,0,1.07-.11,1.56-.32.49-.21.93-.5,1.31-.86s.68-.79.9-1.28c.22-.49.33-1.01.33-1.57s-.11-1.08-.33-1.57c-.22-.49-.52-.92-.9-1.29-.38-.37-.81-.66-1.31-.87-.49-.21-1.02-.32-1.56-.32h-2.76v8.07h2.76Z"/>
      <path class="st2" d="M79.83,40.35h-9.91v-14.88h9.91v3.18h-6.51v2.61h5.3v3.18h-5.3v2.74h6.51v3.18Z"/>
      <path class="st2" d="M89.73,40.35h-2.68v-14.88h6.58c.63,0,1.22.12,1.78.35.56.24,1.04.56,1.46.97.42.41.74.89.98,1.44.24.55.36,1.14.36,1.76,0,.19-.03.41-.1.67-.07.26-.16.52-.28.76-.12.25-.26.46-.43.65-.17.19-.36.31-.58.35.29.03.56.16.8.38.25.22.46.49.64.81.18.32.32.67.43,1.04.1.37.16.73.16,1.07,0,.64-.12,1.25-.37,1.81s-.58,1.05-1,1.46-.92.74-1.48.98-1.17.36-1.82.36h-4.45ZM90.44,28.87v2.24h3.31c.15,0,.28-.03.42-.09.13-.06.25-.14.34-.24s.17-.22.23-.35c.06-.14.08-.28.08-.43s-.03-.3-.08-.44c-.06-.14-.13-.26-.23-.36-.1-.1-.21-.19-.34-.24-.13-.06-.27-.09-.42-.09h-3.31ZM94.31,36.96c.16,0,.31-.03.45-.1s.26-.16.36-.27c.1-.11.19-.25.25-.39.06-.15.09-.31.09-.47s-.03-.32-.09-.47c-.06-.15-.14-.27-.24-.38-.1-.11-.23-.19-.36-.26-.14-.07-.29-.1-.45-.1h-3.87v2.44h3.86Z"/>
      <path class="st2" d="M104.53,40.35h-3.41v-14.88h3.41v14.88Z"/>
      <path class="st2" d="M117.37,40.35h-9.91v-14.88h9.91v3.18h-6.51v2.61h5.3v3.18h-5.3v2.74h6.51v3.18Z"/>
      <path class="st2" d="M133.12,40.35h-3.37l-7.11-10.29v10.29h-3.39v-14.88h3.34c.33,0,.63.05.88.15s.45.25.59.45l5.2,7.62c.08.11.14.23.2.36.06.13.1.25.15.37.04.11.07.21.09.3.02.08.03.13.03.16v-9.4h3.39v14.88Z"/>
      <path class="st2" d="M145.64,40.35h-9.91v-14.88h9.91v3.18h-6.51v2.61h5.3v3.18h-5.3v2.74h6.51v3.18Z"/>
      <path class="st2" d="M151.96,28.73c-.18,0-.35.02-.52.05s-.32.08-.45.15c-.13.07-.24.16-.32.26-.08.1-.12.23-.12.37,0,.22.06.39.17.52.11.12.28.23.5.33.22.09.51.19.84.28.34.09.73.22,1.18.37.57.19,1.1.43,1.57.71.47.28.88.61,1.22.99.34.38.6.8.78,1.27.19.47.28,1,.28,1.58,0,.72-.15,1.38-.46,1.98-.3.6-.71,1.11-1.22,1.54-.51.43-1.1.76-1.76,1-.66.24-1.35.36-2.07.36-.61,0-1.19-.09-1.74-.27-.55-.18-1.06-.43-1.52-.75s-.86-.71-1.21-1.15-.62-.93-.81-1.46l1.08-.62c.17-.1.36-.17.56-.23.2-.06.4-.09.6-.09.3,0,.57.06.8.19s.47.26.7.41c.23.15.46.28.71.4.24.12.52.19.83.19.21,0,.43-.03.68-.1.25-.07.47-.16.69-.29.21-.12.39-.28.52-.46.14-.18.21-.4.21-.64,0-.23-.06-.42-.19-.56-.13-.15-.3-.27-.52-.38-.22-.11-.47-.21-.75-.3-.28-.09-.58-.2-.89-.32-.51-.19-1.02-.4-1.52-.63-.5-.23-.94-.51-1.34-.85-.39-.34-.71-.74-.96-1.23-.25-.48-.37-1.08-.37-1.79,0-.67.14-1.27.41-1.79s.64-.96,1.09-1.32c.45-.36.96-.64,1.54-.83.58-.19,1.17-.29,1.78-.29.44,0,.87.07,1.29.22.42.15.82.34,1.19.58s.72.51,1.05.82c.33.3.62.62.88.93l-1.05.88c-.21.18-.42.31-.65.38-.23.08-.48.11-.75.11-.22,0-.42-.03-.58-.08-.17-.06-.32-.12-.47-.18-.15-.07-.29-.13-.44-.18-.15-.06-.3-.08-.48-.08Z"/>
    </g>
    <g>
      <path class="st1" d="M8.85,9.01h11.03c2.7,0,4.61.68,5.87,1.94.86.86,1.38,2,1.38,3.47v.06c0,2.49-1.41,3.96-3.32,4.79,2.61.86,4.27,2.33,4.27,5.25v.06c0,3.69-3.01,5.93-8.14,5.93h-11.09V9.01ZM18.4,17.58c1.81,0,2.83-.61,2.83-1.87v-.06c0-1.17-.92-1.84-2.7-1.84h-3.87v3.78h3.75ZM19.26,25.72c1.81,0,2.86-.71,2.86-1.97v-.06c0-1.17-.92-1.94-2.92-1.94h-4.55v3.96h4.61Z"/>
      <path class="st1" d="M29.58,9.01h5.56l8.85,11.37v-11.37h5.9v21.5h-5.22l-9.18-11.8v11.8h-5.9V9.01Z"/>
    </g>
  </g>
</svg>