<?xml version="1.0" encoding="UTF-8"?>
<svg id="Layer_1" xmlns="http://www.w3.org/2000/svg" version="1.1" viewBox="0 0 163.38 34.48">
  <!-- Generator: Adobe Illustrator 29.5.1, SVG Export Plug-In . SVG Version: 2.1.0 Build 141)  -->
  <defs>
    <style>
      .st0 {
        fill: #133d8d;
      }

      .st1 {
        fill: #b0bc22;
      }
    </style>
  </defs>
  <g>
    <g>
      <path class="st0" d="M29.36,10.09h10.99c2.7,0,4.59.67,5.85,1.93.86.86,1.38,1.99,1.38,3.46v.06c0,2.48-1.41,3.95-3.31,4.78,2.6.86,4.26,2.33,4.26,5.24v.06c0,3.68-3,5.91-8.12,5.91h-11.06V10.09ZM38.88,18.63c1.81,0,2.82-.61,2.82-1.87v-.06c0-1.16-.92-1.84-2.7-1.84h-3.86v3.77h3.74ZM39.74,26.74c1.81,0,2.85-.7,2.85-1.96v-.06c0-1.16-.92-1.93-2.91-1.93h-4.53v3.95h4.59Z"/>
      <path class="st0" d="M50.03,10.09h5.54l8.82,11.33v-11.33h5.88v21.44h-5.21l-9.16-11.76v11.76h-5.88V10.09Z"/>
    </g>
    <polygon class="st1" points="5.19 31.52 14.43 5.73 24.3 2.85 19.63 31.52 13.94 31.52 19.92 7.01 16 8.14 8.62 31.52 5.19 31.52"/>
    <polygon class="st1" points="24.81 9.56 22.31 31.52 26.7 31.52 26.95 13.07 24.81 9.56"/>
  </g>
  <g>
    <path class="st0" d="M92.13,11.73c.13-.31.3-.58.52-.82s.45-.44.72-.61c.26-.17.55-.29.86-.38.31-.09.63-.13.97-.13h3.23l-9.54,21.83h-4.3l-9.54-21.83h3.21c.31,0,.63.05.94.14.31.1.61.23.88.41.27.18.52.38.74.62.22.23.39.49.51.76l4.97,11.41c.07.16.13.34.18.54.05.2.09.38.13.56.04.2.08.41.11.61.01-.19.04-.39.08-.58.03-.17.07-.36.12-.55.05-.19.12-.38.2-.55l5.01-11.44Z"/>
    <path class="st0" d="M104.82,31.63h-5V9.8h5v21.83Z"/>
    <path class="st0" d="M107.15,14.44v-4.66h17.12v4.66h-6.06v17.19h-4.98V14.44h-6.08Z"/>
    <path class="st0" d="M130.16,9.8h4.3l9.54,21.83h-3.22c-.34,0-.66-.04-.97-.13-.31-.09-.6-.21-.86-.38-.26-.17-.5-.37-.72-.61s-.39-.51-.52-.82l-1.07-2.42h-8.68l-1.04,2.42c-.12.27-.29.53-.51.76s-.46.44-.74.62c-.27.18-.57.32-.88.41-.31.1-.63.14-.94.14h-3.23l9.54-21.83ZM129.96,22.75h4.66l-1.9-4.57c-.09-.21-.16-.41-.21-.59-.05-.18-.09-.35-.12-.49-.04-.16-.07-.31-.08-.46-.02.14-.05.3-.09.47-.03.14-.07.3-.13.49-.06.18-.12.38-.21.58l-1.92,4.57Z"/>
    <path class="st0" d="M144.59,31.63V9.8h4.98v17.17h8.62v4.66h-13.61Z"/>
  </g>
</svg>